<svg xmlns="http://www.w3.org/2000/svg" xmlns:xlink="http://www.w3.org/1999/xlink" viewBox="0 0 502.88 478.27">
  <defs>
    <style>
      .cls-4 {
        fill: url(#linear-gradient4);
      }

    </style>
    <linearGradient id="linear-gradient4" x1="10.74" y1="240.21" x2="492.14" y2="240.21" gradientUnits="userSpaceOnUse">
      <stop offset="0" stop-color="#d7d8d9"/>
      <stop offset="0.16" stop-color="#a1a1a5"/>
      <stop offset="0.32" stop-color="#8f9097"/>
      <stop offset="0.56" stop-color="#d7d8d9"/>
      <stop offset="0.8" stop-color="#797d82"/>
      <stop offset="1" stop-color="#a1a1a5"/>
    </linearGradient>
  </defs>
  <g id="Layer_2" data-name="Layer 2">
    <g id="Layer_1-2" data-name="Layer 1">
      <g>
        <polygon class="cls-4" points="251.44 11.3 325.82 162.01 492.14 186.17 371.79 303.49 400.2 469.13 251.44 390.92 102.68 469.13 131.09 303.49 10.74 186.17 177.06 162.01 251.44 11.3"/>
        <path class="cls-4" d="M251.44,11.3,325.82,162l166.32,24.16L371.79,303.48,400.2,469.13,251.44,390.92,102.68,469.13l28.41-165.65L10.74,186.17,177.06,162,251.44,11.3m0-11.3L247,9.08,173.74,157.44,10,181.23,0,182.68l7.25,7.07L125.72,305.23l-28,163.06-1.71,10,9-4.71,146.43-77,146.43,77,9,4.71-1.71-10-28-163.06L495.63,189.75l7.25-7.07-10-1.45L329.14,157.44,255.93,9.08,251.44,0Z"/>
      </g>
    </g>
  </g>
</svg>
