<svg xmlns="http://www.w3.org/2000/svg" xmlns:xlink="http://www.w3.org/1999/xlink" viewBox="0 0 664 457.92">
  <defs>
    <style>
      .cls-1, .cls-2, .cls-21, .cls-24, .cls-27, .cls-30, .cls-33 {
        fill: none;
      }

      .cls-1 {
        stroke: url(#linear-gradient);
      }

      .cls-2 {
        stroke: url(#linear-gradient-2);
      }

      .cls-3 {
        fill: url(#linear-gradient-3);
      }

      .cls-4 {
        fill: url(#linear-gradient-4);
      }

      .cls-5 {
        fill: url(#linear-gradient-5);
      }

      .cls-6 {
        fill: url(#linear-gradient-6);
      }

      .cls-7 {
        fill: url(#linear-gradient-7);
      }

      .cls-8 {
        fill: url(#linear-gradient-8);
      }

      .cls-9 {
        fill: url(#linear-gradient-9);
      }

      .cls-10 {
        fill: url(#linear-gradient-10);
      }

      .cls-11 {
        fill: url(#linear-gradient-11);
      }

      .cls-12 {
        fill: url(#linear-gradient-12);
      }

      .cls-13 {
        fill: url(#linear-gradient-13);
      }

      .cls-14 {
        fill: url(#linear-gradient-14);
      }

      .cls-15 {
        fill: url(#linear-gradient-15);
      }

      .cls-16 {
        fill: url(#linear-gradient-16);
      }

      .cls-17 {
        fill: url(#linear-gradient-17);
      }

      .cls-18, .cls-22, .cls-25, .cls-28, .cls-31 {
        fill-opacity: 0.1;
      }

      .cls-18 {
        fill: url(#linear-gradient-18);
      }

      .cls-19, .cls-23, .cls-26, .cls-29, .cls-32 {
        fill-opacity: 0.2;
      }

      .cls-19 {
        fill: url(#radial-gradient);
      }

      .cls-20, .cls-35 {
        fill: #7a56ff;
      }

      .cls-21 {
        stroke: url(#linear-gradient-19);
      }

      .cls-22 {
        fill: url(#linear-gradient-20);
      }

      .cls-23 {
        fill: url(#radial-gradient-2);
      }

      .cls-24 {
        stroke: url(#linear-gradient-21);
      }

      .cls-25 {
        fill: url(#linear-gradient-22);
      }

      .cls-26 {
        fill: url(#radial-gradient-3);
      }

      .cls-27 {
        stroke: url(#linear-gradient-23);
      }

      .cls-28 {
        fill: url(#linear-gradient-24);
      }

      .cls-29 {
        fill: url(#radial-gradient-4);
      }

      .cls-30 {
        stroke: url(#linear-gradient-25);
      }

      .cls-31 {
        fill: url(#linear-gradient-26);
      }

      .cls-32 {
        fill: url(#radial-gradient-5);
      }

      .cls-33 {
        stroke: url(#linear-gradient-27);
      }

      .cls-34 {
        fill: #2b2d3f;
      }

      .cls-35 {
        font-size: 36px;
        font-family: Arial-BoldMT, Arial;
        font-weight: 700;
      }
    </style>
    <linearGradient id="linear-gradient" x1="329.5" y1="132.5" x2="329.5" y2="658.5" gradientTransform="matrix(1, 0, 0, -1, 0, 459)" gradientUnits="userSpaceOnUse">
      <stop offset="0" stop-color="#fff" stop-opacity="0.15"/>
      <stop offset="1" stop-color="#fff" stop-opacity="0"/>
      <stop offset="1" stop-color="#fff"/>
    </linearGradient>
    <linearGradient id="linear-gradient-2" x1="332" y1="130.5" x2="332" y2="786.5" xlink:href="#linear-gradient"/>
    <linearGradient id="linear-gradient-3" x1="141.22" y1="277.58" x2="87.38" y2="342.56" gradientTransform="matrix(1, 0, 0, -1, 0, 459)" gradientUnits="userSpaceOnUse">
      <stop offset="0" stop-color="#a32be9"/>
      <stop offset="1" stop-color="#8f1cd2"/>
    </linearGradient>
    <linearGradient id="linear-gradient-4" x1="98.15" y1="105.43" x2="234.44" y2="205.32" gradientTransform="matrix(1, 0, 0, -1, 0, 459)" gradientUnits="userSpaceOnUse">
      <stop offset="0" stop-color="#b13ff3" stop-opacity="0"/>
      <stop offset="1" stop-color="#a32be9"/>
    </linearGradient>
    <linearGradient id="linear-gradient-5" x1="150.76" y1="87.87" x2="18.03" y2="211.24" gradientTransform="matrix(1, 0, 0, -1, 0, 459)" gradientUnits="userSpaceOnUse">
      <stop offset="0" stop-color="#a32be9" stop-opacity="0"/>
      <stop offset="1" stop-color="#a32be9"/>
    </linearGradient>
    <linearGradient id="linear-gradient-6" x1="351.77" y1="199.53" x2="314.35" y2="253.1" xlink:href="#linear-gradient-3"/>
    <linearGradient id="linear-gradient-7" x1="323.35" y1="70.79" x2="426.31" y2="160.3" xlink:href="#linear-gradient-4"/>
    <linearGradient id="linear-gradient-8" x1="355.75" y1="56.91" x2="259.4" y2="163.15" xlink:href="#linear-gradient-5"/>
    <linearGradient id="linear-gradient-9" x1="452.81" y1="159.41" x2="425.28" y2="208.24" xlink:href="#linear-gradient-3"/>
    <linearGradient id="linear-gradient-10" x1="435.09" y1="51.32" x2="518.8" y2="141.46" xlink:href="#linear-gradient-4"/>
    <linearGradient id="linear-gradient-11" x1="451.28" y1="39.59" x2="376.77" y2="141.35" xlink:href="#linear-gradient-5"/>
    <linearGradient id="linear-gradient-12" x1="552.54" y1="127.74" x2="532.93" y2="170.79" xlink:href="#linear-gradient-3"/>
    <linearGradient id="linear-gradient-13" x1="544.53" y1="36.88" x2="609.62" y2="123.66" xlink:href="#linear-gradient-4"/>
    <linearGradient id="linear-gradient-14" x1="545.87" y1="27.49" x2="490.55" y2="121.04" xlink:href="#linear-gradient-5"/>
    <linearGradient id="linear-gradient-15" x1="250.34" y1="239.04" x2="204.03" y2="295.08" xlink:href="#linear-gradient-3"/>
    <linearGradient id="linear-gradient-16" x1="213.33" y1="90.83" x2="330.71" y2="177.09" xlink:href="#linear-gradient-4"/>
    <linearGradient id="linear-gradient-17" x1="258.52" y1="75.69" x2="144.27" y2="182.17" xlink:href="#linear-gradient-5"/>
    <linearGradient id="linear-gradient-18" x1="128.05" y1="394.97" x2="104.66" y2="287.28" gradientTransform="matrix(1, 0, 0, -1, 0, 459)" gradientUnits="userSpaceOnUse">
      <stop offset="0" stop-color="#9c83ff"/>
      <stop offset="1" stop-color="#b7a6fc"/>
    </linearGradient>
    <radialGradient id="radial-gradient" cx="-626.95" cy="777.05" r="1" gradientTransform="matrix(-27.87, 57, 83.25, 40.71, -82012.71, 4179.66)" gradientUnits="userSpaceOnUse">
      <stop offset="0" stop-color="#7a56ff"/>
      <stop offset="1" stop-color="#6942ff" stop-opacity="0"/>
    </radialGradient>
    <linearGradient id="linear-gradient-19" x1="148.27" y1="420.74" x2="107.94" y2="334.61" gradientTransform="matrix(1, 0, 0, -1, 0, 459)" gradientUnits="userSpaceOnUse">
      <stop offset="0" stop-color="#384a60"/>
      <stop offset="1" stop-color="#384a60" stop-opacity="0"/>
    </linearGradient>
    <linearGradient id="linear-gradient-20" x1="240.05" y1="349.97" x2="216.66" y2="242.28" xlink:href="#linear-gradient-18"/>
    <radialGradient id="radial-gradient-2" cx="-626.95" cy="777.05" r="1" gradientTransform="matrix(-27.87, 57, 83.25, 40.71, -81900.71, 4224.66)" xlink:href="#radial-gradient"/>
    <linearGradient id="linear-gradient-21" x1="260.27" y1="375.74" x2="219.94" y2="289.61" xlink:href="#linear-gradient-19"/>
    <linearGradient id="linear-gradient-22" x1="344.05" y1="305.97" x2="320.66" y2="198.28" xlink:href="#linear-gradient-18"/>
    <radialGradient id="radial-gradient-3" cx="-626.95" cy="777.05" r="1" gradientTransform="matrix(-27.87, 57, 83.25, 40.71, -81796.71, 4268.66)" xlink:href="#radial-gradient"/>
    <linearGradient id="linear-gradient-23" x1="364.27" y1="331.74" x2="323.94" y2="245.61" xlink:href="#linear-gradient-19"/>
    <linearGradient id="linear-gradient-24" x1="449.05" y1="260.97" x2="425.66" y2="153.28" xlink:href="#linear-gradient-18"/>
    <radialGradient id="radial-gradient-4" cx="-626.95" cy="777.05" r="1" gradientTransform="matrix(-27.87, 57, 83.25, 40.71, -81691.71, 4313.66)" xlink:href="#radial-gradient"/>
    <linearGradient id="linear-gradient-25" x1="469.27" y1="286.74" x2="428.94" y2="200.61" xlink:href="#linear-gradient-19"/>
    <linearGradient id="linear-gradient-26" x1="552.05" y1="226.97" x2="528.66" y2="119.28" xlink:href="#linear-gradient-18"/>
    <radialGradient id="radial-gradient-5" cx="-626.95" cy="777.05" r="1" gradientTransform="matrix(-27.87, 57, 83.25, 40.71, -81588.71, 4347.66)" xlink:href="#radial-gradient"/>
    <linearGradient id="linear-gradient-27" x1="572.27" y1="252.74" x2="531.94" y2="166.61" xlink:href="#linear-gradient-19"/>
  </defs>
  <g id="Layer_2" data-name="Layer 2">
    <g id="Layer_1-2" data-name="Layer 1">
      <path class="cls-1" d="M591,326.5c0-145.25-117.08-263-261.5-263S68,181.25,68,326.5"/>
      <path class="cls-2" d="M657,328.5C657,147.35,511.49.5,332,.5S7,147.35,7,328.5"/>
      <path class="cls-3" d="M120.57,135.65,67.85,155.41l52.72,23.24,51.88-22.08Z"/>
      <path class="cls-4" d="M172.44,156.57l-51.87,22.08-.86,279h52.73Z"/>
      <path class="cls-5" d="M67.85,155.41l52.72,23.33-.85,278.87H67Z"/>
      <path class="cls-6" d="M337.49,223.71,292,238.08,337.49,255l44.77-16.06Z"/>
      <path class="cls-7" d="M382.26,238.93,337.5,255l-.73,202.93h45.49Z"/>
      <path class="cls-8" d="M292,238.08l45.49,17-.73,202.87h-45.5Z"/>
      <path class="cls-9" d="M442.4,268.54l-45.5,11.6,45.5,13.65,44.77-13Z"/>
      <path class="cls-10" d="M487.17,280.82l-44.76,13-.73,163.82h45.49Z"/>
      <path class="cls-11" d="M396.91,280.14l45.5,13.7-.73,163.76h-45.5Z"/>
      <path class="cls-12" d="M545.23,304.76l-45.5,9.38,45.5,11L590,314.69Z"/>
      <path class="cls-13" d="M590,314.69l-44.76,10.48-.73,132.33H590Z"/>
      <path class="cls-14" d="M499.74,314.14l45.5,11.06-.73,132.3H499Z"/>
      <path class="cls-15" d="M232.58,180.52l-45.49,17,45.49,20,44.77-19Z"/>
      <path class="cls-16" d="M277.35,198.52l-44.76,19-.73,240.08h45.49Z"/>
      <path class="cls-17" d="M187.1,197.52l45.49,20.08-.73,240H186.37Z"/>
      <rect class="cls-18" x="85.5" y="63" width="71" height="67" rx="3.5"/>
      <rect class="cls-19" x="85.5" y="63" width="71" height="67" rx="3.5"/>
      <path class="cls-20" d="M107.26,108.92a11.35,11.35,0,0,1-3.87-.58,6.18,6.18,0,0,1-4-3.94,9.06,9.06,0,0,1-.48-2.78h5.57a3.07,3.07,0,0,0,.8,2,2.58,2.58,0,0,0,2,.77,2.4,2.4,0,0,0,2.14-.93,4.65,4.65,0,0,0,.64-2.66,4.28,4.28,0,0,0-.35-1.92,2,2,0,0,0-1-1,3,3,0,0,0-1.44-.32,3.22,3.22,0,0,0-1.5.35,2.73,2.73,0,0,0-1.12,1H99.42V86.1h15.23v4.7H105v3.14a4.25,4.25,0,0,1,1.56-.74,8.06,8.06,0,0,1,2.12-.25,7.64,7.64,0,0,1,3.77.89A6.08,6.08,0,0,1,115,96.47a9,9,0,0,1,.93,4.32,8.54,8.54,0,0,1-1.06,4.32,7.09,7.09,0,0,1-3,2.81A9.89,9.89,0,0,1,107.26,108.92Zm15.85-11.84A5.59,5.59,0,0,1,119,95.6a5.21,5.21,0,0,1-1.5-3.9v-.32a5.71,5.71,0,0,1,.67-2.82,4.64,4.64,0,0,1,1.92-1.88,6.39,6.39,0,0,1,3-.68,6.21,6.21,0,0,1,3,.68A4.65,4.65,0,0,1,128,88.53a5.67,5.67,0,0,1,.67,2.85v.32a5.21,5.21,0,0,1-1.5,3.9A5.57,5.57,0,0,1,123.11,97.08Zm0-3.78a.94.94,0,0,0,.74-.35,2,2,0,0,0,.29-1.25v-.32a2,2,0,0,0-.29-1.25.87.87,0,0,0-.74-.35.9.9,0,0,0-.73.35,2,2,0,0,0-.29,1.25v.32a2.25,2.25,0,0,0,.25,1.25A1,1,0,0,0,123.11,93.3Zm-2.88,15.52,15.36-22.4h5.12l-15.36,22.4Zm17.6.42a5.59,5.59,0,0,1-4.09-1.48,5.18,5.18,0,0,1-1.51-3.9v-.32a5.71,5.71,0,0,1,.67-2.82,4.64,4.64,0,0,1,1.92-1.88,6.39,6.39,0,0,1,3-.68,6.19,6.19,0,0,1,3,.68,4.65,4.65,0,0,1,1.95,1.85,5.67,5.67,0,0,1,.67,2.85v.32a5.21,5.21,0,0,1-1.5,3.9A5.62,5.62,0,0,1,137.83,109.24Zm0-3.78a.92.92,0,0,0,.74-.35,2.06,2.06,0,0,0,.28-1.25v-.32a2.06,2.06,0,0,0-.28-1.25.87.87,0,0,0-.74-.35.9.9,0,0,0-.73.35,2,2,0,0,0-.29,1.25v.32a2.25,2.25,0,0,0,.25,1.25A1,1,0,0,0,137.83,105.46Z"/>
      <rect class="cls-21" x="85.5" y="63" width="71" height="67" rx="3.5"/>
      <rect class="cls-22" x="197.5" y="108" width="71" height="67" rx="3.5"/>
      <rect class="cls-23" x="197.5" y="108" width="71" height="67" rx="3.5"/>
      <path class="cls-20" d="M220.19,153.5v-4.35H210.14v-3.94l10.43-14.11H226v13.31h2.43v4.74H226v4.35Zm-4.9-9.09h4.9v-6.94Zm20.29-2.33a5.63,5.63,0,0,1-4.1-1.48,5.21,5.21,0,0,1-1.5-3.9v-.32a5.6,5.6,0,0,1,.67-2.82,4.64,4.64,0,0,1,1.92-1.88,6.39,6.39,0,0,1,3-.68,6.21,6.21,0,0,1,3,.68,4.65,4.65,0,0,1,1.95,1.85,5.67,5.67,0,0,1,.67,2.85v.32a5.21,5.21,0,0,1-1.5,3.9A5.63,5.63,0,0,1,235.58,142.08Zm0-3.78a.94.94,0,0,0,.74-.35,2.06,2.06,0,0,0,.28-1.25v-.32a2.06,2.06,0,0,0-.28-1.25.87.87,0,0,0-.74-.35.94.94,0,0,0-.74.35,2.06,2.06,0,0,0-.28,1.25v.32a2.25,2.25,0,0,0,.25,1.25A1,1,0,0,0,235.58,138.3Zm-2.88,15.52,15.36-22.4h5.12l-15.36,22.4Zm17.6.42a5.63,5.63,0,0,1-4.1-1.48,5.21,5.21,0,0,1-1.5-3.9v-.32a5.6,5.6,0,0,1,.67-2.82,4.64,4.64,0,0,1,1.92-1.88,6.39,6.39,0,0,1,3-.68,6.21,6.21,0,0,1,3,.68,4.65,4.65,0,0,1,1.95,1.85,5.67,5.67,0,0,1,.67,2.85v.32a5.21,5.21,0,0,1-1.5,3.9A5.63,5.63,0,0,1,250.3,154.24Zm0-3.78a.94.94,0,0,0,.74-.35,2.06,2.06,0,0,0,.28-1.25v-.32a2.06,2.06,0,0,0-.28-1.25.87.87,0,0,0-.74-.35.94.94,0,0,0-.74.35,2.06,2.06,0,0,0-.28,1.25v.32a2.25,2.25,0,0,0,.25,1.25A1,1,0,0,0,250.3,150.46Z"/>
      <rect class="cls-24" x="197.5" y="108" width="71" height="67" rx="3.5"/>
      <rect class="cls-25" x="301.5" y="152" width="71" height="67" rx="3.5"/>
      <rect class="cls-26" x="301.5" y="152" width="71" height="67" rx="3.5"/>
      <path class="cls-20" d="M323.1,197.92a10.26,10.26,0,0,1-4.8-1,6.8,6.8,0,0,1-2.88-2.81,8.56,8.56,0,0,1-1-4.1h5.76a3.51,3.51,0,0,0,.7,2.37,3.18,3.18,0,0,0,2.37.77,2.63,2.63,0,0,0,2-.68,2.59,2.59,0,0,0,.67-1.85,2.49,2.49,0,0,0-.67-1.86,3.09,3.09,0,0,0-2.18-.64h-1.89v-4.22h1.89a2.66,2.66,0,0,0,1.89-.58,2.14,2.14,0,0,0,.64-1.69,2,2,0,0,0-.61-1.54,2.44,2.44,0,0,0-1.73-.58,2.76,2.76,0,0,0-2.08.71,2.94,2.94,0,0,0-.67,2.11h-5.76a8.21,8.21,0,0,1,1-4.1,6.29,6.29,0,0,1,2.82-2.59,10.18,10.18,0,0,1,4.54-.93,11.41,11.41,0,0,1,4.51.8,6.18,6.18,0,0,1,2.82,2.18,5.49,5.49,0,0,1,1,3.23,4.85,4.85,0,0,1-1,3.11,5.58,5.58,0,0,1-2.76,1.82,5.47,5.47,0,0,1,3,1.86,5.24,5.24,0,0,1,1.06,3.42,6.21,6.21,0,0,1-1.06,3.58,6.83,6.83,0,0,1-3,2.4A11.38,11.38,0,0,1,323.1,197.92Zm16-11.84A5.59,5.59,0,0,1,335,184.6a5.18,5.18,0,0,1-1.51-3.9v-.32a5.6,5.6,0,0,1,.67-2.82,4.64,4.64,0,0,1,1.92-1.88,6.39,6.39,0,0,1,3-.68,6.19,6.19,0,0,1,3,.68,4.65,4.65,0,0,1,2,1.85,5.67,5.67,0,0,1,.67,2.85v.32a5.21,5.21,0,0,1-1.5,3.9A5.63,5.63,0,0,1,339.11,186.08Zm0-3.78a.94.94,0,0,0,.74-.35,2,2,0,0,0,.29-1.25v-.32a2,2,0,0,0-.29-1.25.87.87,0,0,0-.74-.35.9.9,0,0,0-.73.35,2,2,0,0,0-.29,1.25v.32a2.25,2.25,0,0,0,.25,1.25A1,1,0,0,0,339.11,182.3Zm-2.88,15.52,15.36-22.4h5.12l-15.36,22.4Zm17.6.42a5.63,5.63,0,0,1-4.1-1.48,5.21,5.21,0,0,1-1.5-3.9v-.32a5.6,5.6,0,0,1,.67-2.82,4.64,4.64,0,0,1,1.92-1.88,6.39,6.39,0,0,1,3-.68,6.19,6.19,0,0,1,3,.68,4.65,4.65,0,0,1,1.95,1.85,5.67,5.67,0,0,1,.67,2.85v.32a5.21,5.21,0,0,1-1.5,3.9A5.63,5.63,0,0,1,353.83,198.24Zm0-3.78a.92.92,0,0,0,.74-.35,2,2,0,0,0,.29-1.25v-.32a2,2,0,0,0-.29-1.25.87.87,0,0,0-.74-.35.9.9,0,0,0-.73.35,2,2,0,0,0-.29,1.25v.32a2.25,2.25,0,0,0,.25,1.25A1,1,0,0,0,353.83,194.46Z"/>
      <rect class="cls-27" x="301.5" y="152" width="71" height="67" rx="3.5"/>
      <rect class="cls-28" x="406.5" y="197" width="71" height="67" rx="3.5"/>
      <rect class="cls-29" x="406.5" y="197" width="71" height="67" rx="3.5"/>
      <path class="cls-20" d="M445.19,231.08a5.61,5.61,0,0,1-4.09-1.48,5.22,5.22,0,0,1-1.51-3.9v-.32a5.61,5.61,0,0,1,.68-2.82,4.52,4.52,0,0,1,1.92-1.88,6.32,6.32,0,0,1,3-.68,6.16,6.16,0,0,1,3,.68,4.65,4.65,0,0,1,1.95,1.85,5.67,5.67,0,0,1,.67,2.85v.32a5.21,5.21,0,0,1-1.5,3.9A5.62,5.62,0,0,1,445.19,231.08Zm0-3.78a.92.92,0,0,0,.74-.35,2,2,0,0,0,.29-1.25v-.32a2,2,0,0,0-.29-1.25.87.87,0,0,0-.74-.35.92.92,0,0,0-.73.35,2,2,0,0,0-.29,1.25v.32a2.24,2.24,0,0,0,.26,1.25A.94.94,0,0,0,445.19,227.3Zm-2.88,15.52,15.36-22.4h5.12l-15.36,22.4Zm17.6.42a5.61,5.61,0,0,1-4.09-1.48,5.22,5.22,0,0,1-1.51-3.9v-.32a5.61,5.61,0,0,1,.68-2.82,4.52,4.52,0,0,1,1.92-1.88,6.32,6.32,0,0,1,3-.68,6.16,6.16,0,0,1,3,.68,4.65,4.65,0,0,1,1.95,1.85,5.67,5.67,0,0,1,.67,2.85v.32a5.21,5.21,0,0,1-1.5,3.9A5.62,5.62,0,0,1,459.91,243.24Zm0-3.78a.92.92,0,0,0,.74-.35,2,2,0,0,0,.29-1.25v-.32a2,2,0,0,0-.29-1.25.87.87,0,0,0-.74-.35.92.92,0,0,0-.73.35,2,2,0,0,0-.29,1.25v.32a2.24,2.24,0,0,0,.26,1.25A.94.94,0,0,0,459.91,239.46Z"/>
      <rect class="cls-30" x="406.5" y="197" width="71" height="67" rx="3.5"/>
      <rect class="cls-31" x="509.5" y="231" width="71" height="67" rx="3.5"/>
      <rect class="cls-32" x="509.5" y="231" width="71" height="67" rx="3.5"/>
      <path class="cls-20" d="M549.33,265.08a5.62,5.62,0,0,1-4.1-1.48,5.21,5.21,0,0,1-1.5-3.9v-.32a5.6,5.6,0,0,1,.67-2.82,4.64,4.64,0,0,1,1.92-1.88,6.37,6.37,0,0,1,3-.68,6.15,6.15,0,0,1,3,.68,4.62,4.62,0,0,1,2,1.85,5.77,5.77,0,0,1,.67,2.85v.32a5.18,5.18,0,0,1-1.51,3.9A5.59,5.59,0,0,1,549.33,265.08Zm0-3.78a.9.9,0,0,0,.73-.35,2,2,0,0,0,.29-1.25v-.32a2,2,0,0,0-.29-1.25.85.85,0,0,0-.73-.35.92.92,0,0,0-.74.35,2,2,0,0,0-.29,1.25v.32a2.24,2.24,0,0,0,.26,1.25A1,1,0,0,0,549.33,261.3Zm-2.88,15.52,15.36-22.4h5.12l-15.36,22.4Zm17.6.42a5.62,5.62,0,0,1-4.1-1.48,5.21,5.21,0,0,1-1.5-3.9v-.32a5.6,5.6,0,0,1,.67-2.82,4.64,4.64,0,0,1,1.92-1.88,6.37,6.37,0,0,1,3-.68,6.15,6.15,0,0,1,3,.68,4.62,4.62,0,0,1,2,1.85,5.77,5.77,0,0,1,.67,2.85v.32a5.18,5.18,0,0,1-1.51,3.9A5.59,5.59,0,0,1,564.05,277.24Zm0-3.78a.9.9,0,0,0,.73-.35,2,2,0,0,0,.29-1.25v-.32a2,2,0,0,0-.29-1.25.85.85,0,0,0-.73-.35.92.92,0,0,0-.74.35,2,2,0,0,0-.29,1.25v.32a2.24,2.24,0,0,0,.26,1.25A1,1,0,0,0,564.05,273.46Z"/>
      <rect class="cls-33" x="509.5" y="231" width="71" height="67" rx="3.5"/>
      <circle class="cls-34" cx="7" cy="335.5" r="7"/>
      <circle class="cls-34" cx="657" cy="335.5" r="7"/>
      <text class="cls-35" transform="translate(417.84 244.45)">+</text>
      <text class="cls-35" transform="translate(521.45 277.9)">+</text>
    </g>
  </g>
</svg>
