<svg width="664" height="459" viewBox="0 0 664 459" fill="none" xmlns="http://www.w3.org/2000/svg">
<path d="M591 327C591 181.749 473.922 64 329.5 64C185.078 64 68 181.749 68 327" stroke="url(#paint0_linear_442_976)"/>
<path d="M657 329C657 147.851 511.493 1.00001 332 1.00001C152.507 1.00001 7 147.851 7 329" stroke="url(#paint1_linear_442_976)"/>
<path d="M120.567 136.148L67.8473 155.907L120.567 179.153L172.446 157.069L120.567 136.148Z" fill="url(#paint2_linear_442_976)"/>
<path d="M172.436 157.07L120.565 179.154L119.714 458.107H172.436V157.07Z" fill="url(#paint3_linear_442_976)"/>
<path d="M67.8475 155.907L120.569 179.239L119.722 458.107H67L67.8475 155.907Z" fill="url(#paint4_linear_442_976)"/>
<path d="M337.489 224.208L291.996 238.582L337.489 255.492L382.257 239.427L337.489 224.208Z" fill="url(#paint5_linear_442_976)"/>
<path d="M382.262 239.428L337.501 255.493L336.767 458.418H382.262V239.428Z" fill="url(#paint6_linear_442_976)"/>
<path d="M292.005 238.582L337.501 255.555L336.769 458.418H291.274L292.005 238.582Z" fill="url(#paint7_linear_442_976)"/>
<path d="M442.397 269.036L396.904 280.64L442.397 294.291L487.165 281.323L442.397 269.036Z" fill="url(#paint8_linear_442_976)"/>
<path d="M487.171 281.323L442.41 294.292L441.676 458.107H487.171V281.323Z" fill="url(#paint9_linear_442_976)"/>
<path d="M396.913 280.639L442.408 294.34L441.677 458.104H396.182L396.913 280.639Z" fill="url(#paint10_linear_442_976)"/>
<path d="M545.226 305.264L499.733 314.638L545.226 325.666L589.994 315.189L545.226 305.264Z" fill="url(#paint11_linear_442_976)"/>
<path d="M590 315.19L545.239 325.666L544.505 458H590V315.19Z" fill="url(#paint12_linear_442_976)"/>
<path d="M499.742 314.637L545.237 325.705L544.506 457.998H499.011L499.742 314.637Z" fill="url(#paint13_linear_442_976)"/>
<path d="M232.58 181.019L187.087 198.025L232.58 218.031L277.348 199.025L232.58 181.019Z" fill="url(#paint14_linear_442_976)"/>
<path d="M277.354 199.024L232.593 218.03L231.859 458.106H277.354V199.024Z" fill="url(#paint15_linear_442_976)"/>
<path d="M187.096 198.023L232.591 218.103L231.86 458.105H186.365L187.096 198.023Z" fill="url(#paint16_linear_442_976)"/>
<rect x="85.5" y="63.5" width="71" height="67" rx="3.5" fill="url(#paint17_linear_442_976)" fill-opacity="0.1"/>
<rect x="85.5" y="63.5" width="71" height="67" rx="3.5" fill="url(#paint18_radial_442_976)" fill-opacity="0.2"/>
<path d="M107.26 109.416C105.724 109.416 104.433 109.224 103.388 108.84C102.343 108.456 101.489 107.923 100.828 107.24C100.188 106.536 99.7187 105.757 99.42 104.904C99.1213 104.029 98.9613 103.101 98.94 102.12H104.508C104.551 102.973 104.817 103.656 105.308 104.168C105.799 104.68 106.449 104.936 107.26 104.936C108.263 104.936 108.977 104.627 109.404 104.008C109.831 103.389 110.044 102.504 110.044 101.352C110.044 100.541 109.927 99.9013 109.692 99.432C109.457 98.9413 109.127 98.6 108.7 98.408C108.295 98.1947 107.815 98.088 107.26 98.088C106.705 98.088 106.204 98.2053 105.756 98.44C105.308 98.6533 104.935 98.9733 104.636 99.4H99.42V86.6H114.652V91.304H104.956V94.44C105.404 94.0987 105.927 93.8533 106.524 93.704C107.143 93.5333 107.847 93.448 108.636 93.448C110.087 93.448 111.345 93.7467 112.412 94.344C113.5 94.92 114.353 95.7947 114.972 96.968C115.591 98.12 115.9 99.56 115.9 101.288C115.9 102.931 115.548 104.371 114.844 105.608C114.14 106.824 113.137 107.763 111.836 108.424C110.556 109.085 109.031 109.416 107.26 109.416ZM123.111 97.576C121.383 97.576 120.018 97.0853 119.015 96.104C118.013 95.1227 117.511 93.8213 117.511 92.2V91.88C117.511 90.792 117.735 89.8533 118.183 89.064C118.631 88.2533 119.271 87.624 120.103 87.176C120.957 86.728 121.959 86.504 123.111 86.504C124.263 86.504 125.255 86.728 126.087 87.176C126.941 87.624 127.591 88.2427 128.039 89.032C128.487 89.8213 128.711 90.7707 128.711 91.88V92.2C128.711 93.8213 128.21 95.1227 127.207 96.104C126.205 97.0853 124.839 97.576 123.111 97.576ZM123.111 93.8C123.41 93.8 123.655 93.6827 123.847 93.448C124.039 93.2133 124.135 92.7973 124.135 92.2V91.88C124.135 91.2827 124.039 90.8667 123.847 90.632C123.677 90.3973 123.431 90.28 123.111 90.28C122.813 90.28 122.567 90.3973 122.375 90.632C122.183 90.8667 122.087 91.2827 122.087 91.88V92.2C122.087 92.7973 122.173 93.2133 122.343 93.448C122.535 93.6827 122.791 93.8 123.111 93.8ZM120.231 109.32L135.591 86.92H140.711L125.351 109.32H120.231ZM137.831 109.736C136.103 109.736 134.738 109.245 133.735 108.264C132.733 107.283 132.231 105.981 132.231 104.36V104.04C132.231 102.952 132.455 102.013 132.903 101.224C133.351 100.413 133.991 99.784 134.823 99.336C135.677 98.888 136.679 98.664 137.831 98.664C138.983 98.664 139.975 98.888 140.807 99.336C141.661 99.784 142.311 100.403 142.759 101.192C143.207 101.981 143.431 102.931 143.431 104.04V104.36C143.431 105.981 142.93 107.283 141.927 108.264C140.925 109.245 139.559 109.736 137.831 109.736ZM137.831 105.96C138.13 105.96 138.375 105.843 138.567 105.608C138.759 105.373 138.855 104.957 138.855 104.36V104.04C138.855 103.443 138.759 103.027 138.567 102.792C138.397 102.557 138.151 102.44 137.831 102.44C137.533 102.44 137.287 102.557 137.095 102.792C136.903 103.027 136.807 103.443 136.807 104.04V104.36C136.807 104.957 136.893 105.373 137.063 105.608C137.255 105.843 137.511 105.96 137.831 105.96Z" fill="#7A56FF"/>
<rect x="85.5" y="63.5" width="71" height="67" rx="3.5" stroke="url(#paint19_linear_442_976)"/>
<rect x="197.5" y="108.5" width="71" height="67" rx="3.5" fill="url(#paint20_linear_442_976)" fill-opacity="0.1"/>
<rect x="197.5" y="108.5" width="71" height="67" rx="3.5" fill="url(#paint21_radial_442_976)" fill-opacity="0.2"/>
<path d="M220.188 154V149.648H210.14V145.712L220.572 131.6H225.948V144.912H228.38V149.648H225.948V154H220.188ZM215.292 144.912H220.188V137.968L215.292 144.912ZM235.58 142.576C233.852 142.576 232.487 142.085 231.484 141.104C230.481 140.123 229.98 138.821 229.98 137.2V136.88C229.98 135.792 230.204 134.853 230.652 134.064C231.1 133.253 231.74 132.624 232.572 132.176C233.425 131.728 234.428 131.504 235.58 131.504C236.732 131.504 237.724 131.728 238.556 132.176C239.409 132.624 240.06 133.243 240.508 134.032C240.956 134.821 241.18 135.771 241.18 136.88V137.2C241.18 138.821 240.679 140.123 239.676 141.104C238.673 142.085 237.308 142.576 235.58 142.576ZM235.58 138.8C235.879 138.8 236.124 138.683 236.316 138.448C236.508 138.213 236.604 137.797 236.604 137.2V136.88C236.604 136.283 236.508 135.867 236.316 135.632C236.145 135.397 235.9 135.28 235.58 135.28C235.281 135.28 235.036 135.397 234.844 135.632C234.652 135.867 234.556 136.283 234.556 136.88V137.2C234.556 137.797 234.641 138.213 234.812 138.448C235.004 138.683 235.26 138.8 235.58 138.8ZM232.7 154.32L248.06 131.92H253.18L237.82 154.32H232.7ZM250.3 154.736C248.572 154.736 247.207 154.245 246.204 153.264C245.201 152.283 244.7 150.981 244.7 149.36V149.04C244.7 147.952 244.924 147.013 245.372 146.224C245.82 145.413 246.46 144.784 247.292 144.336C248.145 143.888 249.148 143.664 250.3 143.664C251.452 143.664 252.444 143.888 253.276 144.336C254.129 144.784 254.78 145.403 255.228 146.192C255.676 146.981 255.9 147.931 255.9 149.04V149.36C255.9 150.981 255.399 152.283 254.396 153.264C253.393 154.245 252.028 154.736 250.3 154.736ZM250.3 150.96C250.599 150.96 250.844 150.843 251.036 150.608C251.228 150.373 251.324 149.957 251.324 149.36V149.04C251.324 148.443 251.228 148.027 251.036 147.792C250.865 147.557 250.62 147.44 250.3 147.44C250.001 147.44 249.756 147.557 249.564 147.792C249.372 148.027 249.276 148.443 249.276 149.04V149.36C249.276 149.957 249.361 150.373 249.532 150.608C249.724 150.843 249.98 150.96 250.3 150.96Z" fill="#7A56FF"/>
<rect x="197.5" y="108.5" width="71" height="67" rx="3.5" stroke="url(#paint22_linear_442_976)"/>
<rect x="301.5" y="152.5" width="71" height="67" rx="3.5" fill="url(#paint23_linear_442_976)" fill-opacity="0.1"/>
<rect x="301.5" y="152.5" width="71" height="67" rx="3.5" fill="url(#paint24_radial_442_976)" fill-opacity="0.2"/>
<path d="M323.1 198.416C321.201 198.416 319.601 198.075 318.3 197.392C317.02 196.709 316.06 195.771 315.42 194.576C314.78 193.381 314.46 192.016 314.46 190.48H320.22C320.22 191.525 320.455 192.315 320.924 192.848C321.415 193.36 322.204 193.616 323.292 193.616C324.188 193.616 324.849 193.392 325.276 192.944C325.724 192.475 325.948 191.856 325.948 191.088C325.948 190.277 325.724 189.659 325.276 189.232C324.828 188.805 324.103 188.592 323.1 188.592H321.212V184.368H323.1C323.953 184.368 324.583 184.176 324.988 183.792C325.415 183.408 325.628 182.843 325.628 182.096C325.628 181.435 325.425 180.923 325.02 180.56C324.615 180.176 324.039 179.984 323.292 179.984C322.353 179.984 321.66 180.219 321.212 180.688C320.764 181.157 320.54 181.861 320.54 182.8H314.78C314.78 181.2 315.1 179.835 315.74 178.704C316.38 177.573 317.319 176.709 318.556 176.112C319.815 175.493 321.329 175.184 323.1 175.184C324.871 175.184 326.375 175.451 327.612 175.984C328.849 176.496 329.788 177.221 330.428 178.16C331.089 179.099 331.42 180.176 331.42 181.392C331.42 182.608 331.079 183.643 330.396 184.496C329.713 185.349 328.796 185.957 327.644 186.32C328.988 186.683 330.001 187.301 330.684 188.176C331.388 189.051 331.74 190.192 331.74 191.6C331.74 192.944 331.388 194.139 330.684 195.184C329.98 196.208 328.977 197.008 327.676 197.584C326.396 198.139 324.871 198.416 323.1 198.416ZM339.111 186.576C337.383 186.576 336.018 186.085 335.015 185.104C334.013 184.123 333.511 182.821 333.511 181.2V180.88C333.511 179.792 333.735 178.853 334.183 178.064C334.631 177.253 335.271 176.624 336.103 176.176C336.957 175.728 337.959 175.504 339.111 175.504C340.263 175.504 341.255 175.728 342.087 176.176C342.941 176.624 343.591 177.243 344.039 178.032C344.487 178.821 344.711 179.771 344.711 180.88V181.2C344.711 182.821 344.21 184.123 343.207 185.104C342.205 186.085 340.839 186.576 339.111 186.576ZM339.111 182.8C339.41 182.8 339.655 182.683 339.847 182.448C340.039 182.213 340.135 181.797 340.135 181.2V180.88C340.135 180.283 340.039 179.867 339.847 179.632C339.677 179.397 339.431 179.28 339.111 179.28C338.813 179.28 338.567 179.397 338.375 179.632C338.183 179.867 338.087 180.283 338.087 180.88V181.2C338.087 181.797 338.173 182.213 338.343 182.448C338.535 182.683 338.791 182.8 339.111 182.8ZM336.231 198.32L351.591 175.92H356.711L341.351 198.32H336.231ZM353.831 198.736C352.103 198.736 350.738 198.245 349.735 197.264C348.733 196.283 348.231 194.981 348.231 193.36V193.04C348.231 191.952 348.455 191.013 348.903 190.224C349.351 189.413 349.991 188.784 350.823 188.336C351.677 187.888 352.679 187.664 353.831 187.664C354.983 187.664 355.975 187.888 356.807 188.336C357.661 188.784 358.311 189.403 358.759 190.192C359.207 190.981 359.431 191.931 359.431 193.04V193.36C359.431 194.981 358.93 196.283 357.927 197.264C356.925 198.245 355.559 198.736 353.831 198.736ZM353.831 194.96C354.13 194.96 354.375 194.843 354.567 194.608C354.759 194.373 354.855 193.957 354.855 193.36V193.04C354.855 192.443 354.759 192.027 354.567 191.792C354.397 191.557 354.151 191.44 353.831 191.44C353.533 191.44 353.287 191.557 353.095 191.792C352.903 192.027 352.807 192.443 352.807 193.04V193.36C352.807 193.957 352.893 194.373 353.063 194.608C353.255 194.843 353.511 194.96 353.831 194.96Z" fill="#7A56FF"/>
<rect x="301.5" y="152.5" width="71" height="67" rx="3.5" stroke="url(#paint25_linear_442_976)"/>
<rect x="406.5" y="197.5" width="71" height="67" rx="3.5" fill="url(#paint26_linear_442_976)" fill-opacity="0.1"/>
<rect x="406.5" y="197.5" width="71" height="67" rx="3.5" fill="url(#paint27_radial_442_976)" fill-opacity="0.2"/>
<path d="M419.3 243V238.904L426.724 232.76C427.684 231.971 428.463 231.277 429.06 230.68C429.679 230.061 430.116 229.485 430.372 228.952C430.649 228.419 430.788 227.875 430.788 227.32C430.788 226.573 430.585 225.997 430.18 225.592C429.775 225.187 429.188 224.984 428.42 224.984C427.417 224.984 426.66 225.304 426.148 225.944C425.636 226.584 425.38 227.523 425.38 228.76H419.62C419.62 226.925 419.94 225.379 420.58 224.12C421.241 222.84 422.223 221.869 423.524 221.208C424.825 220.525 426.457 220.184 428.42 220.184C430.255 220.184 431.769 220.493 432.964 221.112C434.18 221.709 435.087 222.541 435.684 223.608C436.281 224.675 436.58 225.912 436.58 227.32C436.58 228.344 436.345 229.325 435.876 230.264C435.407 231.181 434.767 232.056 433.956 232.888C433.167 233.699 432.249 234.509 431.204 235.32L427.332 238.264H436.9V243H419.3ZM444.111 231.576C442.383 231.576 441.018 231.085 440.015 230.104C439.013 229.123 438.511 227.821 438.511 226.2V225.88C438.511 224.792 438.735 223.853 439.183 223.064C439.631 222.253 440.271 221.624 441.103 221.176C441.957 220.728 442.959 220.504 444.111 220.504C445.263 220.504 446.255 220.728 447.087 221.176C447.941 221.624 448.591 222.243 449.039 223.032C449.487 223.821 449.711 224.771 449.711 225.88V226.2C449.711 227.821 449.21 229.123 448.207 230.104C447.205 231.085 445.839 231.576 444.111 231.576ZM444.111 227.8C444.41 227.8 444.655 227.683 444.847 227.448C445.039 227.213 445.135 226.797 445.135 226.2V225.88C445.135 225.283 445.039 224.867 444.847 224.632C444.677 224.397 444.431 224.28 444.111 224.28C443.813 224.28 443.567 224.397 443.375 224.632C443.183 224.867 443.087 225.283 443.087 225.88V226.2C443.087 226.797 443.173 227.213 443.343 227.448C443.535 227.683 443.791 227.8 444.111 227.8ZM441.231 243.32L456.591 220.92H461.711L446.351 243.32H441.231ZM458.831 243.736C457.103 243.736 455.738 243.245 454.735 242.264C453.733 241.283 453.231 239.981 453.231 238.36V238.04C453.231 236.952 453.455 236.013 453.903 235.224C454.351 234.413 454.991 233.784 455.823 233.336C456.677 232.888 457.679 232.664 458.831 232.664C459.983 232.664 460.975 232.888 461.807 233.336C462.661 233.784 463.311 234.403 463.759 235.192C464.207 235.981 464.431 236.931 464.431 238.04V238.36C464.431 239.981 463.93 241.283 462.927 242.264C461.925 243.245 460.559 243.736 458.831 243.736ZM458.831 239.96C459.13 239.96 459.375 239.843 459.567 239.608C459.759 239.373 459.855 238.957 459.855 238.36V238.04C459.855 237.443 459.759 237.027 459.567 236.792C459.397 236.557 459.151 236.44 458.831 236.44C458.533 236.44 458.287 236.557 458.095 236.792C457.903 237.027 457.807 237.443 457.807 238.04V238.36C457.807 238.957 457.893 239.373 458.063 239.608C458.255 239.843 458.511 239.96 458.831 239.96Z" fill="#7A56FF"/>
<rect x="406.5" y="197.5" width="71" height="67" rx="3.5" stroke="url(#paint28_linear_442_976)"/>
<rect x="509.5" y="231.5" width="71" height="67" rx="3.5" fill="url(#paint29_linear_442_976)" fill-opacity="0.1"/>
<rect x="509.5" y="231.5" width="71" height="67" rx="3.5" fill="url(#paint30_radial_442_976)" fill-opacity="0.2"/>
<path d="M524.28 277V272.264H529.208V260.392L524.28 263.912V258.152L529.24 254.6H535V272.264H539V277H524.28ZM545.549 265.576C543.821 265.576 542.455 265.085 541.453 264.104C540.45 263.123 539.949 261.821 539.949 260.2V259.88C539.949 258.792 540.173 257.853 540.621 257.064C541.069 256.253 541.709 255.624 542.541 255.176C543.394 254.728 544.397 254.504 545.549 254.504C546.701 254.504 547.693 254.728 548.525 255.176C549.378 255.624 550.029 256.243 550.477 257.032C550.925 257.821 551.149 258.771 551.149 259.88V260.2C551.149 261.821 550.647 263.123 549.645 264.104C548.642 265.085 547.277 265.576 545.549 265.576ZM545.549 261.8C545.847 261.8 546.093 261.683 546.285 261.448C546.477 261.213 546.573 260.797 546.573 260.2V259.88C546.573 259.283 546.477 258.867 546.285 258.632C546.114 258.397 545.869 258.28 545.549 258.28C545.25 258.28 545.005 258.397 544.813 258.632C544.621 258.867 544.525 259.283 544.525 259.88V260.2C544.525 260.797 544.61 261.213 544.781 261.448C544.973 261.683 545.229 261.8 545.549 261.8ZM542.669 277.32L558.029 254.92H563.149L547.789 277.32H542.669ZM560.269 277.736C558.541 277.736 557.175 277.245 556.173 276.264C555.17 275.283 554.669 273.981 554.669 272.36V272.04C554.669 270.952 554.893 270.013 555.341 269.224C555.789 268.413 556.429 267.784 557.261 267.336C558.114 266.888 559.117 266.664 560.269 266.664C561.421 266.664 562.413 266.888 563.245 267.336C564.098 267.784 564.749 268.403 565.197 269.192C565.645 269.981 565.869 270.931 565.869 272.04V272.36C565.869 273.981 565.367 275.283 564.365 276.264C563.362 277.245 561.997 277.736 560.269 277.736ZM560.269 273.96C560.567 273.96 560.813 273.843 561.005 273.608C561.197 273.373 561.293 272.957 561.293 272.36V272.04C561.293 271.443 561.197 271.027 561.005 270.792C560.834 270.557 560.589 270.44 560.269 270.44C559.97 270.44 559.725 270.557 559.533 270.792C559.341 271.027 559.245 271.443 559.245 272.04V272.36C559.245 272.957 559.33 273.373 559.501 273.608C559.693 273.843 559.949 273.96 560.269 273.96Z" fill="#7A56FF"/>
<rect x="509.5" y="231.5" width="71" height="67" rx="3.5" stroke="url(#paint31_linear_442_976)"/>
<circle cx="7" cy="336" r="7" fill="#2B2D3F"/>
<circle cx="657" cy="336" r="7" fill="#2B2D3F"/>
<defs>
<linearGradient id="paint0_linear_442_976" x1="329.5" y1="327" x2="329.5" y2="-199" gradientUnits="userSpaceOnUse">
<stop stop-color="white" stop-opacity="0.15"/>
<stop offset="1" stop-color="white" stop-opacity="0"/>
<stop offset="1" stop-color="white"/>
</linearGradient>
<linearGradient id="paint1_linear_442_976" x1="332" y1="329" x2="332" y2="-327" gradientUnits="userSpaceOnUse">
<stop stop-color="white" stop-opacity="0.15"/>
<stop offset="1" stop-color="white" stop-opacity="0"/>
<stop offset="1" stop-color="white"/>
</linearGradient>
<linearGradient id="paint2_linear_442_976" x1="137.073" y1="185.352" x2="83.2387" y2="120.377" gradientUnits="userSpaceOnUse">
<stop stop-color="#A32BE9"/>
<stop offset="1" stop-color="#8F1CD2"/>
</linearGradient>
<linearGradient id="paint3_linear_442_976" x1="144.032" y1="416.679" x2="280.323" y2="316.79" gradientUnits="userSpaceOnUse">
<stop stop-color="#B13FF3" stop-opacity="0"/>
<stop offset="1" stop-color="#A32BE9"/>
</linearGradient>
<linearGradient id="paint4_linear_442_976" x1="96.32" y1="430.205" x2="-36.4089" y2="306.833" gradientUnits="userSpaceOnUse">
<stop stop-color="#A32BE9" stop-opacity="0"/>
<stop offset="1" stop-color="#A32BE9"/>
</linearGradient>
<linearGradient id="paint5_linear_442_976" x1="351.732" y1="260.002" x2="314.312" y2="206.425" gradientUnits="userSpaceOnUse">
<stop stop-color="#A32BE9"/>
<stop offset="1" stop-color="#8F1CD2"/>
</linearGradient>
<linearGradient id="paint6_linear_442_976" x1="357.752" y1="428.281" x2="460.712" y2="338.767" gradientUnits="userSpaceOnUse">
<stop stop-color="#B13FF3" stop-opacity="0"/>
<stop offset="1" stop-color="#A32BE9"/>
</linearGradient>
<linearGradient id="paint7_linear_442_976" x1="316.575" y1="438.121" x2="220.223" y2="331.882" gradientUnits="userSpaceOnUse">
<stop stop-color="#A32BE9" stop-opacity="0"/>
<stop offset="1" stop-color="#A32BE9"/>
</linearGradient>
<linearGradient id="paint8_linear_442_976" x1="456.64" y1="297.932" x2="429.11" y2="249.105" gradientUnits="userSpaceOnUse">
<stop stop-color="#A32BE9"/>
<stop offset="1" stop-color="#8F1CD2"/>
</linearGradient>
<linearGradient id="paint9_linear_442_976" x1="462.66" y1="433.778" x2="546.362" y2="343.634" gradientUnits="userSpaceOnUse">
<stop stop-color="#B13FF3" stop-opacity="0"/>
<stop offset="1" stop-color="#A32BE9"/>
</linearGradient>
<linearGradient id="paint10_linear_442_976" x1="421.483" y1="441.719" x2="346.98" y2="339.959" gradientUnits="userSpaceOnUse">
<stop stop-color="#A32BE9" stop-opacity="0"/>
<stop offset="1" stop-color="#A32BE9"/>
</linearGradient>
<linearGradient id="paint11_linear_442_976" x1="559.47" y1="328.607" x2="539.86" y2="285.555" gradientUnits="userSpaceOnUse">
<stop stop-color="#A32BE9"/>
<stop offset="1" stop-color="#8F1CD2"/>
</linearGradient>
<linearGradient id="paint12_linear_442_976" x1="565.49" y1="438.347" x2="630.582" y2="351.568" gradientUnits="userSpaceOnUse">
<stop stop-color="#B13FF3" stop-opacity="0"/>
<stop offset="1" stop-color="#A32BE9"/>
</linearGradient>
<linearGradient id="paint13_linear_442_976" x1="524.312" y1="444.762" x2="468.985" y2="351.216" gradientUnits="userSpaceOnUse">
<stop stop-color="#A32BE9" stop-opacity="0"/>
<stop offset="1" stop-color="#A32BE9"/>
</linearGradient>
<linearGradient id="paint14_linear_442_976" x1="246.824" y1="223.366" x2="200.516" y2="167.325" gradientUnits="userSpaceOnUse">
<stop stop-color="#A32BE9"/>
<stop offset="1" stop-color="#8F1CD2"/>
</linearGradient>
<linearGradient id="paint15_linear_442_976" x1="252.844" y1="422.451" x2="370.233" y2="336.185" gradientUnits="userSpaceOnUse">
<stop stop-color="#B13FF3" stop-opacity="0"/>
<stop offset="1" stop-color="#A32BE9"/>
</linearGradient>
<linearGradient id="paint16_linear_442_976" x1="211.666" y1="434.091" x2="97.4133" y2="327.61" gradientUnits="userSpaceOnUse">
<stop stop-color="#A32BE9" stop-opacity="0"/>
<stop offset="1" stop-color="#A32BE9"/>
</linearGradient>
<linearGradient id="paint17_linear_442_976" x1="121" y1="63" x2="97.609" y2="170.685" gradientUnits="userSpaceOnUse">
<stop stop-color="#9C83FF"/>
<stop offset="1" stop-color="#B7A6FC"/>
</linearGradient>
<radialGradient id="paint18_radial_442_976" cx="0" cy="0" r="1" gradientUnits="userSpaceOnUse" gradientTransform="translate(148.871 74) rotate(116.057) scale(63.4491 92.6671)">
<stop stop-color="#7A56FF"/>
<stop offset="1" stop-color="#6942FF" stop-opacity="0"/>
</radialGradient>
<linearGradient id="paint19_linear_442_976" x1="165.25" y1="46.7083" x2="124.92" y2="132.836" gradientUnits="userSpaceOnUse">
<stop stop-color="#384A60"/>
<stop offset="1" stop-color="#384A60" stop-opacity="0"/>
</linearGradient>
<linearGradient id="paint20_linear_442_976" x1="233" y1="108" x2="209.609" y2="215.685" gradientUnits="userSpaceOnUse">
<stop stop-color="#9C83FF"/>
<stop offset="1" stop-color="#B7A6FC"/>
</linearGradient>
<radialGradient id="paint21_radial_442_976" cx="0" cy="0" r="1" gradientUnits="userSpaceOnUse" gradientTransform="translate(260.871 119) rotate(116.057) scale(63.4491 92.6671)">
<stop stop-color="#7A56FF"/>
<stop offset="1" stop-color="#6942FF" stop-opacity="0"/>
</radialGradient>
<linearGradient id="paint22_linear_442_976" x1="277.25" y1="91.7083" x2="236.92" y2="177.836" gradientUnits="userSpaceOnUse">
<stop stop-color="#384A60"/>
<stop offset="1" stop-color="#384A60" stop-opacity="0"/>
</linearGradient>
<linearGradient id="paint23_linear_442_976" x1="337" y1="152" x2="313.609" y2="259.685" gradientUnits="userSpaceOnUse">
<stop stop-color="#9C83FF"/>
<stop offset="1" stop-color="#B7A6FC"/>
</linearGradient>
<radialGradient id="paint24_radial_442_976" cx="0" cy="0" r="1" gradientUnits="userSpaceOnUse" gradientTransform="translate(364.871 163) rotate(116.057) scale(63.4491 92.6671)">
<stop stop-color="#7A56FF"/>
<stop offset="1" stop-color="#6942FF" stop-opacity="0"/>
</radialGradient>
<linearGradient id="paint25_linear_442_976" x1="381.25" y1="135.708" x2="340.92" y2="221.836" gradientUnits="userSpaceOnUse">
<stop stop-color="#384A60"/>
<stop offset="1" stop-color="#384A60" stop-opacity="0"/>
</linearGradient>
<linearGradient id="paint26_linear_442_976" x1="442" y1="197" x2="418.609" y2="304.685" gradientUnits="userSpaceOnUse">
<stop stop-color="#9C83FF"/>
<stop offset="1" stop-color="#B7A6FC"/>
</linearGradient>
<radialGradient id="paint27_radial_442_976" cx="0" cy="0" r="1" gradientUnits="userSpaceOnUse" gradientTransform="translate(469.871 208) rotate(116.057) scale(63.4491 92.6671)">
<stop stop-color="#7A56FF"/>
<stop offset="1" stop-color="#6942FF" stop-opacity="0"/>
</radialGradient>
<linearGradient id="paint28_linear_442_976" x1="486.25" y1="180.708" x2="445.92" y2="266.836" gradientUnits="userSpaceOnUse">
<stop stop-color="#384A60"/>
<stop offset="1" stop-color="#384A60" stop-opacity="0"/>
</linearGradient>
<linearGradient id="paint29_linear_442_976" x1="545" y1="231" x2="521.609" y2="338.685" gradientUnits="userSpaceOnUse">
<stop stop-color="#9C83FF"/>
<stop offset="1" stop-color="#B7A6FC"/>
</linearGradient>
<radialGradient id="paint30_radial_442_976" cx="0" cy="0" r="1" gradientUnits="userSpaceOnUse" gradientTransform="translate(572.871 242) rotate(116.057) scale(63.4491 92.6671)">
<stop stop-color="#7A56FF"/>
<stop offset="1" stop-color="#6942FF" stop-opacity="0"/>
</radialGradient>
<linearGradient id="paint31_linear_442_976" x1="589.25" y1="214.708" x2="548.92" y2="300.836" gradientUnits="userSpaceOnUse">
<stop stop-color="#384A60"/>
<stop offset="1" stop-color="#384A60" stop-opacity="0"/>
</linearGradient>
</defs>
</svg>
