<svg width="357" height="886" viewBox="0 0 357 886" fill="none" xmlns="http://www.w3.org/2000/svg">
<path d="M0.5 3.5H251.766C290.831 3.5 322.5 35.1686 322.5 74.2338V74.2338C322.5 113.116 291.117 144.708 252.235 144.966L90.5171 146.039C52.0495 146.294 21 177.55 21 216.019V216.019C21 254.668 52.3317 286 90.9813 286H253C291.384 286 322.5 317.116 322.5 355.5V355.5C322.5 393.884 291.384 425 253 425H97C55.0264 425 21 459.026 21 501V501C21 542.974 55.0264 577 97 577H245.5C288.026 577 322.5 611.474 322.5 654V654C322.5 696.526 288.026 731 245.5 731H97C55.0264 731 21 765.026 21 807V807C21 848.974 55.0264 883 97 883H356.5" stroke="url(#paint0_linear_508_965)" stroke-width="6"/>
<defs>
<linearGradient id="paint0_linear_508_965" x1="-40.0002" y1="431.505" x2="372.781" y2="445.68" gradientUnits="userSpaceOnUse">
<stop offset="0.0982318" stop-color="#7D53FE" stop-opacity="0"/>
<stop offset="0.248493" stop-color="#8050FC" stop-opacity="0.16"/>
<stop offset="0.387528" stop-color="#8C43F6"/>
<stop offset="0.643599" stop-color="#864AF9" stop-opacity="0.591513"/>
<stop offset="0.943403" stop-color="#7D53FE" stop-opacity="0"/>
</linearGradient>
</defs>
</svg>
