<svg width="18" height="16" viewBox="0 0 18 16" fill="none" xmlns="http://www.w3.org/2000/svg">
<path fill-rule="evenodd" clip-rule="evenodd" d="M16.5842 4.66961C16.5369 4.66663 16.4855 4.66665 16.4322 4.66667L16.4189 4.66667H14.3285C12.6054 4.66667 11.1311 6.02297 11.1311 7.79167C11.1311 9.56037 12.6054 10.9167 14.3285 10.9167H16.4189L16.4322 10.9167C16.4855 10.9167 16.5369 10.9167 16.5842 10.9137C17.2841 10.8695 17.903 10.3218 17.9551 9.55685C17.9585 9.50669 17.9584 9.45261 17.9584 9.4025L17.9584 9.3889V6.19445L17.9584 6.18085C17.9584 6.13073 17.9585 6.07666 17.9551 6.0265C17.903 5.2615 17.2841 4.71381 16.5842 4.66961ZM14.1431 8.625C14.5867 8.625 14.9464 8.2519 14.9464 7.79167C14.9464 7.33143 14.5867 6.95833 14.1431 6.95833C13.6995 6.95833 13.3399 7.33143 13.3399 7.79167C13.3399 8.2519 13.6995 8.625 14.1431 8.625Z" fill="white" fill-opacity="0.4"/>
<path fill-rule="evenodd" clip-rule="evenodd" d="M16.4317 12.1667C16.5559 12.1635 16.65 12.2785 16.6163 12.3982C16.449 12.9919 16.1834 13.4979 15.7574 13.924C15.1337 14.5476 14.343 14.8244 13.3659 14.9557C12.4166 15.0834 11.2036 15.0833 9.67209 15.0833H7.91141C6.37994 15.0833 5.16691 15.0834 4.21756 14.9557C3.24054 14.8244 2.44975 14.5476 1.82612 13.924C1.20248 13.3003 0.925718 12.5095 0.794361 11.5325C0.666725 10.5832 0.666735 9.37015 0.666748 7.83868V7.74465C0.666735 6.21319 0.666724 5.00016 0.794361 4.05082C0.925717 3.0738 1.20248 2.28301 1.82612 1.65937C2.44975 1.03573 3.24054 0.75897 4.21756 0.627613C5.16691 0.499977 6.37993 0.499987 7.9114 0.5L9.6721 0.5C11.2036 0.499987 12.4166 0.499976 13.3659 0.627613C14.343 0.758969 15.1337 1.03573 15.7574 1.65937C16.1834 2.08544 16.449 2.59145 16.6162 3.18515C16.65 3.3048 16.5559 3.41989 16.4317 3.41667L14.3284 3.41667C11.9646 3.41667 9.88102 5.28409 9.88102 7.79167C9.88102 10.2993 11.9646 12.1667 14.3284 12.1667L16.4317 12.1667ZM4.83341 10.9167C4.48824 10.9167 4.20841 10.6368 4.20841 10.2917V5.29167C4.20841 4.94649 4.48824 4.66667 4.83341 4.66667C5.17859 4.66667 5.45841 4.94649 5.45841 5.29167V10.2917C5.45841 10.6368 5.17859 10.9167 4.83341 10.9167Z" fill="white" fill-opacity="0.4"/>
</svg>
