<svg width="18" height="15" viewBox="0 0 18 15" fill="none" xmlns="http://www.w3.org/2000/svg">
<path fill-rule="evenodd" clip-rule="evenodd" d="M14.3915 14.1088C14.6355 14.3528 15.0313 14.3528 15.2754 14.1088L16.942 12.4421C17.1861 12.198 17.1861 11.8023 16.942 11.5582C16.6979 11.3141 16.3022 11.3141 16.0581 11.5582L15.4584 12.1579V8.66683C15.4584 8.32165 15.1786 8.04183 14.8334 8.04183C14.4882 8.04183 14.2084 8.32165 14.2084 8.66683V12.1579L13.6087 11.5582C13.3646 11.3141 12.9689 11.3141 12.7248 11.5582C12.4807 11.8023 12.4807 12.198 12.7248 12.4421L14.3915 14.1088Z" fill="white" fill-opacity="0.4"/>
<path d="M7.33341 0.333496H10.6667C13.8094 0.333496 15.3808 0.333496 16.3571 1.30981C17.0601 2.01276 17.2569 3.02418 17.312 4.7085H0.688178C0.743287 3.02418 0.940108 2.01276 1.64306 1.30981C2.61937 0.333496 4.19072 0.333496 7.33341 0.333496Z" fill="white" fill-opacity="0.4"/>
<path fill-rule="evenodd" clip-rule="evenodd" d="M7.33341 13.6668H10.6667C11.2163 13.6668 11.7179 13.6668 12.1765 13.6616L11.8409 13.326C11.1087 12.5938 11.1087 11.4066 11.8409 10.6743C12.154 10.3613 12.5502 10.1821 12.9584 10.1367V8.66683C12.9584 7.63129 13.7979 6.79183 14.8334 6.79183C15.8689 6.79183 16.7084 7.63129 16.7084 8.66683V10.1367C16.895 10.1574 17.079 10.2061 17.2537 10.2827C17.3334 9.43112 17.3334 8.3635 17.3334 7.00016C17.3334 6.63189 17.3334 6.28519 17.3318 5.9585H0.668319C0.666748 6.28519 0.666748 6.63189 0.666748 7.00016C0.666748 10.1429 0.666748 11.7142 1.64306 12.6905C2.61937 13.6668 4.19072 13.6668 7.33341 13.6668ZM4.00008 9.7085C3.6549 9.7085 3.37508 9.98832 3.37508 10.3335C3.37508 10.6787 3.6549 10.9585 4.00008 10.9585H7.33341C7.67859 10.9585 7.95841 10.6787 7.95841 10.3335C7.95841 9.98832 7.67859 9.7085 7.33341 9.7085H4.00008ZM9.41675 9.7085C9.07157 9.7085 8.79175 9.98832 8.79175 10.3335C8.79175 10.6787 9.07157 10.9585 9.41675 10.9585H10.6667C11.0119 10.9585 11.2917 10.6787 11.2917 10.3335C11.2917 9.98832 11.0119 9.7085 10.6667 9.7085H9.41675Z" fill="white" fill-opacity="0.4"/>
</svg>
