<svg width="18" height="18" viewBox="0 0 18 18" fill="none" xmlns="http://www.w3.org/2000/svg">
<path fill-rule="evenodd" clip-rule="evenodd" d="M17.3334 8.99984C17.3334 13.6022 13.6025 17.3332 9.00008 17.3332C4.39771 17.3332 0.666748 13.6022 0.666748 8.99984C0.666748 4.39746 4.39771 0.666504 9.00008 0.666504C13.6025 0.666504 17.3334 4.39746 17.3334 8.99984ZM11.5001 6.49984C11.5001 7.88055 10.3808 8.99984 9.00008 8.99984C7.61937 8.99984 6.50008 7.88055 6.50008 6.49984C6.50008 5.11913 7.61937 3.99984 9.00008 3.99984C10.3808 3.99984 11.5001 5.11913 11.5001 6.49984ZM9.00007 16.0832C10.4868 16.0832 11.8665 15.6251 13.0058 14.8425C13.5091 14.4968 13.7241 13.8384 13.4316 13.3025C12.825 12.1917 11.5753 11.4998 9.00003 11.4998C6.42482 11.4998 5.17505 12.1917 4.56853 13.3025C4.27595 13.8383 4.491 14.4968 4.99421 14.8425C6.13357 15.6251 7.51333 16.0832 9.00007 16.0832Z" fill="white" fill-opacity="0.4"/>
</svg>
