<svg width="20" height="20" viewBox="0 0 20 20" fill="none" xmlns="http://www.w3.org/2000/svg">
<path d="M13.3334 12.7082C13.9087 12.7082 14.3751 12.2418 14.3751 11.6665C14.3751 11.0912 13.9087 10.6248 13.3334 10.6248C12.7581 10.6248 12.2917 11.0912 12.2917 11.6665C12.2917 12.2418 12.7581 12.7082 13.3334 12.7082Z" fill="white" fill-opacity="0.4"/>
<path d="M7.70841 8.33317C7.70841 7.75787 7.24204 7.2915 6.66675 7.2915C6.09145 7.2915 5.62508 7.75787 5.62508 8.33317C5.62508 8.90847 6.09145 9.37484 6.66675 9.37484C7.24204 9.37484 7.70841 8.90847 7.70841 8.33317Z" fill="white" fill-opacity="0.4"/>
<path fill-rule="evenodd" clip-rule="evenodd" d="M10.0001 18.3332C6.07171 18.3332 4.10752 18.3332 2.88714 17.1128C1.66675 15.8924 1.66675 13.9282 1.66675 9.99984C1.66675 6.07147 1.66675 4.10728 2.88714 2.88689C4.10752 1.6665 6.07171 1.6665 10.0001 1.6665C13.9285 1.6665 15.8926 1.6665 17.113 2.88689C18.3334 4.10728 18.3334 6.07147 18.3334 9.99984C18.3334 13.9282 18.3334 15.8924 17.113 17.1128C15.8926 18.3332 13.9285 18.3332 10.0001 18.3332ZM15.6251 11.6665C15.6251 12.9322 14.5991 13.9582 13.3334 13.9582C12.0678 13.9582 11.0417 12.9322 11.0417 11.6665C11.0417 10.4009 12.0678 9.37484 13.3334 9.37484C14.5991 9.37484 15.6251 10.4009 15.6251 11.6665ZM6.66675 6.0415C7.9324 6.0415 8.95841 7.06752 8.95841 8.33317C8.95841 9.59882 7.9324 10.6248 6.66675 10.6248C5.4011 10.6248 4.37508 9.59882 4.37508 8.33317C4.37508 7.06752 5.4011 6.0415 6.66675 6.0415ZM13.3334 8.95817C12.9882 8.95817 12.7084 8.67835 12.7084 8.33317V4.1665C12.7084 3.82133 12.9882 3.5415 13.3334 3.5415C13.6786 3.5415 13.9584 3.82133 13.9584 4.1665V8.33317C13.9584 8.67835 13.6786 8.95817 13.3334 8.95817ZM6.04175 11.6665C6.04175 11.3213 6.32157 11.0415 6.66675 11.0415C7.01193 11.0415 7.29175 11.3213 7.29175 11.6665L7.29175 15.8332C7.29175 16.1783 7.01193 16.4582 6.66675 16.4582C6.32157 16.4582 6.04175 16.1783 6.04175 15.8332L6.04175 11.6665ZM13.3334 16.4582C12.9882 16.4582 12.7084 16.1783 12.7084 15.8332V14.9998C12.7084 14.6547 12.9882 14.3748 13.3334 14.3748C13.6786 14.3748 13.9584 14.6547 13.9584 14.9998V15.8332C13.9584 16.1783 13.6786 16.4582 13.3334 16.4582ZM6.04175 4.1665C6.04175 3.82133 6.32157 3.5415 6.66675 3.5415C7.01193 3.5415 7.29175 3.82133 7.29175 4.1665V4.99984C7.29175 5.34502 7.01193 5.62484 6.66675 5.62484C6.32157 5.62484 6.04175 5.34502 6.04175 4.99984V4.1665Z" fill="white" fill-opacity="0.4"/>
</svg>
