<svg width="16" height="16" viewBox="0 0 16 16" fill="none" xmlns="http://www.w3.org/2000/svg">
<path fill-rule="evenodd" clip-rule="evenodd" d="M14.5625 15.1597C14.0278 14.7061 13.2222 14.7061 12.6875 15.1597C12.1528 15.6134 11.3472 15.6134 10.8125 15.1597C10.2778 14.7061 9.47215 14.7061 8.9375 15.1597C8.40284 15.6134 7.59716 15.6134 7.0625 15.1597C6.52784 14.7061 5.72216 14.7061 5.1875 15.1597C4.65284 15.6134 3.84716 15.6134 3.3125 15.1597C2.77784 14.7061 1.97216 14.7061 1.4375 15.1597C1.07424 15.468 0.5 15.2218 0.5 14.7578V1.24216C0.5 0.778189 1.07424 0.532018 1.4375 0.840263C1.97216 1.29395 2.77784 1.29395 3.3125 0.840263C3.84716 0.386579 4.65284 0.386579 5.1875 0.840263C5.72216 1.29395 6.52784 1.29395 7.0625 0.840263C7.59716 0.386579 8.40284 0.386579 8.9375 0.840263C9.47215 1.29395 10.2778 1.29395 10.8125 0.840263C11.3472 0.386579 12.1528 0.386579 12.6875 0.840263C13.2222 1.29395 14.0278 1.29395 14.5625 0.840263C14.9258 0.532018 15.5 0.778189 15.5 1.24216V14.7578C15.5 15.2218 14.9258 15.468 14.5625 15.1597ZM3.625 8C3.625 7.65482 3.90482 7.375 4.25 7.375H11.75C12.0952 7.375 12.375 7.65482 12.375 8C12.375 8.34518 12.0952 8.625 11.75 8.625H4.25C3.90482 8.625 3.625 8.34518 3.625 8ZM4.25 4.45833C3.90482 4.45833 3.625 4.73816 3.625 5.08333C3.625 5.42851 3.90482 5.70833 4.25 5.70833H11.75C12.0952 5.70833 12.375 5.42851 12.375 5.08333C12.375 4.73816 12.0952 4.45833 11.75 4.45833H4.25ZM3.625 10.9167C3.625 10.5715 3.90482 10.2917 4.25 10.2917H11.75C12.0952 10.2917 12.375 10.5715 12.375 10.9167C12.375 11.2618 12.0952 11.5417 11.75 11.5417H4.25C3.90482 11.5417 3.625 11.2618 3.625 10.9167Z" fill="white" fill-opacity="0.4"/>
</svg>
