<svg width="18" height="15" viewBox="0 0 18 15" fill="none" xmlns="http://www.w3.org/2000/svg">
<path fill-rule="evenodd" clip-rule="evenodd" d="M14.3915 8.22489C14.6355 7.98081 15.0313 7.98081 15.2754 8.22489L16.942 9.89155C17.1861 10.1356 17.1861 10.5314 16.942 10.7754C16.6979 11.0195 16.3022 11.0195 16.0581 10.7754L15.4584 10.1757V13.6668C15.4584 14.012 15.1786 14.2918 14.8334 14.2918C14.4882 14.2918 14.2084 14.012 14.2084 13.6668V10.1757L13.6087 10.7754C13.3646 11.0195 12.9689 11.0195 12.7248 10.7754C12.4807 10.5314 12.4807 10.1356 12.7248 9.89155L14.3915 8.22489Z" fill="white" fill-opacity="0.4"/>
<path d="M7.33341 0.333496H10.6667C13.8094 0.333496 15.3808 0.333496 16.3571 1.30981C17.0601 2.01276 17.2569 3.02418 17.312 4.7085H0.688178C0.743287 3.02418 0.940108 2.01276 1.64306 1.30981C2.61937 0.333496 4.19072 0.333496 7.33341 0.333496Z" fill="white" fill-opacity="0.4"/>
<path fill-rule="evenodd" clip-rule="evenodd" d="M7.33341 13.6668H10.6667C11.5467 13.6668 12.3034 13.6668 12.9584 13.6454V12.197C12.5502 12.1516 12.154 11.9724 11.8409 11.6593C11.1087 10.9271 11.1087 9.7399 11.8409 9.00767L13.5076 7.341C14.2398 6.60877 15.427 6.60877 16.1592 7.341L17.3282 8.50996C17.3334 8.05127 17.3334 7.54974 17.3334 7.00016C17.3334 6.63189 17.3334 6.28519 17.3318 5.9585H0.668319C0.666748 6.28519 0.666748 6.63189 0.666748 7.00016C0.666748 10.1429 0.666748 11.7142 1.64306 12.6905C2.61937 13.6668 4.19072 13.6668 7.33341 13.6668ZM3.37508 10.3335C3.37508 9.98832 3.6549 9.7085 4.00008 9.7085H7.33341C7.67859 9.7085 7.95841 9.98832 7.95841 10.3335C7.95841 10.6787 7.67859 10.9585 7.33341 10.9585H4.00008C3.6549 10.9585 3.37508 10.6787 3.37508 10.3335ZM9.41675 9.7085C9.07157 9.7085 8.79175 9.98832 8.79175 10.3335C8.79175 10.6787 9.07157 10.9585 9.41675 10.9585H10.6667C11.0119 10.9585 11.2917 10.6787 11.2917 10.3335C11.2917 9.98832 11.0119 9.7085 10.6667 9.7085H9.41675Z" fill="white" fill-opacity="0.4"/>
</svg>
