<svg width="24" height="24" viewBox="0 0 24 24" fill="none" xmlns="http://www.w3.org/2000/svg">
<g clip-path="url(#clip0_632_1909)">
<path d="M23.6437 14.9035C22.0399 21.3333 15.527 25.2439 9.0956 23.6405C2.66745 22.0372 -1.24421 15.526 0.359571 9.09626C1.96009 2.6698 8.473 -1.24408 14.9012 0.359274C21.3326 1.96263 25.2442 8.47382 23.6404 14.9035H23.6437Z" fill="#F7B91A"/>
<path d="M17.3141 9.23705C17.1529 7.63066 15.7639 7.09804 14.0114 6.94983L14.0018 4.72016L12.6443 4.72413L12.6522 6.89373C12.2965 6.89636 11.932 6.90453 11.5676 6.91271L11.5596 4.72967L10.2022 4.73364L10.2079 6.96095C9.91382 6.96813 9.62606 6.97372 9.34382 6.97454L9.34222 6.96822L7.47089 6.97449L7.47829 8.42483C7.47829 8.42483 8.4815 8.40293 8.46258 8.42116C9.01362 8.41955 9.19165 8.73756 9.24463 9.01325L9.25446 11.5622L9.26724 15.119C9.24403 15.2929 9.14205 15.5675 8.75941 15.5702C8.77685 15.5859 7.77196 15.5747 7.77196 15.5747L7.50712 17.1981L9.27409 17.1914C9.60377 17.192 9.92713 17.1942 10.2434 17.1948L10.2523 19.4482L11.6098 19.4443L11.6033 17.2138C11.9749 17.2206 12.3354 17.2235 12.688 17.2217L12.6953 19.4419L14.0527 19.4379L14.0446 17.1877C16.3258 17.0474 17.9211 16.4689 18.1117 14.3264C18.2664 12.5998 17.4506 11.8347 16.1555 11.527C16.941 11.1232 17.4306 10.4144 17.3118 9.24101L17.3141 9.23705ZM15.4324 14.0632C15.4389 15.749 12.5519 15.5686 11.6309 15.5697L11.6213 12.5836C12.5416 12.5793 15.4249 12.3069 15.4324 14.0632ZM14.786 9.84989C14.7905 11.3817 12.3834 11.2109 11.6181 11.2162L11.6078 8.50603C12.3739 8.50379 14.7813 8.25094 14.786 9.84989Z" fill="white"/>
</g>
<defs>
<clipPath id="clip0_632_1909">
<rect width="24" height="24" fill="white"/>
</clipPath>
</defs>
</svg>
