<svg width="24" height="24" viewBox="0 0 24 24" fill="none" xmlns="http://www.w3.org/2000/svg">
<path d="M12 0C18.629 0 24 5.37426 24 12C24 18.6257 18.6257 24 12 24C5.37425 24 0 18.629 0 12.0033C0 5.37751 5.37425 0.00325979 12 0.00325979" fill="#F0B90B"/>
<path d="M8.89399 10.7124L10.7093 8.90038L11.0939 8.51906L12.0032 7.60978L15.0928 10.7124L16.8951 8.90038L12.0032 4.00195L7.09497 8.90038L8.89399 10.7124Z" fill="white"/>
<path d="M12.0052 10.1942L10.1985 12.001L12.0052 13.8077L13.812 12.001L12.0052 10.1942Z" fill="white"/>
<path d="M15.0928 13.2939L11.9999 16.3868L10.9146 15.3015L10.7158 15.1027L8.89399 13.2939L7.09497 15.0962L12.0032 19.9947L16.8951 15.0962L15.0928 13.2939Z" fill="white"/>
<path d="M5.80578 10.1962L3.99902 12.0029L5.80577 13.8097L7.61253 12.0029L5.80578 10.1962Z" fill="white"/>
<path d="M18.1927 10.1972L16.386 12.0039L18.1927 13.8107L19.9995 12.0039L18.1927 10.1972Z" fill="white"/>
</svg>
