<svg width="24" height="24" viewBox="0 0 24 24" fill="none" xmlns="http://www.w3.org/2000/svg">
<g clip-path="url(#clip0_632_1865)">
<path d="M12 24C18.6274 24 24 18.6274 24 12C24 5.37258 18.6274 0 12 0C5.37258 0 0 5.37258 0 12C0 18.6274 5.37258 24 12 24Z" fill="#637DEA"/>
<path d="M12.0219 2.81152V9.46334L17.6439 11.9761L12.0219 2.81152Z" fill="#BECCF7"/>
<path d="M12.0219 2.81152L6.39673 11.9761L12.0219 9.46334V2.81152Z" fill="white"/>
<path d="M12.022 16.2881V20.8084L17.6472 13.0225L12.022 16.2881Z" fill="#C0CCF8"/>
<path d="M12.0219 20.8081V16.2877L6.39673 13.0254L12.0219 20.8114V20.8081Z" fill="white"/>
<path d="M12.022 15.2419L17.6439 11.9763L12.022 9.4668V15.2419Z" fill="#8098EE"/>
<path d="M6.39673 11.9763L12.0219 15.2419V9.4668L6.39673 11.9763Z" fill="#C0CCF5"/>
</g>
<defs>
<clipPath id="clip0_632_1865">
<rect width="24" height="24" fill="white"/>
</clipPath>
</defs>
</svg>
