<svg width="24" height="24" viewBox="0 0 24 24" fill="none" xmlns="http://www.w3.org/2000/svg">
<path fill-rule="evenodd" clip-rule="evenodd" d="M11.9985 0C18.6252 0 23.9972 5.3718 23.9972 11.9985C23.9972 18.6252 18.6252 23.997 11.9985 23.997C5.372 23.997 0 18.6252 0 11.9985C0 5.3718 5.372 0 11.9985 0Z" fill="#F01010"/>
<path fill-rule="evenodd" clip-rule="evenodd" d="M11.4876 8.10825H10.4711C10.3047 8.08932 10.1014 8.08932 9.89837 8.07118C9.84316 8.08932 9.82405 8.1455 9.80551 8.21924C9.78718 8.29337 9.80551 8.34877 9.84316 8.40397L10.0648 8.4227C10.3414 8.47751 10.5446 8.53311 10.6747 8.58909C10.8037 8.66263 10.8958 8.79216 10.9332 8.95855C10.9701 9.12494 10.9884 9.34635 10.9701 9.62393C10.9512 10.0119 10.9332 10.4736 10.9147 11.0097C10.8958 11.5463 10.8591 12.1005 10.8218 12.6738C10.7853 13.56 10.7058 15.7192 10.4648 16.3585C10.4091 16.5063 10.317 16.599 10.206 16.6552C10.0763 16.7098 9.92782 16.7654 9.74309 16.7845L9.44659 16.8214C9.39138 16.8579 9.37266 16.914 9.39138 17.0065C9.39138 17.0621 9.40972 17.1171 9.46531 17.1729C9.70564 17.1546 9.92782 17.1358 10.1685 17.1171H11.6312C11.9084 17.1358 12.1493 17.1546 12.3713 17.1729C12.427 17.1358 12.4639 17.0804 12.4639 17.0065C12.4639 16.932 12.4456 16.8768 12.3896 16.8214L11.8717 16.7845C11.7047 16.7654 11.5752 16.7287 11.4829 16.6552C11.4365 16.6175 11.3992 16.566 11.3715 16.5032C11.2623 16.2405 11.2599 15.7959 11.2656 15.5199C11.2775 14.947 11.2845 14.3742 11.3027 13.8011C11.3212 13.2282 11.3397 12.7286 11.3579 12.3038C11.3758 11.9158 11.4139 11.5087 11.4318 11.1022C11.4503 10.696 11.4685 10.2889 11.4876 9.8824H11.5243C11.6723 10.1965 11.8204 10.5107 11.9497 10.8618C12.0978 11.1948 12.2454 11.5276 12.3929 11.8421L13.6314 14.4843C13.743 14.7068 13.8719 14.984 14.0194 15.3166C14.1862 15.6677 14.352 16.0001 14.5002 16.3327C14.5785 16.5089 14.6461 16.6739 14.7035 16.8292C14.7183 16.8292 14.8219 17.1698 14.8334 17.2094C14.9046 17.2815 15.0213 17.2798 15.0927 17.2094C15.2076 16.9339 15.3275 16.6552 15.4611 16.3887C15.8113 15.603 16.1765 14.8526 16.5888 14.0969L17.7903 11.7125C17.8829 11.5087 17.975 11.2869 18.1043 11.047C18.2338 10.7883 18.363 10.548 18.4742 10.3447C18.5664 10.1227 18.6402 9.97505 18.6768 9.91946H18.6956L18.733 15.6313C18.751 15.9266 18.733 16.1474 18.7145 16.314C18.6997 16.4463 18.6624 16.5719 18.5354 16.6365C18.4609 16.7287 18.313 16.7654 18.0725 16.7845L17.6652 16.8214C17.6282 16.8579 17.6098 16.914 17.6282 17.0065C17.6282 17.0621 17.6469 17.1171 17.7027 17.1729C17.9799 17.1546 18.2756 17.1358 18.5534 17.1171H20.1457C20.4229 17.1358 20.7005 17.1546 20.9789 17.1729C21.0344 17.1358 21.0526 17.0804 21.0526 17.0065C21.0709 16.932 21.0526 16.8768 21.0157 16.8214L20.5714 16.7845C20.3677 16.7654 20.2196 16.7098 20.1266 16.6173C20.0351 16.5251 19.9608 16.4139 19.9423 16.2658C19.9233 16.0996 19.9048 15.8954 19.9048 15.6736C19.867 14.986 19.8412 14.2872 19.8233 13.5981C19.8045 12.8578 19.7675 12.1561 19.7493 11.4913V9.73473C19.7493 9.42047 19.7675 9.18034 19.8045 8.99522C19.8422 8.82922 19.9345 8.68155 20.0634 8.58909C20.1931 8.51516 20.4145 8.45917 20.7102 8.4227L20.9878 8.40397C21.0251 8.36691 21.0432 8.31151 21.0251 8.21924C21.0251 8.16345 21.0064 8.10825 20.9695 8.07118C20.7475 8.08932 20.5255 8.08932 20.3224 8.10825H19.3245C19.1577 8.08932 18.9726 8.08932 18.733 8.07118C18.7145 8.38485 18.6035 8.73676 18.4371 9.14348C18.2338 9.56775 17.9939 10.0862 17.6982 10.696L16.4039 13.3018C16.0684 14.0112 15.7627 14.6864 15.3515 15.3589H15.3146C14.9875 14.7418 14.6859 14.1013 14.3892 13.4685L12.8185 10.326C12.6155 9.8824 12.4304 9.45773 12.2825 9.06954C12.153 8.68155 12.0978 8.34877 12.1161 8.07118C11.8945 8.08932 11.6909 8.08932 11.4876 8.10825ZM3.90352 15.1342C3.90352 15.6049 3.88498 15.9633 3.84734 16.2087C3.81008 16.6839 3.49641 16.8395 3.05419 16.87L2.77095 16.9076C2.67985 16.9991 2.68687 17.1973 2.79065 17.2657C3.37468 17.2295 3.90274 17.209 4.48872 17.209C5.11353 17.209 5.696 17.2365 6.31886 17.2657C6.3565 17.2281 6.37601 17.1715 6.39474 17.0962C6.39474 17.002 6.37601 16.9449 6.33797 16.9076L5.96051 16.87C5.65855 16.8504 5.45119 16.7939 5.33805 16.6995C5.33122 16.6946 5.3244 16.6895 5.31776 16.6842C5.20365 16.5894 5.12191 16.4447 5.08758 16.2204C5.05013 15.9754 5.03121 15.6176 5.05013 15.1475V13.8275C4.63541 13.8466 4.25874 13.8275 3.91932 13.7711L3.90352 15.1342ZM2.69428 8.25065C2.67575 8.32575 2.7136 8.38212 2.77017 8.43908L3.26018 8.49487C3.46715 8.51438 3.61813 8.57056 3.71215 8.66497C3.80618 8.74007 3.86314 8.87233 3.88167 9.0793C3.90078 9.28646 3.91932 9.58862 3.91932 9.98364V12.7723C4.29619 12.7913 4.67287 12.7913 5.05013 12.7723V8.92851C5.03121 8.77792 5.05013 8.66497 5.08758 8.57056C5.10631 8.51438 5.1818 8.45703 5.27582 8.43908C5.38896 8.42016 5.57779 8.42016 5.8226 8.42016C6.53831 8.43908 7.08489 8.62713 7.48049 9.02292C7.85736 9.41813 8.0456 9.96491 8.0456 10.6437C8.06511 11.2463 7.91413 11.7551 7.59382 12.1692C7.31117 12.5279 6.89665 12.7913 6.33115 12.9231C5.78495 13.0552 5.01248 13.1118 3.97589 13.0924C3.07135 13.0747 2.09172 13.0177 1.01767 12.9048C2.20505 13.1496 3.09027 13.3189 3.65597 13.3753C4.57865 13.489 5.48318 13.4695 6.33115 13.3382C6.76439 13.2811 7.16019 13.1685 7.51833 13.0367C7.85736 12.8861 8.19678 12.6787 8.55473 12.4333C8.7619 12.2829 8.95033 12.0371 9.12024 11.7174C9.2523 11.4158 9.3274 11.0579 9.34593 10.6242C9.3274 10.153 9.21426 9.73941 9.00729 9.38087C8.79974 9.02292 8.55473 8.74007 8.23424 8.5335C7.91413 8.34467 7.51833 8.19349 7.06616 8.09927C6.63272 8.02417 6.12379 7.98633 5.53995 7.98633C4.97444 7.98633 4.4657 7.98633 4.01373 8.00505C3.56137 8.02417 3.14684 8.0429 2.7885 8.08055C2.73232 8.11858 2.69428 8.17496 2.69428 8.25065Z" fill="white"/>
</svg>
