<svg width="24" height="24" viewBox="0 0 24 24" fill="none" xmlns="http://www.w3.org/2000/svg">
<g clip-path="url(#clip0_632_2138)">
<path d="M11.9994 7.35588C13.6939 7.35588 15.0676 6.60464 15.0676 5.67794C15.0676 4.75124 13.6939 4 11.9994 4C10.3049 4 8.93115 4.75124 8.93115 5.67794C8.93115 6.60464 10.3049 7.35588 11.9994 7.35588Z" fill="#E6007A"/>
<path d="M11.9994 19.9985C13.6939 19.9985 15.0676 19.2472 15.0676 18.3205C15.0676 17.3938 13.6939 16.6426 11.9994 16.6426C10.3049 16.6426 8.93115 17.3938 8.93115 18.3205C8.93115 19.2472 10.3049 19.9985 11.9994 19.9985Z" fill="#E6007A"/>
<path d="M7.72358 9.67866C8.57085 8.2988 8.56536 6.80432 7.7113 6.34066C6.85724 5.877 5.47804 6.61972 4.63077 7.99958C3.7835 9.37945 3.789 10.8739 4.64305 11.3376C5.49711 11.8012 6.87631 11.0585 7.72358 9.67866Z" fill="#E6007A"/>
<path d="M19.3667 15.9988C20.214 14.619 20.2089 13.1247 19.3555 12.6614C18.502 12.198 17.1232 12.941 16.276 14.3209C15.4287 15.7007 15.4337 17.195 16.2872 17.6583C17.1407 18.1217 18.5194 17.3787 19.3667 15.9988Z" fill="#E6007A"/>
<path d="M7.71173 17.6584C8.56578 17.1947 8.57128 15.7002 7.72401 14.3204C6.87674 12.9405 5.49754 12.1978 4.64348 12.6614C3.78943 13.1251 3.78393 14.6196 4.6312 15.9994C5.47847 17.3793 6.85767 18.122 7.71173 17.6584Z" fill="#E6007A"/>
<path d="M19.3562 11.3376C20.2096 10.8743 20.2147 9.38007 19.3674 8.00021C18.5201 6.62035 17.1414 5.87737 16.2879 6.34072C15.4344 6.80407 15.4294 8.29829 16.2767 9.67815C17.1239 11.058 18.5027 11.801 19.3562 11.3376Z" fill="#E6007A"/>
</g>
<circle cx="12" cy="12" r="12" fill="#E6007A" fill-opacity="0.2"/>
<defs>
<clipPath id="clip0_632_2138">
<rect width="16" height="16" fill="white" transform="translate(4 4)"/>
</clipPath>
</defs>
</svg>
