<svg width="24" height="24" viewBox="0 0 24 24" fill="none" xmlns="http://www.w3.org/2000/svg">
<path d="M12 24C18.6274 24 24 18.6274 24 12C24 5.37258 18.6274 0 12 0C5.37258 0 0 5.37258 0 12C0 18.6274 5.37258 24 12 24Z" fill="url(#paint0_linear_632_1948)"/>
<path d="M6.31347 15.4751C6.4145 15.3741 6.55464 15.3154 6.70456 15.3154H20.1418C20.3863 15.3154 20.5101 15.612 20.3374 15.7847L17.6845 18.4376C17.5834 18.5387 17.4433 18.5973 17.2934 18.5973H3.85611C3.61167 18.5973 3.48783 18.3008 3.66056 18.128L6.31347 15.4751Z" fill="white"/>
<path d="M6.31347 5.56399C6.41776 5.46296 6.5579 5.4043 6.70456 5.4043H20.1418C20.3863 5.4043 20.5101 5.70087 20.3374 5.87361L17.6845 8.52651C17.5834 8.62755 17.4433 8.68621 17.2934 8.68621H3.85611C3.61167 8.68621 3.48783 8.38963 3.66056 8.2169L6.31347 5.56399Z" fill="white"/>
<path d="M17.6845 10.4849C17.5834 10.3839 17.4433 10.3252 17.2934 10.3252H3.85611C3.61168 10.3252 3.48783 10.6218 3.66056 10.7945L6.31347 13.4474C6.4145 13.5484 6.55464 13.6071 6.70456 13.6071H20.1418C20.3863 13.6071 20.5101 13.3105 20.3374 13.1378L17.6845 10.4849Z" fill="white"/>
<defs>
<linearGradient id="paint0_linear_632_1948" x1="22.5204" y1="1.27431" x2="3.01141" y2="21.1678" gradientUnits="userSpaceOnUse">
<stop stop-color="#00FFA3"/>
<stop offset="1" stop-color="#DC1FFF"/>
</linearGradient>
</defs>
</svg>
