<svg width="24" height="24" viewBox="0 0 24 24" fill="none" xmlns="http://www.w3.org/2000/svg">
<path d="M12 0C18.6257 0 24 5.37425 24 12C24 18.6257 18.6257 24 12 24C5.37425 24 0 18.629 0 12C0 5.37099 5.37425 0 12 0Z" fill="#53AE94"/>
<path d="M13.4827 10.3999V8.61393H17.5664V5.89258H6.44958V8.61393H10.5332V10.3967C7.21546 10.5498 4.71899 11.2049 4.71899 11.9936C4.71899 12.7823 7.21546 13.4374 10.5332 13.5906V19.3103H13.486V13.5906C16.7972 13.4374 19.2872 12.7823 19.2872 11.9936C19.2872 11.2049 16.7972 10.5498 13.486 10.3967M13.486 13.105C13.4012 13.1082 12.9743 13.1343 12.0226 13.1343C11.26 13.1343 10.7255 13.1115 10.5365 13.1017C7.60655 12.9746 5.41644 12.4629 5.41644 11.8535C5.41644 11.244 7.6033 10.7323 10.5365 10.602V12.5965C10.7288 12.6096 11.2763 12.6422 12.0357 12.6422C12.945 12.6422 13.4045 12.6031 13.4892 12.5965V10.602C16.4159 10.7323 18.5995 11.244 18.5995 11.8535C18.5995 12.4629 16.4159 12.9746 13.4892 13.105" fill="white"/>
</svg>
