<svg width="32" height="32" viewBox="0 0 32 32" fill="none" xmlns="http://www.w3.org/2000/svg">
<path fill-rule="evenodd" clip-rule="evenodd" d="M16.0001 21.3334C21.1547 21.3334 25.3334 17.1547 25.3334 12C25.3334 6.84536 21.1547 2.66669 16.0001 2.66669C10.8454 2.66669 6.66675 6.84536 6.66675 12C6.66675 17.1547 10.8454 21.3334 16.0001 21.3334ZM16.0001 8.00002C15.6213 8.00002 15.368 8.45447 14.8613 9.36337L14.7303 9.59851C14.5863 9.85679 14.5143 9.98593 14.4021 10.0711C14.2898 10.1564 14.15 10.188 13.8704 10.2512L13.6159 10.3088C12.632 10.5314 12.1401 10.6427 12.023 11.0191C11.906 11.3955 12.2414 11.7876 12.9121 12.572L13.0856 12.7749C13.2763 12.9978 13.3716 13.1092 13.4144 13.2471C13.4573 13.385 13.4429 13.5337 13.4141 13.831L13.3878 14.1018C13.2864 15.1483 13.2357 15.6715 13.5421 15.9041C13.8486 16.1367 14.3092 15.9246 15.2303 15.5005L15.4687 15.3908C15.7305 15.2702 15.8613 15.21 16.0001 15.21C16.1388 15.21 16.2697 15.2702 16.5315 15.3908L16.7698 15.5005C17.691 15.9246 18.1516 16.1367 18.458 15.9041C18.7644 15.6715 18.7137 15.1483 18.6123 14.1018L18.5861 13.831C18.5573 13.5337 18.5429 13.385 18.5857 13.2471C18.6286 13.1092 18.7239 12.9978 18.9145 12.7749L19.088 12.572C19.7588 11.7877 20.0942 11.3955 19.9771 11.0191C19.8601 10.6427 19.3681 10.5314 18.3843 10.3088L18.1297 10.2512C17.8501 10.188 17.7103 10.1564 17.5981 10.0711C17.4859 9.98593 17.4139 9.85679 17.2699 9.59851L17.1388 9.36337C16.6322 8.45447 16.3788 8.00002 16.0001 8.00002Z" fill="#7957FF"/>
<path d="M9.45735 21.2552L8.95232 23.0973C8.11453 26.1531 7.69564 27.681 8.25463 28.5174C8.45053 28.8105 8.71334 29.0458 9.01829 29.2011C9.88846 29.6442 11.232 28.9441 13.9191 27.5439C14.8132 27.0781 15.2602 26.8451 15.7352 26.7945C15.9113 26.7757 16.0887 26.7757 16.2648 26.7945C16.7398 26.8451 17.1868 27.078 18.0809 27.5439C20.768 28.9441 22.1115 29.6442 22.9817 29.2011C23.2867 29.0458 23.5495 28.8105 23.7454 28.5174C24.3044 27.681 23.8855 26.1531 23.0477 23.0973L22.5427 21.2552C20.6945 22.5641 18.4371 23.3333 16 23.3333C13.5629 23.3333 11.3055 22.5641 9.45735 21.2552Z" fill="#7957FF"/>
</svg>
