<svg width="69" height="69" viewBox="0 0 69 69" fill="none" xmlns="http://www.w3.org/2000/svg">
<path fill-rule="evenodd" clip-rule="evenodd" d="M34.0001 40.3334C39.1547 40.3334 43.3334 36.1547 43.3334 31C43.3334 25.8454 39.1547 21.6667 34.0001 21.6667C28.8454 21.6667 24.6667 25.8454 24.6667 31C24.6667 36.1547 28.8454 40.3334 34.0001 40.3334ZM34.0001 27C33.6213 27 33.368 27.4545 32.8613 28.3634L32.7303 28.5985C32.5863 28.8568 32.5143 28.9859 32.4021 29.0711C32.2898 29.1564 32.15 29.188 31.8704 29.2512L31.6159 29.3088C30.632 29.5314 30.1401 29.6427 30.023 30.0191C29.906 30.3955 30.2414 30.7876 30.9121 31.572L31.0856 31.7749C31.2763 31.9978 31.3716 32.1092 31.4144 32.2471C31.4573 32.385 31.4429 32.5337 31.4141 32.831L31.3878 33.1018C31.2864 34.1483 31.2357 34.6715 31.5421 34.9041C31.8486 35.1367 32.3092 34.9246 33.2303 34.5005L33.4687 34.3908C33.7305 34.2702 33.8613 34.21 34.0001 34.21C34.1388 34.21 34.2697 34.2702 34.5315 34.3908L34.7698 34.5005C35.691 34.9246 36.1516 35.1367 36.458 34.9041C36.7644 34.6715 36.7137 34.1483 36.6123 33.1018L36.5861 32.831C36.5573 32.5337 36.5429 32.385 36.5857 32.2471C36.6286 32.1092 36.7239 31.9978 36.9145 31.7749L37.088 31.572C37.7588 30.7877 38.0942 30.3955 37.9771 30.0191C37.8601 29.6427 37.3681 29.5314 36.3843 29.3088L36.1297 29.2512C35.8501 29.188 35.7103 29.1564 35.5981 29.0711C35.4859 28.9859 35.4139 28.8568 35.2699 28.5985L35.1388 28.3634C34.6322 27.4545 34.3788 27 34.0001 27Z" fill="#7957FF"/>
<path d="M27.4573 40.2552L26.9523 42.0973C26.1145 45.1531 25.6956 46.681 26.2546 47.5174C26.4505 47.8105 26.7133 48.0458 27.0183 48.2011C27.8885 48.6442 29.232 47.9441 31.9191 46.5439C32.8132 46.0781 33.2602 45.8451 33.7352 45.7945C33.9113 45.7757 34.0887 45.7757 34.2648 45.7945C34.7398 45.8451 35.1868 46.078 36.0809 46.5439C38.768 47.9441 40.1115 48.6442 40.9817 48.2011C41.2867 48.0458 41.5495 47.8105 41.7454 47.5174C42.3044 46.681 41.8855 45.1531 41.0477 42.0973L40.5427 40.2552C38.6945 41.5641 36.4371 42.3333 34 42.3333C31.5629 42.3333 29.3055 41.5641 27.4573 40.2552Z" fill="#7957FF"/>
<rect x="5.5" y="5.5" width="58" height="58" rx="15.5" stroke="url(#paint0_linear_24_1191)" stroke-opacity="0.3" stroke-width="11"/>
<defs>
<linearGradient id="paint0_linear_24_1191" x1="34.5" y1="0" x2="34.5" y2="69" gradientUnits="userSpaceOnUse">
<stop stop-color="white"/>
<stop offset="1" stop-color="white" stop-opacity="0"/>
</linearGradient>
</defs>
</svg>
