<svg width="30" height="24" viewBox="0 0 30 24" fill="none" xmlns="http://www.w3.org/2000/svg">
<path fill-rule="evenodd" clip-rule="evenodd" d="M0.333374 22.9867C0.333374 22.427 0.791501 21.9733 1.35663 21.9733H28.6435C29.2086 21.9733 29.6667 22.427 29.6667 22.9867C29.6667 23.5463 29.2086 24 28.6435 24H1.35663C0.791501 24 0.333374 23.5463 0.333374 22.9867Z" fill="#7957FF"/>
<path fill-rule="evenodd" clip-rule="evenodd" d="M3.91979 1.18719C2.72097 2.37439 2.72097 4.28515 2.72097 8.10667V14.8622C2.72097 17.4099 2.72097 18.6837 3.52018 19.4752C4.3194 20.2667 5.60571 20.2667 8.17834 20.2667H21.8217C24.3944 20.2667 25.6807 20.2667 26.4799 19.4752C27.2791 18.6837 27.2791 17.4099 27.2791 14.8622V8.10667C27.2791 4.28515 27.2791 2.37439 26.0803 1.18719C24.8815 0 22.952 0 19.0931 0H10.907C7.04808 0 5.11861 0 3.91979 1.18719ZM9.88376 16.2133C9.88376 15.6537 10.3419 15.2 10.907 15.2H19.0931C19.6582 15.2 20.1163 15.6537 20.1163 16.2133C20.1163 16.773 19.6582 17.2267 19.0931 17.2267H10.907C10.3419 17.2267 9.88376 16.773 9.88376 16.2133Z" fill="#7957FF"/>
</svg>
