<svg width="69" height="69" viewBox="0 0 69 69" fill="none" xmlns="http://www.w3.org/2000/svg">
<path d="M20.6666 35C20.6666 28.7146 20.6666 25.5719 22.6192 23.6193C24.5719 21.6667 27.7146 21.6667 34 21.6667C40.2854 21.6667 43.4281 21.6667 45.3807 23.6193C47.3333 25.5719 47.3333 28.7146 47.3333 35C47.3333 41.2854 47.3333 44.4281 45.3807 46.3807C43.4281 48.3334 40.2854 48.3334 34 48.3334C27.7146 48.3334 24.5719 48.3334 22.6192 46.3807C20.6666 44.4281 20.6666 41.2854 20.6666 35Z" fill="#7957FF"/>
<path fill-rule="evenodd" clip-rule="evenodd" d="M34 28.6667C34.5522 28.6667 35 29.1144 35 29.6667V34.5858L38.0404 37.6262C38.4309 38.0168 38.4309 38.6499 38.0404 39.0405C37.6499 39.431 37.0167 39.431 36.6262 39.0405L33.2929 35.7071C33.1053 35.5196 33 35.2652 33 35V29.6667C33 29.1144 33.4477 28.6667 34 28.6667Z" fill="#05071B"/>
<rect x="5.5" y="5.5" width="58" height="58" rx="15.5" stroke="url(#paint0_linear_27_1850)" stroke-opacity="0.3" stroke-width="11"/>
<defs>
<linearGradient id="paint0_linear_27_1850" x1="34.5" y1="0" x2="34.5" y2="69" gradientUnits="userSpaceOnUse">
<stop stop-color="white"/>
<stop offset="1" stop-color="white" stop-opacity="0"/>
</linearGradient>
</defs>
</svg>
