<svg width="28" height="28" viewBox="0 0 28 28" fill="none" xmlns="http://www.w3.org/2000/svg">
<path d="M0.666626 14C0.666626 7.71463 0.666626 4.57193 2.61925 2.61931C4.57187 0.666687 7.71457 0.666687 14 0.666687C20.2854 0.666687 23.4281 0.666687 25.3807 2.61931C27.3333 4.57193 27.3333 7.71463 27.3333 14C27.3333 20.2854 27.3333 23.4281 25.3807 25.3807C23.4281 27.3334 20.2854 27.3334 14 27.3334C7.71457 27.3334 4.57187 27.3334 2.61925 25.3807C0.666626 23.4281 0.666626 20.2854 0.666626 14Z" fill="#7957FF"/>
<path fill-rule="evenodd" clip-rule="evenodd" d="M14 7.66669C14.5522 7.66669 15 8.1144 15 8.66669V13.5858L18.0404 16.6262C18.4309 17.0168 18.4309 17.6499 18.0404 18.0405C17.6499 18.431 17.0167 18.431 16.6262 18.0405L13.2929 14.7071C13.1053 14.5196 13 14.2652 13 14V8.66669C13 8.1144 13.4477 7.66669 14 7.66669Z" fill="#05071B"/>
</svg>
