<svg width="69" height="69" viewBox="0 0 69 69" fill="none" xmlns="http://www.w3.org/2000/svg">
<path fill-rule="evenodd" clip-rule="evenodd" d="M22.6194 23.6193C20.6667 25.5719 20.6667 28.7146 20.6667 35C20.6667 41.2854 20.6667 44.4281 22.6194 46.3807C24.572 48.3334 27.7147 48.3334 34.0001 48.3334C40.2855 48.3334 43.4282 48.3334 45.3808 46.3807C47.3334 44.4281 47.3334 41.2854 47.3334 35C47.3334 28.7146 47.3334 25.5719 45.3808 23.6193C43.4282 21.6667 40.2855 21.6667 34.0001 21.6667C27.7147 21.6667 24.572 21.6667 22.6194 23.6193ZM40.6667 30C41.219 30 41.6667 30.4477 41.6667 31V43C41.6667 43.5523 41.219 44 40.6667 44C40.1145 44 39.6667 43.5523 39.6667 43V31C39.6667 30.4477 40.1145 30 40.6667 30ZM35.0001 35C35.0001 34.4477 34.5524 34 34.0001 34C33.4478 34 33.0001 34.4477 33.0001 35V43C33.0001 43.5523 33.4478 44 34.0001 44C34.5524 44 35.0001 43.5523 35.0001 43V35ZM27.3334 38C27.8857 38 28.3334 38.4477 28.3334 39V43C28.3334 43.5523 27.8857 44 27.3334 44C26.7811 44 26.3334 43.5523 26.3334 43V39C26.3334 38.4477 26.7811 38 27.3334 38Z" fill="#7957FF"/>
<rect x="5.5" y="5.5" width="58" height="58" rx="15.5" stroke="url(#paint0_linear_27_1854)" stroke-opacity="0.3" stroke-width="11"/>
<defs>
<linearGradient id="paint0_linear_27_1854" x1="34.5" y1="0" x2="34.5" y2="69" gradientUnits="userSpaceOnUse">
<stop stop-color="white"/>
<stop offset="1" stop-color="white" stop-opacity="0"/>
</linearGradient>
</defs>
</svg>
