<svg width="32" height="32" viewBox="0 0 32 32" fill="none" xmlns="http://www.w3.org/2000/svg">
<path fill-rule="evenodd" clip-rule="evenodd" d="M4.61937 4.61931C2.66675 6.57193 2.66675 9.71463 2.66675 16C2.66675 22.2854 2.66675 25.4281 4.61937 27.3807C6.57199 29.3334 9.71469 29.3334 16.0001 29.3334C22.2855 29.3334 25.4282 29.3334 27.3808 27.3807C29.3334 25.4281 29.3334 22.2854 29.3334 16C29.3334 9.71463 29.3334 6.57193 27.3808 4.61931C25.4282 2.66669 22.2855 2.66669 16.0001 2.66669C9.71469 2.66669 6.57199 2.66669 4.61937 4.61931ZM22.6667 11C23.219 11 23.6667 11.4477 23.6667 12V24C23.6667 24.5523 23.219 25 22.6667 25C22.1145 25 21.6667 24.5523 21.6667 24V12C21.6667 11.4477 22.1145 11 22.6667 11ZM17.0001 16C17.0001 15.4477 16.5524 15 16.0001 15C15.4478 15 15.0001 15.4477 15.0001 16V24C15.0001 24.5523 15.4478 25 16.0001 25C16.5524 25 17.0001 24.5523 17.0001 24V16ZM9.33341 19C9.8857 19 10.3334 19.4477 10.3334 20V24C10.3334 24.5523 9.8857 25 9.33341 25C8.78113 25 8.33341 24.5523 8.33341 24V20C8.33341 19.4477 8.78113 19 9.33341 19Z" fill="#7957FF"/>
</svg>
