<svg width="32" height="32" viewBox="0 0 32 32" fill="none" xmlns="http://www.w3.org/2000/svg">
<path d="M20.6667 9.99998C20.6667 12.5773 18.5774 14.6666 16 14.6666C13.4227 14.6666 11.3334 12.5773 11.3334 9.99998C11.3334 7.42265 13.4227 5.33331 16 5.33331C18.5774 5.33331 20.6667 7.42265 20.6667 9.99998Z" fill="#7957FF"/>
<path d="M24 22C24 24.5773 20.4183 26.6666 16 26.6666C11.5817 26.6666 8 24.5773 8 22C8 19.4227 11.5817 17.3333 16 17.3333C20.4183 17.3333 24 19.4227 24 22Z" fill="#7957FF"/>
<path d="M9.49602 6.66669C9.73264 6.66669 9.96364 6.6899 10.1867 6.7341C9.64328 7.6993 9.33329 8.81346 9.33329 10C9.33329 11.1577 9.62837 12.2464 10.1474 13.1952C9.93656 13.2345 9.71878 13.255 9.49602 13.255C7.61014 13.255 6.08132 11.7802 6.08132 9.96086C6.08132 8.14154 7.61014 6.66669 9.49602 6.66669Z" fill="#7957FF"/>
<path d="M7.26307 25.3146C6.50585 24.4095 5.99996 23.2987 5.99996 22C5.99996 20.741 6.47539 19.6587 7.19433 18.769C4.65476 18.966 2.66663 20.355 2.66663 22.0392C2.66663 23.7392 4.6897 25.1385 7.26307 25.3146Z" fill="#7957FF"/>
<path d="M22.6665 10C22.6665 11.1577 22.3714 12.2464 21.8524 13.1952C22.0632 13.2345 22.281 13.255 22.5038 13.255C24.3897 13.255 25.9185 11.7802 25.9185 9.96086C25.9185 8.14154 24.3897 6.66669 22.5038 6.66669C22.2672 6.66669 22.0362 6.6899 21.8131 6.7341C22.3565 7.6993 22.6665 8.81346 22.6665 10Z" fill="#7957FF"/>
<path d="M24.7367 25.3146C27.3101 25.1385 29.3332 23.7392 29.3332 22.0392C29.3332 20.355 27.3451 18.966 24.8055 18.769C25.5244 19.6587 25.9998 20.741 25.9998 22C25.9998 23.2987 25.494 24.4095 24.7367 25.3146Z" fill="#7957FF"/>
</svg>
