<svg width="32" height="32" viewBox="0 0 32 32" fill="none" xmlns="http://www.w3.org/2000/svg">
<path fill-rule="evenodd" clip-rule="evenodd" d="M4.50335 6.77657C4 7.49372 4 9.62545 4 13.8889V15.9885C4 23.5059 9.65195 27.154 13.1981 28.7031C14.16 29.1233 14.641 29.3334 16 29.3334C17.359 29.3334 17.84 29.1233 18.8019 28.7031C22.348 27.154 28 23.5059 28 15.9885V13.8889C28 9.62545 28 7.49372 27.4966 6.77657C26.9933 6.05941 24.9889 5.3733 20.9801 4.00108L20.2164 3.73964C18.1267 3.02434 17.0819 2.66669 16 2.66669C14.9181 2.66669 13.8733 3.02434 11.7836 3.73964L11.0199 4.00108C7.0111 5.3733 5.00671 6.05941 4.50335 6.77657ZM20.0793 13.9994C20.4471 13.5874 20.4113 12.9552 19.9993 12.5874C19.5874 12.2196 18.9552 12.2554 18.5874 12.6673L14.5714 17.1652L13.4126 15.8673C13.0448 15.4554 12.4126 15.4196 12.0007 15.7874C11.5887 16.1552 11.5529 16.7874 11.9207 17.1994L13.8255 19.3327C14.0152 19.5452 14.2866 19.6667 14.5714 19.6667C14.8563 19.6667 15.1276 19.5452 15.3174 19.3327L20.0793 13.9994Z" fill="#7957FF"/>
</svg>
