<svg width="24" height="24" viewBox="0 0 24 24" fill="none" xmlns="http://www.w3.org/2000/svg">
<path d="M22.5 5.99957C22.5 5.20392 22.1839 4.44085 21.6213 3.87824C21.0587 3.31564 20.2956 2.99957 19.5 2.99957H18.75V2.27066C18.75 1.86707 18.4397 1.52066 18.0361 1.5005C17.9347 1.49562 17.8333 1.51137 17.7382 1.54681C17.6431 1.58225 17.5561 1.63663 17.4826 1.70667C17.4091 1.77671 17.3506 1.86094 17.3106 1.95426C17.2706 2.04757 17.25 2.14804 17.25 2.24957V2.99957H6.75V2.27066C6.75 1.86707 6.43969 1.52066 6.03609 1.5005C5.93469 1.49562 5.83334 1.51137 5.7382 1.54681C5.64307 1.58225 5.55611 1.63663 5.48261 1.70667C5.40911 1.77671 5.3506 1.86094 5.31062 1.95426C5.27063 2.04757 5.25001 2.14804 5.25 2.24957V2.99957H4.5C3.70435 2.99957 2.94129 3.31564 2.37868 3.87824C1.81607 4.44085 1.5 5.20392 1.5 5.99957V6.56207C1.5 6.61179 1.51975 6.65948 1.55492 6.69465C1.59008 6.72981 1.63777 6.74957 1.6875 6.74957H22.3125C22.3622 6.74957 22.4099 6.72981 22.4451 6.69465C22.4802 6.65948 22.5 6.61179 22.5 6.56207V5.99957Z" fill="url(#paint0_linear_226_85)"/>
<path d="M1.5 19.4996C1.5 20.2952 1.81607 21.0583 2.37868 21.6209C2.94129 22.1835 3.70435 22.4996 4.5 22.4996H19.5C20.2956 22.4996 21.0587 22.1835 21.6213 21.6209C22.1839 21.0583 22.5 20.2952 22.5 19.4996V8.39019C22.5 8.35289 22.4852 8.31713 22.4588 8.29075C22.4324 8.26438 22.3967 8.24957 22.3594 8.24957H1.64062C1.60333 8.24957 1.56756 8.26438 1.54119 8.29075C1.51482 8.31713 1.5 8.35289 1.5 8.39019V19.4996ZM17.625 9.74957C17.8475 9.74957 18.065 9.81555 18.25 9.93916C18.435 10.0628 18.5792 10.2385 18.6644 10.444C18.7495 10.6496 18.7718 10.8758 18.7284 11.094C18.685 11.3123 18.5778 11.5127 18.4205 11.6701C18.2632 11.8274 18.0627 11.9345 17.8445 11.9779C17.6262 12.0214 17.4 11.9991 17.1945 11.9139C16.9889 11.8288 16.8132 11.6846 16.6896 11.4996C16.566 11.3146 16.5 11.0971 16.5 10.8746C16.5 10.5762 16.6185 10.29 16.8295 10.0791C17.0405 9.86809 17.3266 9.74957 17.625 9.74957ZM17.625 13.4996C17.8475 13.4996 18.065 13.5655 18.25 13.6892C18.435 13.8128 18.5792 13.9885 18.6644 14.194C18.7495 14.3996 18.7718 14.6258 18.7284 14.844C18.685 15.0623 18.5778 15.2627 18.4205 15.4201C18.2632 15.5774 18.0627 15.6845 17.8445 15.7279C17.6262 15.7714 17.4 15.7491 17.1945 15.6639C16.9889 15.5788 16.8132 15.4346 16.6896 15.2496C16.566 15.0646 16.5 14.8471 16.5 14.6246C16.5 14.3262 16.6185 14.04 16.8295 13.8291C17.0405 13.6181 17.3266 13.4996 17.625 13.4996ZM13.875 9.74957C14.0975 9.74957 14.315 9.81555 14.5 9.93916C14.685 10.0628 14.8292 10.2385 14.9144 10.444C14.9995 10.6496 15.0218 10.8758 14.9784 11.094C14.935 11.3123 14.8278 11.5127 14.6705 11.6701C14.5132 11.8274 14.3127 11.9345 14.0945 11.9779C13.8762 12.0214 13.65 11.9991 13.4445 11.9139C13.2389 11.8288 13.0632 11.6846 12.9396 11.4996C12.816 11.3146 12.75 11.0971 12.75 10.8746C12.75 10.5762 12.8685 10.29 13.0795 10.0791C13.2905 9.86809 13.5766 9.74957 13.875 9.74957ZM13.875 13.4996C14.0975 13.4996 14.315 13.5655 14.5 13.6892C14.685 13.8128 14.8292 13.9885 14.9144 14.194C14.9995 14.3996 15.0218 14.6258 14.9784 14.844C14.935 15.0623 14.8278 15.2627 14.6705 15.4201C14.5132 15.5774 14.3127 15.6845 14.0945 15.7279C13.8762 15.7714 13.65 15.7491 13.4445 15.6639C13.2389 15.5788 13.0632 15.4346 12.9396 15.2496C12.816 15.0646 12.75 14.8471 12.75 14.6246C12.75 14.3262 12.8685 14.04 13.0795 13.8291C13.2905 13.6181 13.5766 13.4996 13.875 13.4996ZM13.875 17.2496C14.0975 17.2496 14.315 17.3155 14.5 17.4392C14.685 17.5628 14.8292 17.7385 14.9144 17.944C14.9995 18.1496 15.0218 18.3758 14.9784 18.594C14.935 18.8123 14.8278 19.0127 14.6705 19.1701C14.5132 19.3274 14.3127 19.4345 14.0945 19.4779C13.8762 19.5214 13.65 19.4991 13.4445 19.4139C13.2389 19.3288 13.0632 19.1846 12.9396 18.9996C12.816 18.8146 12.75 18.5971 12.75 18.3746C12.75 18.0762 12.8685 17.79 13.0795 17.5791C13.2905 17.3681 13.5766 17.2496 13.875 17.2496ZM10.125 13.4996C10.3475 13.4996 10.565 13.5655 10.75 13.6892C10.935 13.8128 11.0792 13.9885 11.1644 14.194C11.2495 14.3996 11.2718 14.6258 11.2284 14.844C11.185 15.0623 11.0778 15.2627 10.9205 15.4201C10.7632 15.5774 10.5627 15.6845 10.3445 15.7279C10.1262 15.7714 9.90005 15.7491 9.69448 15.6639C9.48891 15.5788 9.31321 15.4346 9.1896 15.2496C9.06598 15.0646 9 14.8471 9 14.6246C9 14.3262 9.11853 14.04 9.3295 13.8291C9.54048 13.6181 9.82663 13.4996 10.125 13.4996ZM10.125 17.2496C10.3475 17.2496 10.565 17.3155 10.75 17.4392C10.935 17.5628 11.0792 17.7385 11.1644 17.944C11.2495 18.1496 11.2718 18.3758 11.2284 18.594C11.185 18.8123 11.0778 19.0127 10.9205 19.1701C10.7632 19.3274 10.5627 19.4345 10.3445 19.4779C10.1262 19.5214 9.90005 19.4991 9.69448 19.4139C9.48891 19.3288 9.31321 19.1846 9.1896 18.9996C9.06598 18.8146 9 18.5971 9 18.3746C9 18.0762 9.11853 17.79 9.3295 17.5791C9.54048 17.3681 9.82663 17.2496 10.125 17.2496ZM6.375 13.4996C6.5975 13.4996 6.81501 13.5655 7.00002 13.6892C7.18502 13.8128 7.32922 13.9885 7.41436 14.194C7.49951 14.3996 7.52179 14.6258 7.47838 14.844C7.43498 15.0623 7.32783 15.2627 7.1705 15.4201C7.01316 15.5774 6.81271 15.6845 6.59448 15.7279C6.37625 15.7714 6.15005 15.7491 5.94448 15.6639C5.73891 15.5788 5.56321 15.4346 5.4396 15.2496C5.31598 15.0646 5.25 14.8471 5.25 14.6246C5.25 14.3262 5.36853 14.04 5.5795 13.8291C5.79048 13.6181 6.07663 13.4996 6.375 13.4996ZM6.375 17.2496C6.5975 17.2496 6.81501 17.3155 7.00002 17.4392C7.18502 17.5628 7.32922 17.7385 7.41436 17.944C7.49951 18.1496 7.52179 18.3758 7.47838 18.594C7.43498 18.8123 7.32783 19.0127 7.1705 19.1701C7.01316 19.3274 6.81271 19.4345 6.59448 19.4779C6.37625 19.5214 6.15005 19.4991 5.94448 19.4139C5.73891 19.3288 5.56321 19.1846 5.4396 18.9996C5.31598 18.8146 5.25 18.5971 5.25 18.3746C5.25 18.0762 5.36853 17.79 5.5795 17.5791C5.79048 17.3681 6.07663 17.2496 6.375 17.2496Z" fill="url(#paint0_linear_226_85)"/>
<defs>
<linearGradient id="paint0_linear_226_85" x1="0.333252" y1="7.21727" x2="9.66658" y2="7.21727" gradientUnits="userSpaceOnUse">
<stop stop-color="#7957FF"/>
<stop offset="1" stop-color="#A824E6"/>
</linearGradient>
</defs>
</svg>
