<svg id="Layer_1" data-name="Layer 1" xmlns="http://www.w3.org/2000/svg" viewBox="0 0 576 473.17">
  <defs>
    <style>
      .cls-1, .cls-2 {
        fill: #fff;
        stroke-miterlimit: 10;
      }

      .cls-1 {
        stroke: #fff;
        stroke-width: 40px;
      }

      .cls-2 {
        stroke: #000;
        stroke-width: 25px;
      }
    </style>
  </defs>
  <path d="M572.52,241.4C518.29,135.59,410.93,64,288,64S57.68,135.64,3.48,241.41a32.35,32.35,0,0,0,0,29.19C57.71,376.41,165.07,448,288,448s230.32-71.64,284.52-177.41A32.35,32.35,0,0,0,572.52,241.4ZM288,400a143.93,143.93,0,1,1,.14,0Zm0-240a95.14,95.14,0,0,0-25.31,3.79,47.85,47.85,0,0,1-66.9,66.9A95.8,95.8,0,1,0,288,160Z" transform="translate(0 -35.28)"/>
  <line class="cls-1" x1="60.96" y1="14.14" x2="505.84" y2="459.03"/>
  <line class="cls-2" x1="60.96" y1="14.14" x2="505.84" y2="459.03"/>
</svg>
