<svg width="69" height="69" viewBox="0 0 69 69" fill="none" xmlns="http://www.w3.org/2000/svg">
<g clip-path="url(#clip0_405_9566)">
<path d="M40.0186 30.0122C34.5011 30.0122 30.0122 34.5011 30.0122 40.0186C30.0122 45.5361 34.5011 50.0249 40.0186 50.0249C45.5361 50.0249 50.0249 45.5361 50.0249 40.0186C50.0249 34.5011 45.5361 30.0122 40.0186 30.0122ZM40.0186 39.1089C41.5234 39.1089 42.7476 40.3331 42.7476 41.8379C42.7476 43.0223 41.9848 44.0225 40.9282 44.3993V46.3862H39.1089V44.3993C38.0523 44.0225 37.2896 43.0223 37.2896 41.8379H39.1089C39.1089 42.3398 39.5167 42.7476 40.0186 42.7476C40.5204 42.7476 40.9282 42.3398 40.9282 41.8379C40.9282 41.336 40.5204 40.9282 40.0186 40.9282C38.5137 40.9282 37.2896 39.7041 37.2896 38.1992C37.2896 37.0148 38.0523 36.0146 39.1089 35.6378V33.6509H40.9282V35.6378C41.9848 36.0146 42.7476 37.0148 42.7476 38.1992H40.9282C40.9282 37.6973 40.5204 37.2896 40.0186 37.2896C39.5167 37.2896 39.1089 37.6973 39.1089 38.1992C39.1089 38.7011 39.5167 39.1089 40.0186 39.1089Z" fill="#7957FF"/>
<path d="M29.1027 30.0124C34.7136 30.0124 39.1091 27.6148 39.1091 24.5544C39.1091 21.494 34.7136 18.9751 29.1027 18.9751C23.4919 18.9751 18.9751 21.494 18.9751 24.5544C18.9751 27.6148 23.4919 30.0124 29.1027 30.0124Z" fill="#7957FF"/>
<path d="M18.9751 39.4458V40.928C18.9751 43.9884 23.4919 46.386 29.1027 46.386C29.421 46.386 29.7294 46.3567 30.0427 46.3414C29.3449 45.2443 28.8246 44.0269 28.5181 42.7255C24.4607 42.6134 20.9377 41.3667 18.9751 39.4458Z" fill="#7957FF"/>
<path d="M28.2368 40.8817C28.2159 40.5956 28.1931 40.3097 28.1931 40.0183C28.1931 39.07 28.3173 38.1523 28.5292 37.2679C24.4668 37.1579 20.9394 35.9104 18.9751 33.9878V35.47C18.9751 38.368 23.0542 40.6455 28.2368 40.8817Z" fill="#7957FF"/>
<path d="M29.1027 35.47C29.1037 35.47 29.1045 35.4699 29.1055 35.4699C29.7055 34.036 30.5776 32.7434 31.6607 31.6604C30.8391 31.7643 29.9901 31.8313 29.1027 31.8313C24.7838 31.8313 21.0325 30.5434 18.9751 28.5298V30.012C18.9751 33.0724 23.4919 35.47 29.1027 35.47Z" fill="#7957FF"/>
</g>
<rect x="5.5" y="5.5" width="58" height="58" rx="15.5" stroke="url(#paint0_linear_405_9566)" stroke-opacity="0.15" stroke-width="11"/>
<defs>
<linearGradient id="paint0_linear_405_9566" x1="34.5" y1="0" x2="34.5" y2="69" gradientUnits="userSpaceOnUse">
<stop stop-color="white"/>
<stop offset="1" stop-color="white" stop-opacity="0"/>
</linearGradient>
<clipPath id="clip0_405_9566">
<rect width="31.05" height="31.05" fill="white" transform="translate(18.9751 18.9751)"/>
</clipPath>
</defs>
</svg>
