<svg width="58" height="58" viewBox="0 0 58 58" fill="none" xmlns="http://www.w3.org/2000/svg">
<path d="M39 25.5C39 21.9101 36.0899 19 32.5 19C30.4171 19 28.5631 19.9823 27.3735 21.5072C32.4471 21.7034 36.5 25.8784 36.5 31C36.5 31.1103 36.4981 31.2202 36.4944 31.3296L36.8267 31.4185C37.793 31.677 38.677 30.793 38.4185 29.8267L38.2911 29.3506C38.1882 28.9661 38.2501 28.5598 38.4155 28.1977C38.7908 27.376 39 26.4624 39 25.5Z" fill="white" fill-opacity="0.5"/>
<path fill-rule="evenodd" clip-rule="evenodd" d="M35 31C35 35.4183 31.4183 39 27 39C25.7645 39 24.5944 38.7199 23.5498 38.2198C23.1907 38.0479 22.7839 37.9876 22.3994 38.0904L21.1733 38.4185C20.207 38.677 19.323 37.793 19.5815 36.8267L19.9096 35.6006C20.0124 35.2161 19.9521 34.8093 19.7802 34.4502C19.2801 33.4056 19 32.2355 19 31C19 26.5817 22.5817 23 27 23C31.4183 23 35 26.5817 35 31ZM23.5 32C24.0523 32 24.5 31.5523 24.5 31C24.5 30.4477 24.0523 30 23.5 30C22.9477 30 22.5 30.4477 22.5 31C22.5 31.5523 22.9477 32 23.5 32ZM27 32C27.5523 32 28 31.5523 28 31C28 30.4477 27.5523 30 27 30C26.4477 30 26 30.4477 26 31C26 31.5523 26.4477 32 27 32ZM30.5 32C31.0523 32 31.5 31.5523 31.5 31C31.5 30.4477 31.0523 30 30.5 30C29.9477 30 29.5 30.4477 29.5 31C29.5 31.5523 29.9477 32 30.5 32Z" fill="white" fill-opacity="0.5"/>
<rect x="4.5" y="4.5" width="49" height="49" rx="13.5" stroke="url(#paint0_linear_518_5529)" stroke-width="9"/>
<defs>
<linearGradient id="paint0_linear_518_5529" x1="3.49999" y1="64.5" x2="4.49994" y2="-29" gradientUnits="userSpaceOnUse">
<stop stop-color="#8C43F6" stop-opacity="0"/>
<stop offset="0.0852393" stop-color="#7D53FE" stop-opacity="0"/>
<stop offset="0.364583" stop-color="#8C43F6"/>
</linearGradient>
</defs>
</svg>
