<svg width="18" height="19" viewBox="0 0 18 19" fill="none" xmlns="http://www.w3.org/2000/svg">
<path d="M15.0462 9.98545L15.4344 8.53657C15.8876 6.84526 16.1142 5.9996 15.9436 5.26777C15.8088 4.68993 15.5058 4.16501 15.0727 3.75941C14.5243 3.24571 13.6786 3.01912 11.9873 2.56594C10.296 2.11275 9.45033 1.88616 8.7185 2.0568C8.14065 2.19153 7.61574 2.49459 7.21013 2.92765C6.77032 3.39724 6.54096 4.08468 6.19966 5.33421C6.14233 5.54408 6.08185 5.7698 6.01668 6.013L6.01666 6.01308L5.62844 7.46197C5.17525 9.15328 4.94866 9.99894 5.1193 10.7308C5.25403 11.3086 5.55709 11.8335 5.99015 12.2391C6.53861 12.7528 7.38427 12.9794 9.07557 13.4326L9.07558 13.4326C10.6 13.8411 11.4375 14.0655 12.1237 13.9808C12.1989 13.9715 12.2722 13.9586 12.3444 13.9417C12.9222 13.807 13.4471 13.5039 13.8527 13.0709C14.3664 12.5224 14.593 11.6768 15.0462 9.98545Z" fill="url(#paint0_linear_405_9639)"/>
<path d="M1.87844 11.5363L2.26666 12.9852C2.71985 14.6765 2.94644 15.5221 3.46013 16.0706C3.86574 16.5036 4.39065 16.8067 4.9685 16.9414C5.70033 17.1121 6.54598 16.8855 8.23729 16.4323L8.2373 16.4323C9.92861 15.9791 10.7743 15.7525 11.3227 15.2388C11.3682 15.1962 11.4123 15.1522 11.4549 15.107C11.2043 15.086 10.9515 15.0457 10.6946 14.9946C10.1725 14.8908 9.55214 14.7246 8.8185 14.528L8.73839 14.5065L8.71984 14.5015C7.92155 14.2876 7.25461 14.1086 6.72208 13.9162C6.16205 13.7139 5.6532 13.4645 5.22111 13.0598C4.62565 12.5021 4.20894 11.7803 4.02368 10.9858C3.88925 10.4092 3.92769 9.84385 4.0325 9.25771C4.13294 8.69602 4.31332 8.02288 4.52944 7.21638L4.52944 7.21635L4.93024 5.72057L4.94433 5.66797C3.50393 6.05599 2.74576 6.28556 2.24015 6.75911C1.80709 7.16472 1.50403 7.68963 1.3693 8.26747C1.19866 8.9993 1.42525 9.84496 1.87844 11.5363Z" fill="url(#paint1_linear_405_9639)"/>
<defs>
<linearGradient id="paint0_linear_405_9639" x1="5.0625" y1="9.71334" x2="16.0004" y2="9.71334" gradientUnits="userSpaceOnUse">
<stop stop-color="#7957FF"/>
<stop offset="1" stop-color="#A824E6"/>
</linearGradient>
<linearGradient id="paint1_linear_405_9639" x1="1.3125" y1="12.9517" x2="11.4549" y2="12.9517" gradientUnits="userSpaceOnUse">
<stop stop-color="#7957FF"/>
<stop offset="1" stop-color="#A824E6"/>
</linearGradient>
</defs>
</svg>
