<?xml version="1.0" encoding="utf-8"?>
<!-- Svg Vector Icons : http://www.onlinewebfonts.com/icon -->
<!DOCTYPE svg PUBLIC "-//W3C//DTD SVG 1.1//EN" "http://www.w3.org/Graphics/SVG/1.1/DTD/svg11.dtd">
<svg version="1.1" xmlns="http://www.w3.org/2000/svg" xmlns:xlink="http://www.w3.org/1999/xlink" x="0px" y="0px" viewBox="0 0 256 256" enable-background="new 0 0 256 256" xml:space="preserve">
<metadata> Svg Vector Icons : http://www.onlinewebfonts.com/icon </metadata>
<g><g><path fill="#000000" d="M128,191.2c-7.3,0-13.3-5.9-13.3-13.3c0-7.3,5.9-13.3,13.3-13.3c7.3,0,13.3,5.9,13.3,13.3S135.3,191.2,128,191.2L128,191.2L128,191.2z M128,151.3c-3.7,0-6.6-5.9-6.6-13.3l-6.6-59.9c0-7.3,5.9-13.3,13.3-13.3c7.3,0,13.3,5.9,13.3,13.3l-6.6,59.9C134.6,145.3,131.7,151.3,128,151.3L128,151.3L128,151.3z"/><path fill="#000000" d="M246,128c0-15.9-3.1-31.4-9.3-45.9c-5.9-14.1-14.4-26.7-25.3-37.5c-10.8-10.8-23.5-19.3-37.5-25.3c-14.6-6.2-30-9.3-45.9-9.3s-31.4,3.1-45.9,9.3C68,25.2,55.4,33.7,44.6,44.6C33.7,55.4,25.2,68,19.3,82.1c-6.2,14.6-9.3,30-9.3,45.9s3.1,31.4,9.3,45.9c5.9,14.1,14.4,26.7,25.3,37.5c10.8,10.8,23.5,19.3,37.5,25.3c14.6,6.2,30,9.3,45.9,9.3s31.4-3.1,45.9-9.3c0.5-0.2,0.9-0.4,1.4-0.6c5.9-2.5,11.6-5.4,16.9-9c1.9-1.3,3.8-2.6,5.6-4.1c2.8-2.3,3.3-6.5,0.9-9.4c-2.3-2.9-6.6-3.3-9.4-1c-1.3,1-2.6,2-3.9,2.9c-12.9,8.8-28.6,14-44,16.1c-4.4,0.6-8.9,0.9-13.4,0.9c-27.9,0-54.2-10.9-74-30.6c-19.7-19.8-30.6-46.1-30.6-74c0-27.9,10.9-54.2,30.6-74c19.7-19.7,46-30.6,74-30.6c27.9,0,54.2,10.9,74,30.6c19.7,19.7,30.6,46,30.6,74c0,7.5-0.8,15-2.4,22.2c-0.1,0.2-0.1,0.5-0.2,0.7c0,0,0,0.1,0,0.3c-1.4,6.1-3.3,12.1-5.8,17.8c-0.1,0.4-0.3,0.7-0.4,1c-0.7,1.4-1.3,2.9-2.1,4.5c-1.7,3.3-0.4,7.3,2.9,9c1,0.5,2,0.7,3.1,0.7c2.4,0,4.8-1.3,6-3.6c6.4-12.4,8.9-23.6,9.5-26.6C245,145.5,246,136.8,246,128z"/></g></g>
</svg>