<svg width="10" height="12" viewBox="0 0 10 12" fill="none" xmlns="http://www.w3.org/2000/svg">
<path d="M9.66658 7.25021C9.66658 9.73198 8.13936 10.821 6.95921 11.1883C6.70755 11.2666 6.54216 10.9732 6.6927 10.7569C7.20626 10.0188 7.79992 8.89279 7.79992 7.83354C7.79992 6.69569 6.84088 5.35233 6.09199 4.52376C5.92078 4.33434 5.62214 4.45968 5.6128 4.71484C5.58187 5.56021 5.44847 6.69124 4.87323 7.57766C4.78064 7.72034 4.58409 7.73217 4.4786 7.59875C4.29886 7.37144 4.11913 7.09064 3.9394 6.86882C3.84259 6.74933 3.66761 6.74769 3.55594 6.85342C3.12057 7.26567 2.51103 7.90853 2.51103 8.70854C2.51103 9.25096 2.72118 9.81964 2.95829 10.2772C3.08873 10.5289 2.85679 10.8319 2.60576 10.7001C1.56587 10.1544 0.333252 9.04899 0.333252 7.25021C0.333252 5.41477 2.84759 2.87218 3.80762 0.470067C3.9591 0.0910224 4.42597 -0.0870898 4.75068 0.160266C6.71721 1.6583 9.66658 4.5541 9.66658 7.25021Z" fill="url(#paint0_linear_226_85)"/>
<defs>
<linearGradient id="paint0_linear_226_85" x1="0.333252" y1="7.21727" x2="9.66658" y2="7.21727" gradientUnits="userSpaceOnUse">
<stop stop-color="#7957FF"/>
<stop offset="1" stop-color="#A824E6"/>
</linearGradient>
</defs>
</svg>
