<svg width="18" height="18" viewBox="0 0 18 18" fill="none" xmlns="http://www.w3.org/2000/svg">
<path d="M12.2864 9.0207C12.2864 10.8442 10.8028 12.3278 8.9793 12.3278C7.1558 12.3278 5.6722 10.8442 5.6722 9.0207C5.6722 7.1972 7.1558 5.7136 8.9793 5.7136C10.8028 5.7136 12.2864 7.1971 12.2864 9.0207ZM18 4.5V13.5C18 15.9813 15.9813 18 13.5 18H4.5C2.0187 18 0 15.9813 0 13.5V4.5C0 2.0187 2.0187 0 4.5 0H13.5C15.9813 0 18 2.0187 18 4.5ZM13.9086 9.0207C13.9086 6.3026 11.6974 4.0914 8.9793 4.0914C6.2612 4.0914 4.05 6.3026 4.05 9.0207C4.05 11.7388 6.2612 13.95 8.9793 13.95C11.6974 13.95 13.9086 11.7388 13.9086 9.0207ZM15.75 3.4218C15.75 2.7747 15.2253 2.25 14.5782 2.25C13.9311 2.25 13.4064 2.7747 13.4064 3.4218C13.4064 4.0689 13.9311 4.5936 14.5782 4.5936C15.2253 4.5935 15.75 4.0689 15.75 3.4218Z" fill="#212121"/>
</svg>
