<svg xmlns="http://www.w3.org/2000/svg" viewBox="0 0 160.07 129.15">
  <defs>
    <style>
      .cls-1 {
        fill: #fff;
      }
    </style>
  </defs>
  <g id="Layer_2" data-name="Layer 2">
    <g id="Слой_1" data-name="Слой 1">
      <path class="cls-1" d="M30.25,110.63a5.35,5.35,0,0,1-.83-.76,7.11,7.11,0,0,1-1-1.53L16,80.53H9.51l3.1,7L3.37,108.31a6,6,0,0,1-1.87,2.36,1.88,1.88,0,0,1-.53.26l-1,.4v1.59H5l.9-.13v-.9l-.16-.73L5.1,111a1.07,1.07,0,0,1-.06-.33,3.86,3.86,0,0,1,.33-1.36l1.17-2.58H21.15l1.06,2.42a3.92,3.92,0,0,1,.44,1.49c0,.23,0,.36-.17.43l-.7.3V113h9.07l.9-.13v-1.59l-1-.27a3.74,3.74,0,0,1-.5-.26ZM7.54,104.4l6.3-14.16,6.31,14.16Z"/>
      <path class="cls-1" d="M61,83.55a11,11,0,0,0-3.37-2.26,10.2,10.2,0,0,0-4-.76H38.32l-.9.13v.9l.14.73.66.2s.1,0,.3.29a2.92,2.92,0,0,1,.4,1.46v24.93a3,3,0,0,1-.4,1.53.57.57,0,0,1-.43.3l-.63.33v1.56h8.07l.9-.14v-.89l-.23-.76-.64-.2a.84.84,0,0,1-.2-.23,1.72,1.72,0,0,1-.23-.53,3.75,3.75,0,0,1-.17-1v-8h8.77a10.74,10.74,0,0,0,4-.76,10,10,0,0,0,3.37-2.26,10.26,10.26,0,0,0,2.27-3.34,10.11,10.11,0,0,0,.77-4,10.63,10.63,0,0,0-.77-3.94,9.9,9.9,0,0,0-2.27-3.35ZM44.89,99V84.28a3.68,3.68,0,0,1,.37-1.53H52.7a5.94,5.94,0,0,1,2.37,1.43,7.9,7.9,0,0,1,1.8,2.88,11.15,11.15,0,0,1,0,7.53,8.88,8.88,0,0,1-1.7,2.85A6,6,0,0,1,53,98.93H44.93Z"/>
      <path class="cls-1" d="M93.86,110.63a5.84,5.84,0,0,1-.84-.76,8,8,0,0,1-1-1.53L79.65,80.53H73.11l3.1,7L67,108.31a6.06,6.06,0,0,1-1.87,2.36,1.86,1.86,0,0,1-.54.26l-1,.4v1.59h5l.9-.13v-.9l-.17-.73-.63-.2a.94.94,0,0,1-.07-.33,4.12,4.12,0,0,1,.33-1.36l1.17-2.58H84.69l1.06,2.42a3.92,3.92,0,0,1,.44,1.49c0,.23,0,.36-.17.43l-.7.3V113h9.07l.9-.13v-1.59l-1-.27a3.74,3.74,0,0,1-.5-.26ZM71.14,104.4l6.31-14.16,6.3,14.16H71.14Z"/>
      <path class="cls-1" d="M93.06,80.53v2.82l.13.89h.9l.77-.23.2-.63a1,1,0,0,1,.27-.23,1.9,1.9,0,0,1,.6-.27A4.23,4.23,0,0,1,97,82.72h10a2.69,2.69,0,0,1,.24.59,7.47,7.47,0,0,1,.16.87v24.93a4.29,4.29,0,0,1-.16,1,2.87,2.87,0,0,1-.24.53c-.13.16-.2.19-.2.23l-.86.36v1.63H114l.9-.14v-.89l-.14-.7-.63-.2s-.1,0-.27-.26a2.68,2.68,0,0,1-.4-1.49V84.28a3.14,3.14,0,0,1,.4-1.53h10a3.49,3.49,0,0,1,1.13.17,2.26,2.26,0,0,1,.6.26,2.68,2.68,0,0,1,.24.2l.43.86h1.57V80.53H93.06Z"/>
      <path class="cls-1" d="M159.9,109.14H159l-.73.17-.2.66s0,.1-.3.3a3.32,3.32,0,0,1-1.67.4H142.92a3.08,3.08,0,0,1-.36-1.46V97.84H150a3,3,0,0,1,1.7.39,1,1,0,0,1,.37.43l.33.63h1.57V95l-.13-.89h-.9l-.71.13-.2.63s0,.1-.33.3a3,3,0,0,1-1.67.4h-7.47V84.21a3.77,3.77,0,0,1,.37-1.53H156a3.43,3.43,0,0,1,1.74.4.62.62,0,0,1,.33.43l.3.67H160V80.46H136l-.9.14v.89l.13.73.67.2s.1,0,.3.3a3,3,0,0,1,.4,1.46v24.93a3.11,3.11,0,0,1-.4,1.52.54.54,0,0,1-.43.3l-.64.33v1.56h25V110l-.14-.89Z"/>
      <path class="cls-1" d="M88.52,20.19a27,27,0,0,0-4,.8V62.16H82V21.78a24.87,24.87,0,0,0-4,1.92V62.16H75.51V25.59a11.88,11.88,0,0,0-4,9.06V62.16h-3.2v4H91.72v-4h-3.2Z"/>
      <path class="cls-1" d="M91.72,13.46H68.34v3.95H91.72Z"/>
      <path class="cls-1" d="M51.37,20.19a27,27,0,0,0-4,.8V62.16H44.86V21.78a24.87,24.87,0,0,0-4,1.92V62.16H38.36V25.59a11.88,11.88,0,0,0-4,9.06V62.16h-3.2v4H54.57v-4h-3.2Z"/>
      <path class="cls-1" d="M54.57,13.46H31.19v3.95H54.57Z"/>
      <path class="cls-1" d="M125.68,20.19a27,27,0,0,0-4,.8V62.16h-2.54V21.78a24.78,24.78,0,0,0-4,1.92V62.16h-2.54V25.59a11.88,11.88,0,0,0-4,9.06V62.16h-3.2v4h23.38v-4h-3.2Z"/>
      <path class="cls-1" d="M128.88,13.46H105.5v3.95h23.38Z"/>
      <path class="cls-1" d="M134.08,0H26V4H134.08Z"/>
      <path class="cls-1" d="M138.39,6.83H21.68a6.63,6.63,0,1,0,6.67,6.63h-4a2.7,2.7,0,1,1-2.7-2.69H138.39a2.69,2.69,0,1,1-2.71,2.69h-4a6.67,6.67,0,1,0,6.67-6.63Z"/>
      <path class="cls-1" d="M38.1,124.64H36.85a2.14,2.14,0,0,0-.35-.58,2.28,2.28,0,0,0-.5-.43,2.23,2.23,0,0,0-.61-.27,2.31,2.31,0,0,0-1.59.09A2.31,2.31,0,0,0,33,124a2.58,2.58,0,0,0-.51.77,2.62,2.62,0,0,0,0,1.91,2.72,2.72,0,0,0,.51.77,2.67,2.67,0,0,0,.76.51,2.36,2.36,0,0,0,.92.18,2.52,2.52,0,0,0,.67-.09,2,2,0,0,0,.6-.27,2.28,2.28,0,0,0,.51-.42,2.49,2.49,0,0,0,.35-.59H38.1a2.91,2.91,0,0,1-.52,1,3.47,3.47,0,0,1-1.8,1.22,3.54,3.54,0,0,1-1.06.16A3.57,3.57,0,0,1,31.41,127a3.31,3.31,0,0,1-.28-1.36,3.25,3.25,0,0,1,.28-1.36,3.58,3.58,0,0,1,.77-1.1,3.64,3.64,0,0,1,2.54-1,3.54,3.54,0,0,1,1.06.16,3.2,3.2,0,0,1,1,.46,3.07,3.07,0,0,1,.81.76A2.92,2.92,0,0,1,38.1,124.64Z"/>
      <path class="cls-1" d="M45.44,122.36h1.43l-2.62,4.11V129H43v-2.52l-2.61-4.12h1.42l1.79,3h0Z"/>
      <path class="cls-1" d="M52.14,123.41H50.61v2.37h1.54a1,1,0,0,0,.44-.09,1,1,0,0,0,.36-.25.91.91,0,0,0,.24-.37,1.18,1.18,0,0,0,.09-.46,1.19,1.19,0,0,0-.09-.47,1.07,1.07,0,0,0-.24-.38,1,1,0,0,0-.36-.25A1,1,0,0,0,52.14,123.41Zm.07,3.42h-1.6V129H49.4v-6.64h2.79a2.52,2.52,0,0,1,.93.17,2.38,2.38,0,0,1,.73.46,2.27,2.27,0,0,1,.48.72,2.44,2.44,0,0,1,0,1.79,2,2,0,0,1-.48.71,2.07,2.07,0,0,1-.72.46A2.51,2.51,0,0,1,52.21,126.83Z"/>
      <path class="cls-1" d="M60,123.41h-1.6v2.23H60a1.33,1.33,0,0,0,.45-.08,1.2,1.2,0,0,0,.36-.22,1,1,0,0,0,.23-.35,1.14,1.14,0,0,0,.09-.46,1.1,1.1,0,0,0-.09-.45.86.86,0,0,0-.23-.35,1.31,1.31,0,0,0-.37-.24A1.25,1.25,0,0,0,60,123.41Zm1,3.11L62.54,129h-1.4l-1.3-2.31H58.43V129H57.22v-6.64h2.86a2.52,2.52,0,0,1,.93.16,2.16,2.16,0,0,1,.73.44,2.2,2.2,0,0,1,.48.68,2.31,2.31,0,0,1,.17.89,2.11,2.11,0,0,1-.36,1.24A2,2,0,0,1,61.06,126.52Z"/>
      <path class="cls-1" d="M69.59,126.44v-4.08h1.22v4.07a2.94,2.94,0,0,1-.2,1.09A2.64,2.64,0,0,1,69.13,129a3.4,3.4,0,0,1-2.27,0,2.7,2.7,0,0,1-.91-.55,2.61,2.61,0,0,1-.6-.85,2.92,2.92,0,0,1-.21-1.13v-4.07h1.21v4.07a1.8,1.8,0,0,0,.11.66,1.57,1.57,0,0,0,.31.53,1.26,1.26,0,0,0,.51.35,1.9,1.9,0,0,0,1.38,0,1.29,1.29,0,0,0,.5-.35,1.46,1.46,0,0,0,.32-.52A1.8,1.8,0,0,0,69.59,126.44Z"/>
      <path class="cls-1" d="M73.51,127h1.21a.89.89,0,0,0,.11.43,1,1,0,0,0,.3.35,1.6,1.6,0,0,0,.47.24,2.25,2.25,0,0,0,.61.08,2.08,2.08,0,0,0,1.16-.25.82.82,0,0,0,.37-.72.71.71,0,0,0-.13-.45.85.85,0,0,0-.36-.31,2.35,2.35,0,0,0-.55-.2L76,126l-.46-.1c-.16,0-.33-.08-.5-.13a4.89,4.89,0,0,1-.48-.2,1.55,1.55,0,0,1-.41-.3,1.3,1.3,0,0,1-.29-.43,1.41,1.41,0,0,1-.11-.57,2.23,2.23,0,0,1,.15-.83,1.58,1.58,0,0,1,.46-.66,2.18,2.18,0,0,1,.82-.42,3.83,3.83,0,0,1,1.2-.16,3,3,0,0,1,1,.15,2.15,2.15,0,0,1,.75.4,1.69,1.69,0,0,1,.45.64,2,2,0,0,1,.17.81H77.5a.94.94,0,0,0-.07-.37.83.83,0,0,0-.24-.29.92.92,0,0,0-.38-.2,1.82,1.82,0,0,0-.55-.08,2.27,2.27,0,0,0-.64.08,1,1,0,0,0-.4.21.63.63,0,0,0-.21.28,1.26,1.26,0,0,0-.05.33.59.59,0,0,0,.12.37,1,1,0,0,0,.33.26,2.35,2.35,0,0,0,.51.17l.65.12c.32.07.62.15.91.24a2.81,2.81,0,0,1,.76.36,1.64,1.64,0,0,1,.53.58,1.75,1.75,0,0,1,.2.87,1.71,1.71,0,0,1-.21.86,1.8,1.8,0,0,1-.56.64,2.61,2.61,0,0,1-.88.38,4,4,0,0,1-1.14.14A3.36,3.36,0,0,1,75,129a2.68,2.68,0,0,1-.83-.49,2.14,2.14,0,0,1-.49-.69A2.16,2.16,0,0,1,73.51,127Z"/>
      <path class="cls-1" d="M85.77,129v-6.64h4.55v1H87v1.78h2.88v1H87V128h3.37v1Z"/>
      <path class="cls-1" d="M92.81,127H94a.88.88,0,0,0,.1.43,1.15,1.15,0,0,0,.31.35,1.48,1.48,0,0,0,.47.24,2.23,2.23,0,0,0,.6.08,2.06,2.06,0,0,0,1.16-.25.82.82,0,0,0,.37-.72.77.77,0,0,0-.12-.45,1,1,0,0,0-.36-.31,2.43,2.43,0,0,0-.56-.2l-.7-.17-.46-.1a4.6,4.6,0,0,1-.5-.13,3.45,3.45,0,0,1-.48-.2,1.6,1.6,0,0,1-.42-.3,1.48,1.48,0,0,1-.29-.43,1.42,1.42,0,0,1-.1-.57,2.23,2.23,0,0,1,.14-.83,1.61,1.61,0,0,1,.47-.66,2.21,2.21,0,0,1,.81-.42,3.83,3.83,0,0,1,1.2-.16,3,3,0,0,1,1,.15,2.1,2.1,0,0,1,.74.4,1.72,1.72,0,0,1,.46.64,2,2,0,0,1,.16.81H96.81a1,1,0,0,0-.08-.37.8.8,0,0,0-.23-.29.9.9,0,0,0-.39-.2,1.77,1.77,0,0,0-.55-.08,2.2,2.2,0,0,0-.63.08,1.13,1.13,0,0,0-.41.21.69.69,0,0,0-.2.28,1,1,0,0,0-.06.33.59.59,0,0,0,.12.37,1,1,0,0,0,.34.26,2,2,0,0,0,.51.17l.65.12c.31.07.62.15.91.24a2.81,2.81,0,0,1,.76.36,1.62,1.62,0,0,1,.52.58,1.65,1.65,0,0,1,.2.87,1.71,1.71,0,0,1-.2.86,1.74,1.74,0,0,1-.57.64,2.44,2.44,0,0,1-.88.38,4,4,0,0,1-1.13.14,3.36,3.36,0,0,1-1.2-.19,2.68,2.68,0,0,1-.83-.49,2,2,0,0,1-.65-1.47Z"/>
      <path class="cls-1" d="M102.6,129v-5.59h-2v-1h5.16v1h-2V129Z"/>
      <path class="cls-1" d="M111.18,124.13l0-.17h0l0,.17L110,126.69h2.19Zm-.62-1.78h1.16l2.76,6.65h-1.29l-.52-1.27h-3.06l-.53,1.27H107.8Z"/>
      <path class="cls-1" d="M118.48,129v-5.59h-2v-1h5.16v1h-2V129Z"/>
      <path class="cls-1" d="M124.34,129v-6.64h4.55v1h-3.33v1.78h2.88v1h-2.88V128h3.38v1Z"/>
    </g>
  </g>
</svg>
