<?xml version="1.0" encoding="utf-8"?>
<!-- Generator: Adobe Illustrator 26.0.1, SVG Export Plug-In . SVG Version: 6.00 Build 0)  -->
<svg version="1.1" id="Layer_1" xmlns="http://www.w3.org/2000/svg" xmlns:xlink="http://www.w3.org/1999/xlink" x="0px" y="0px"
	 viewBox="0 0 300 66" style="enable-background:new 0 0 304 66.2;" xml:space="preserve">
<style type="text/css">
	.st0{fill:#FFFFFF;}
</style>
<g id="Layer_2_00000032629308266860704120000008473766571671179156_">
	<g id="Layer_1">
		<path class="st0" d="M73.4,20.2c-1.4,0.2-2.7,0.4-4,0.8v41.2h-2.5V21.8c-1.4,0.5-2.7,1.2-4,1.9v38.5h-2.5V25.6
			c-2.6,2.3-4,5.6-4,9.1v27.5h-3.2v4h23.4v-4h-3.2L73.4,20.2z"/>
		<path class="st0" d="M76.6,13.5H53.2v3.9h23.4V13.5z"/>
		<path class="st0" d="M36.3,20.2c-1.4,0.2-2.7,0.4-4,0.8v41.2h-2.5V21.8c-1.4,0.5-2.7,1.2-4,1.9v38.5h-2.5V25.6
			c-2.6,2.3-4,5.6-4,9.1v27.5h-3.2v4h23.4v-4h-3.2V20.2z"/>
		<path class="st0" d="M39.5,13.5H16.1v3.9h23.4V13.5z"/>
		<path class="st0" d="M110.6,20.2c-1.4,0.2-2.7,0.4-4,0.8v41.2h-2.5V21.8c-1.4,0.5-2.7,1.2-4,1.9v38.5h-2.5V25.6
			c-2.6,2.3-4,5.6-4,9.1v27.5h-3.2v4h23.4v-4h-3.2L110.6,20.2z"/>
		<path class="st0" d="M113.8,13.5H90.4v3.9h23.4V13.5z"/>
		<path class="st0" d="M119,0H10.9v4H119V0z"/>
		<path class="st0" d="M123.3,6.8H6.6c-3.7,0-6.6,3-6.6,6.7c0,3.7,3,6.6,6.7,6.6c3.6,0,6.6-3,6.6-6.6h-4c0,1.5-1.2,2.7-2.7,2.7
			c-1.5,0-2.7-1.2-2.7-2.7s1.2-2.7,2.7-2.7c0,0,0,0,0,0h116.7c1.5,0,2.7,1.2,2.7,2.7s-1.2,2.7-2.7,2.7c-1.5,0-2.7-1.2-2.7-2.7h-4
			c0,3.7,2.9,6.7,6.6,6.7c3.7,0,6.7-2.9,6.7-6.6C130,9.9,127,6.9,123.3,6.8C123.3,6.8,123.3,6.8,123.3,6.8L123.3,6.8z"/>
		<path class="st0" d="M182,53.2h-1.2c-0.1-0.2-0.2-0.4-0.4-0.6c-0.1-0.2-0.3-0.3-0.5-0.4c-0.2-0.1-0.4-0.2-0.6-0.3
			c-0.5-0.2-1.1-0.1-1.6,0.1c-0.3,0.1-0.6,0.3-0.8,0.6c-0.2,0.2-0.4,0.5-0.5,0.8c-0.2,0.6-0.2,1.3,0,1.9c0.1,0.3,0.3,0.5,0.5,0.8
			c0.2,0.2,0.5,0.4,0.8,0.5c0.3,0.1,0.6,0.2,0.9,0.2c0.2,0,0.5,0,0.7-0.1c0.2-0.1,0.4-0.1,0.6-0.3c0.2-0.1,0.4-0.3,0.5-0.4
			c0.1-0.2,0.3-0.4,0.4-0.6h1.3c-0.1,0.4-0.3,0.7-0.5,1c-0.5,0.6-1.1,1-1.8,1.2c-0.3,0.1-0.7,0.2-1.1,0.2c-1.4,0-2.7-0.8-3.3-2.2
			c-0.2-0.4-0.3-0.9-0.3-1.4c0-0.5,0.1-0.9,0.3-1.4c0.2-0.4,0.4-0.8,0.8-1.1c0.7-0.7,1.6-1,2.5-1c0.4,0,0.7,0.1,1.1,0.2
			c0.4,0.1,0.7,0.3,1,0.5c0.3,0.2,0.6,0.5,0.8,0.8C181.7,52.5,181.9,52.8,182,53.2z"/>
		<path class="st0" d="M189.3,51h1.4l-2.6,4.1v2.5h-1.2v-2.5l-2.6-4.1h1.4l1.8,3l0,0L189.3,51z"/>
		<path class="st0" d="M196,52h-1.5v2.4h1.5c0.2,0,0.3,0,0.4-0.1c0.1-0.1,0.3-0.1,0.4-0.2c0.1-0.1,0.2-0.2,0.2-0.4
			c0.1-0.1,0.1-0.3,0.1-0.5c0-0.2,0-0.3-0.1-0.5c-0.1-0.1-0.1-0.3-0.2-0.4c-0.1-0.1-0.2-0.2-0.4-0.2C196.3,52,196.1,52,196,52z
			 M196.1,55.4h-1.6v2.2h-1.2V51h2.8c0.3,0,0.6,0.1,0.9,0.2c0.3,0.1,0.5,0.3,0.7,0.5c0.2,0.2,0.4,0.5,0.5,0.7c0.2,0.6,0.2,1.2,0,1.8
			c-0.1,0.3-0.3,0.5-0.5,0.7c-0.2,0.2-0.5,0.4-0.7,0.5C196.7,55.4,196.4,55.4,196.1,55.4z"/>
		<path class="st0" d="M174.1,39.2c-0.3-0.2-0.6-0.5-0.8-0.8c-0.4-0.5-0.7-1-1-1.5L159.9,9.1h-6.5l3.1,7l-9.2,20.8
			c-0.4,0.9-1.1,1.7-1.9,2.4c-0.2,0.1-0.3,0.2-0.5,0.3l-1,0.4v1.6h5l0.9-0.1v-0.9l-0.2-0.7l-0.6-0.2c0-0.1-0.1-0.2-0.1-0.3
			c0-0.5,0.1-0.9,0.3-1.4l1.2-2.6H165l1.1,2.4c0.2,0.5,0.4,1,0.4,1.5c0,0.2,0,0.4-0.2,0.4l-0.7,0.3v1.6h9.1l0.9-0.1v-1.6l-1-0.3
			c-0.2-0.1-0.3-0.2-0.5-0.3V39.2z M151.4,33l6.3-14.2L164,33L151.4,33z"/>
		<path class="st0" d="M204.9,12.1c-1-1-2.1-1.7-3.4-2.3c-1.3-0.5-2.6-0.8-4-0.8h-15.3l-0.9,0.1v0.9l0.1,0.7l0.7,0.2
			c0,0,0.1,0,0.3,0.3c0.3,0.4,0.4,0.9,0.4,1.5v24.9c0,0.5-0.1,1.1-0.4,1.5c-0.1,0.2-0.2,0.3-0.4,0.3l-0.6,0.3v1.6h8.1l0.9-0.1v-0.9
			l-0.2-0.8l-0.6-0.2c-0.1-0.1-0.1-0.1-0.2-0.2c-0.1-0.2-0.2-0.3-0.2-0.5c-0.1-0.3-0.2-0.7-0.2-1v-8h8.8c1.4,0,2.7-0.3,4-0.8
			c1.3-0.5,2.4-1.3,3.4-2.3c1-1,1.7-2.1,2.3-3.3c0.5-1.3,0.8-2.6,0.8-4c0-1.4-0.3-2.7-0.8-3.9c-0.5-1.3-1.3-2.4-2.3-3.3L204.9,12.1z
			 M188.7,27.6V12.9c0-0.5,0.1-1.1,0.4-1.5h7.4c0.9,0.3,1.7,0.8,2.4,1.4c0.8,0.8,1.4,1.8,1.8,2.9c0.9,2.4,0.9,5.1,0,7.5
			c-0.4,1-1,2-1.7,2.8c-0.6,0.7-1.3,1.2-2.2,1.5L188.7,27.6L188.7,27.6z"/>
		<path class="st0" d="M237.7,39.2c-0.3-0.2-0.6-0.5-0.8-0.8c-0.4-0.5-0.7-1-1-1.5L223.5,9.1H217l3.1,7l-9.2,20.8
			c-0.4,0.9-1.1,1.7-1.9,2.4c-0.2,0.1-0.3,0.2-0.5,0.3l-1,0.4v1.6h5l0.9-0.1v-0.9l-0.2-0.7l-0.6-0.2c0-0.1-0.1-0.2-0.1-0.3
			c0-0.5,0.1-0.9,0.3-1.4l1.2-2.6h14.6l1.1,2.4c0.2,0.5,0.4,1,0.4,1.5c0,0.2,0,0.4-0.2,0.4l-0.7,0.3v1.7h9.1l0.9-0.1v-1.6l-1-0.3
			c-0.2-0.1-0.3-0.2-0.5-0.3L237.7,39.2z M215,33l6.3-14.2l6.3,14.2C227.6,33,215,33,215,33z"/>
		<path class="st0" d="M236.9,9.1v2.8l0.1,0.9h0.9l0.8-0.2l0.2-0.6c0.1-0.1,0.2-0.2,0.3-0.2c0.2-0.1,0.4-0.2,0.6-0.3
			c0.3-0.1,0.7-0.2,1.1-0.2h10c0.1,0.2,0.2,0.4,0.2,0.6c0.1,0.3,0.1,0.6,0.2,0.9v24.9c0,0.3-0.1,0.7-0.2,1c-0.1,0.2-0.1,0.4-0.2,0.5
			c-0.1,0.2-0.2,0.2-0.2,0.2l-0.9,0.4v1.6h8.1l0.9-0.1v-0.9l-0.1-0.7l-0.6-0.2c0,0-0.1,0-0.3-0.3c-0.3-0.4-0.4-1-0.4-1.5V12.9
			c0-0.5,0.1-1.1,0.4-1.5h10c0.4,0,0.8,0.1,1.1,0.2c0.2,0.1,0.4,0.1,0.6,0.3c0.1,0.1,0.2,0.1,0.2,0.2l0.4,0.9h1.6V9.1H236.9z"/>
		<path class="st0" d="M303.8,37.7h-0.9l-0.7,0.2l-0.2,0.7c0,0,0,0.1-0.3,0.3c-0.5,0.3-1.1,0.4-1.7,0.4h-13.2
			c-0.2-0.4-0.4-1-0.4-1.5V26.4h7.4c0.6,0,1.2,0.1,1.7,0.4c0.2,0.1,0.3,0.3,0.4,0.4l0.3,0.6h1.6v-4.3l-0.1-0.9h-0.9l-0.7,0.1
			l-0.2,0.6c0,0,0,0.1-0.3,0.3c-0.5,0.3-1.1,0.4-1.7,0.4h-7.5V12.8c0-0.5,0.1-1.1,0.4-1.5h13.1c0.6,0,1.2,0.1,1.7,0.4
			c0.2,0.1,0.3,0.2,0.3,0.4l0.3,0.7h1.6V9.1h-24L279,9.2v0.9l0.1,0.7l0.7,0.2c0,0,0.1,0,0.3,0.3c0.3,0.4,0.4,0.9,0.4,1.5v24.9
			c0,0.5-0.1,1.1-0.4,1.5c-0.1,0.2-0.2,0.3-0.4,0.3l-0.6,0.3v1.6h25v-2.8L303.8,37.7L303.8,37.7z"/>
		<path class="st0" d="M203.9,52h-1.6v2.2h1.6c0.2,0,0.3,0,0.4-0.1c0.1-0.1,0.3-0.1,0.4-0.2c0.1-0.1,0.2-0.2,0.2-0.3
			c0.1-0.1,0.1-0.3,0.1-0.5c0-0.2,0-0.3-0.1-0.4c0-0.1-0.1-0.3-0.2-0.3c-0.1-0.1-0.2-0.2-0.4-0.2C204.1,52,204,52,203.9,52z
			 M204.9,55.1l1.5,2.5H205l-1.3-2.3h-1.4v2.3h-1.2V51h2.9c0.3,0,0.6,0,0.9,0.2c0.3,0.1,0.5,0.2,0.7,0.4c0.2,0.2,0.4,0.4,0.5,0.7
			c0.1,0.3,0.2,0.6,0.2,0.9c0,0.4-0.1,0.9-0.4,1.2C205.6,54.7,205.3,55,204.9,55.1L204.9,55.1z"/>
		<path class="st0" d="M213.4,55V51h1.2V55c0,0.4-0.1,0.7-0.2,1.1c-0.3,0.7-0.8,1.2-1.5,1.5c-0.7,0.3-1.5,0.3-2.3,0
			c-0.3-0.1-0.6-0.3-0.9-0.6c-0.3-0.2-0.5-0.5-0.6-0.8c-0.1-0.4-0.2-0.7-0.2-1.1V51h1.2v4.1c0,0.2,0,0.4,0.1,0.7
			c0.1,0.2,0.2,0.4,0.3,0.5c0.1,0.2,0.3,0.3,0.5,0.4c0.4,0.2,0.9,0.2,1.4,0c0.2-0.1,0.4-0.2,0.5-0.3c0.1-0.1,0.3-0.3,0.3-0.5
			C213.4,55.5,213.5,55.3,213.4,55z"/>
		<path class="st0" d="M217.4,55.6h1.2c0,0.2,0,0.3,0.1,0.4c0.1,0.1,0.2,0.3,0.3,0.3c0.1,0.1,0.3,0.2,0.5,0.2
			c0.2,0.1,0.4,0.1,0.6,0.1c0.4,0,0.8-0.1,1.2-0.2c0.2-0.2,0.4-0.4,0.4-0.7c0-0.2,0-0.3-0.1-0.4c-0.1-0.1-0.2-0.2-0.4-0.3
			c-0.2-0.1-0.4-0.2-0.6-0.2l-0.7-0.2l-0.5-0.1c-0.2,0-0.3-0.1-0.5-0.1c-0.2-0.1-0.3-0.1-0.5-0.2c-0.2-0.1-0.3-0.2-0.4-0.3
			c-0.1-0.1-0.2-0.3-0.3-0.4c-0.1-0.2-0.1-0.4-0.1-0.6c0-0.3,0-0.6,0.1-0.8c0.1-0.3,0.3-0.5,0.5-0.7c0.2-0.2,0.5-0.3,0.8-0.4
			c0.4-0.1,0.8-0.2,1.2-0.2c0.3,0,0.7,0,1,0.2c0.3,0.1,0.5,0.2,0.8,0.4c0.2,0.2,0.4,0.4,0.4,0.6c0.1,0.3,0.2,0.5,0.2,0.8h-1.2
			c0-0.1,0-0.3-0.1-0.4c-0.1-0.1-0.1-0.2-0.2-0.3c-0.1-0.1-0.2-0.2-0.4-0.2c-0.2-0.1-0.4-0.1-0.6-0.1c-0.2,0-0.4,0-0.6,0.1
			c-0.1,0-0.3,0.1-0.4,0.2c-0.1,0.1-0.2,0.2-0.2,0.3c0,0.1,0,0.2-0.1,0.3c0,0.1,0,0.3,0.1,0.4c0.1,0.1,0.2,0.2,0.3,0.3
			c0.2,0.1,0.3,0.1,0.5,0.2l0.6,0.1c0.3,0.1,0.6,0.2,0.9,0.2c0.3,0.1,0.5,0.2,0.8,0.4c0.2,0.1,0.4,0.3,0.5,0.6
			c0.1,0.3,0.2,0.6,0.2,0.9c0,0.3-0.1,0.6-0.2,0.9c-0.1,0.3-0.3,0.5-0.6,0.6c-0.3,0.2-0.6,0.3-0.9,0.4c-0.4,0.1-0.8,0.1-1.1,0.1
			c-0.4,0-0.8,0-1.2-0.2c-0.3-0.1-0.6-0.3-0.8-0.5c-0.2-0.2-0.4-0.4-0.5-0.7C217.4,56.2,217.4,55.9,217.4,55.6z"/>
		<path class="st0" d="M229.6,57.6V51h4.6v1h-3.3v1.8h2.9v1h-2.9v1.9h3.4v1H229.6z"/>
		<path class="st0" d="M236.7,55.6h1.2c0,0.1,0,0.3,0.1,0.4c0.1,0.1,0.2,0.3,0.3,0.3c0.1,0.1,0.3,0.2,0.5,0.2
			c0.2,0.1,0.4,0.1,0.6,0.1c0.4,0,0.8-0.1,1.2-0.2c0.2-0.2,0.4-0.4,0.4-0.7c0-0.2,0-0.3-0.1-0.4c-0.1-0.1-0.2-0.2-0.4-0.3
			c-0.2-0.1-0.4-0.2-0.6-0.2l-0.7-0.2l-0.5-0.1c-0.2,0-0.3-0.1-0.5-0.1c-0.2-0.1-0.3-0.1-0.5-0.2c-0.2-0.1-0.3-0.2-0.4-0.3
			c-0.1-0.1-0.2-0.3-0.3-0.4c-0.1-0.2-0.1-0.4-0.1-0.6c0-0.3,0-0.6,0.1-0.8c0.1-0.3,0.3-0.5,0.5-0.7c0.2-0.2,0.5-0.3,0.8-0.4
			c0.4-0.1,0.8-0.2,1.2-0.2c0.3,0,0.7,0,1,0.2c0.3,0.1,0.5,0.2,0.7,0.4c0.2,0.2,0.4,0.4,0.5,0.6c0.1,0.3,0.2,0.5,0.2,0.8h-1.2
			c0-0.1,0-0.3-0.1-0.4c-0.1-0.1-0.1-0.2-0.2-0.3c-0.1-0.1-0.2-0.2-0.4-0.2c-0.2-0.1-0.4-0.1-0.6-0.1c-0.2,0-0.4,0-0.6,0.1
			c-0.1,0-0.3,0.1-0.4,0.2c-0.1,0.1-0.2,0.2-0.2,0.3c0,0.1-0.1,0.2-0.1,0.3c0,0.1,0,0.3,0.1,0.4c0.1,0.1,0.2,0.2,0.3,0.3
			c0.2,0.1,0.3,0.1,0.5,0.2l0.7,0.1c0.3,0.1,0.6,0.2,0.9,0.2c0.3,0.1,0.5,0.2,0.8,0.4c0.2,0.1,0.4,0.3,0.5,0.6
			c0.1,0.3,0.2,0.6,0.2,0.9c0,0.3-0.1,0.6-0.2,0.9c-0.1,0.3-0.3,0.5-0.6,0.6c-0.3,0.2-0.6,0.3-0.9,0.4c-0.4,0.1-0.7,0.1-1.1,0.1
			c-0.4,0-0.8-0.1-1.2-0.2c-0.3-0.1-0.6-0.3-0.8-0.5C236.9,56.7,236.7,56.2,236.7,55.6L236.7,55.6z"/>
		<path class="st0" d="M246.5,57.6V52h-2v-1h5.2v1h-2v5.6H246.5z"/>
		<path class="st0" d="M255,52.7v-0.2l0,0V52.7l-1.2,2.6h2.2L255,52.7z M254.4,50.9h1.2l2.8,6.7H257l-0.5-1.3h-3.1l-0.5,1.3h-1.3
			L254.4,50.9z"/>
		<path class="st0" d="M262.3,57.6V52h-2v-1h5.2v1h-2v5.6H262.3z"/>
		<path class="st0" d="M268.2,57.6V51h4.6v1h-3.3v1.8h2.9v1h-2.9v1.9h3.4v1H268.2z"/>
	</g>
</g>
</svg>
