<svg width="69" height="69" viewBox="0 0 69 69" fill="none" xmlns="http://www.w3.org/2000/svg">
<g clip-path="url(#clip0_719_2678)">
<path d="M42.5625 25.6221H41.4375V29.6221H45.375V28.4346C45.375 26.8838 44.1133 25.6221 42.5625 25.6221Z" fill="#7957FF"/>
<path d="M38.625 19H27.375C26.8572 19 26.4375 19.4197 26.4375 19.9375V29.6219H39.5625V19.9375C39.5625 19.4197 39.1427 19 38.625 19Z" fill="#7957FF"/>
<path d="M24.5625 25.6221H21.9375C21.1527 25.6221 20.4149 25.9276 19.8602 26.4823C19.3055 27.037 19 27.7748 19 28.5596V29.6221H24.5625V25.6221Z" fill="#7957FF"/>
<path d="M40.375 40.5C40.375 41.8871 41.5181 43.5625 42.9375 43.5625H50.0625C50.5802 43.5625 51 43.1427 51 42.625V38.375C51 37.8572 50.5802 37.4375 50.0625 37.4375H42.9375C41.5181 37.4375 40.375 39.1129 40.375 40.5ZM44.4375 40.4998C44.4375 41.0176 44.0178 41.4373 43.5 41.4373C42.9822 41.4373 42.5625 41.0176 42.5625 40.4998C42.5625 39.9821 42.9822 39.5623 43.5 39.5623C44.0178 39.5623 44.4375 39.9821 44.4375 40.4998Z" fill="#7957FF"/>
<path d="M39.7431 43.8259C38.9531 42.8801 38.5 41.6679 38.5 40.5001C38.5 39.3324 38.9531 38.1202 39.7431 37.1743C40.6111 36.135 41.7456 35.5626 42.9375 35.5626H49.375V32.7501C49.375 32.5949 49.3643 32.4424 49.3436 32.2933C49.28 31.8349 48.8819 31.4971 48.4191 31.4971H19V47.7926C19 49.5613 20.2617 51.0001 21.8125 51.0001H46.5625C48.1133 51.0001 49.375 49.5613 49.375 47.7926V45.4376H42.9375C41.7456 45.4376 40.6111 44.8653 39.7431 43.8259Z" fill="#7957FF"/>
</g>
<rect x="5.5" y="5.5" width="58" height="58" rx="15.5" stroke="url(#paint0_linear_719_2678)" stroke-opacity="0.15" stroke-width="11"/>
<defs>
<linearGradient id="paint0_linear_719_2678" x1="34.5" y1="0" x2="34.5" y2="69" gradientUnits="userSpaceOnUse">
<stop stop-color="white"/>
<stop offset="1" stop-color="white" stop-opacity="0"/>
</linearGradient>
<clipPath id="clip0_719_2678">
<rect width="32" height="32" fill="white" transform="translate(19 19)"/>
</clipPath>
</defs>
</svg>
