<svg width="16" height="16" viewBox="0 0 16 16" fill="none" xmlns="http://www.w3.org/2000/svg">
<path fill-rule="evenodd" clip-rule="evenodd" d="M0.21875 8C0.21875 8.31066 0.47059 8.5625 0.78125 8.5625L9.01067 8.5625L7.54018 9.82292C7.30431 10.0251 7.27699 10.3802 7.47917 10.6161C7.68134 10.8519 8.03645 10.8793 8.27232 10.6771L10.8973 8.42708C11.022 8.32022 11.0937 8.16421 11.0937 8C11.0937 7.83579 11.022 7.67978 10.8973 7.57292L8.27232 5.32292C8.03645 5.12074 7.68134 5.14806 7.47917 5.38393C7.27699 5.6198 7.30431 5.97491 7.54018 6.17708L9.01067 7.4375L0.78125 7.4375C0.47059 7.4375 0.21875 7.68934 0.21875 8Z" fill="white" fill-opacity="0.4"/>
<path d="M6.03125 6.31253L6.31496 6.31253C6.12105 5.76233 6.21807 5.12657 6.625 4.65182C7.23153 3.94421 8.29685 3.86226 9.00446 4.46878L11.6295 6.71878C12.0035 7.03938 12.2187 7.50741 12.2187 8.00003C12.2187 8.49265 12.0035 8.96068 11.6295 9.28128L9.00446 11.5313C8.29685 12.1378 7.23153 12.0559 6.625 11.3482C6.21808 10.8735 6.12105 10.2377 6.31496 9.68753L6.03125 9.68753L6.03125 11C6.03125 13.1213 6.03125 14.182 6.69026 14.841C7.34927 15.5 8.40993 15.5 10.5312 15.5L11.2813 15.5C13.4026 15.5 14.4632 15.5 15.1222 14.841C15.7813 14.182 15.7813 13.1213 15.7813 11L15.7813 5C15.7813 2.87869 15.7813 1.81802 15.1222 1.15901C14.4632 0.499999 13.4026 0.499999 11.2813 0.5L10.5312 0.5C8.40993 0.5 7.34927 0.5 6.69026 1.15901C6.03125 1.81802 6.03125 2.87868 6.03125 5L6.03125 6.31253Z" fill="white" fill-opacity="0.4"/>
</svg>
