<svg width="12" height="18" viewBox="0 0 12 18" fill="none" xmlns="http://www.w3.org/2000/svg">
<path fill-rule="evenodd" clip-rule="evenodd" d="M0.43934 12.4393C-0.146447 13.0251 -0.146447 13.9749 0.43934 14.5607L3.43934 17.5607C4.02513 18.1464 4.97487 18.1464 5.56066 17.5607C6.14645 16.9749 6.14645 16.0251 5.56066 15.4393L5.12132 15H10.5C11.3284 15 12 14.3284 12 13.5C12 12.6716 11.3284 12 10.5 12H5.12132L5.56066 11.5607C6.14645 10.9749 6.14645 10.0251 5.56066 9.43934C4.97487 8.85355 4.02513 8.85355 3.43934 9.43934L0.43934 12.4393Z" fill="url(#paint0_linear_405_9630)"/>
<path fill-rule="evenodd" clip-rule="evenodd" d="M11.5607 5.56066C12.1464 4.97487 12.1464 4.02513 11.5607 3.43934L8.56066 0.43934C7.97487 -0.146447 7.02513 -0.146447 6.43934 0.43934C5.85355 1.02513 5.85355 1.97487 6.43934 2.56066L6.87868 3L1.5 3C0.671573 3 5.10531e-07 3.67157 4.38107e-07 4.5C3.65684e-07 5.32843 0.671573 6 1.5 6H6.87868L6.43934 6.43934C5.85355 7.02513 5.85355 7.97487 6.43934 8.56066C7.02513 9.14645 7.97487 9.14645 8.56066 8.56066L11.5607 5.56066Z" fill="url(#paint1_linear_405_9630)"/>
<defs>
<linearGradient id="paint0_linear_405_9630" x1="0" y1="11.5714" x2="12" y2="11.5714" gradientUnits="userSpaceOnUse">
<stop stop-color="#7957FF"/>
<stop offset="1" stop-color="#A824E6"/>
</linearGradient>
<linearGradient id="paint1_linear_405_9630" x1="0" y1="11.5714" x2="12" y2="11.5714" gradientUnits="userSpaceOnUse">
<stop stop-color="#7957FF"/>
<stop offset="1" stop-color="#A824E6"/>
</linearGradient>
</defs>
</svg>
