<svg id="Layer_1" data-name="Layer 1" xmlns="http://www.w3.org/2000/svg" xmlns:xlink="http://www.w3.org/1999/xlink" viewBox="0 0 353.5 159.91">
  <defs>
    <style>
      .cls-1 {
        fill: #d9d9d9;
      }

      .cls-2 {
        fill: url(#linear-gradient);
      }

      .cls-3 {
        fill: url(#linear-gradient-2);
      }

      .cls-4 {
        fill: url(#linear-gradient-3);
      }

      .cls-5 {
        fill: url(#linear-gradient-4);
      }

      .cls-6 {
        fill: url(#linear-gradient-5);
      }

      .cls-7 {
        fill: url(#linear-gradient-6);
      }

      .cls-8 {
        fill: url(#linear-gradient-7);
      }

      .cls-9 {
        fill: url(#linear-gradient-8);
      }

      .cls-10 {
        fill: url(#linear-gradient-9);
      }

      .cls-11 {
        fill: url(#linear-gradient-10);
      }

      .cls-12 {
        fill: url(#linear-gradient-11);
      }

      .cls-13 {
        fill: url(#linear-gradient-12);
      }

      .cls-14 {
        fill: url(#linear-gradient-13);
      }

      .cls-15 {
        fill: url(#linear-gradient-14);
      }

      .cls-16 {
        fill: url(#linear-gradient-15);
      }

      .cls-17, .cls-18, .cls-19, .cls-20, .cls-21 {
        fill-opacity: 0.2;
      }

      .cls-17 {
        fill: url(#radial-gradient);
      }

      .cls-18 {
        fill: url(#radial-gradient-2);
      }

      .cls-19 {
        fill: url(#radial-gradient-3);
      }

      .cls-20 {
        fill: url(#radial-gradient-4);
      }

      .cls-21 {
        fill: url(#radial-gradient-5);
      }

      .cls-22, .cls-24, .cls-26, .cls-27, .cls-28 {
        fill: none;
      }

      .cls-22 {
        stroke: url(#linear-gradient-16);
      }

      .cls-23, .cls-25 {
        isolation: isolate;
      }

      .cls-23 {
        font-size: 17.26px;
      }

      .cls-23, .cls-25, .cls-29, .cls-30 {
        fill: #afffaf;
        font-family: Arial-BoldMT, Arial;
        font-weight: 700;
      }

      .cls-24 {
        stroke: url(#linear-gradient-17);
      }

      .cls-25 {
        font-size: 16.37px;
      }

      .cls-26 {
        stroke: url(#linear-gradient-18);
      }

      .cls-27 {
        stroke: url(#linear-gradient-19);
      }

      .cls-28 {
        stroke: url(#linear-gradient-20);
      }

      .cls-29 {
        font-size: 23px;
      }

      .cls-30 {
        font-size: 24px;
      }
    </style>
    <linearGradient id="linear-gradient" x1="41.59" y1="-819.36" x2="27.11" y2="-786.42" gradientTransform="matrix(1, 0, 0, -1, 0, -754.88)" gradientUnits="userSpaceOnUse">
      <stop offset="0" stop-color="#67ff92"/>
      <stop offset="1" stop-color="#00ca69"/>
    </linearGradient>
    <linearGradient id="linear-gradient-2" x1="36.45" y1="-888.51" x2="85.17" y2="-821.24" gradientTransform="matrix(1, 0, 0, -1, 0, -754.88)" gradientUnits="userSpaceOnUse">
      <stop offset="0" stop-color="#67ff92" stop-opacity="0"/>
      <stop offset="1" stop-color="#00ca69"/>
    </linearGradient>
    <linearGradient id="linear-gradient-3" x1="35.77" y1="-895.57" x2="-5.35" y2="-823.56" gradientTransform="matrix(1, 0, 0, -1, 0, -754.88)" gradientUnits="userSpaceOnUse">
      <stop offset="0" stop-color="#67ff92" stop-opacity="0"/>
      <stop offset="1" stop-color="#4bffa9"/>
    </linearGradient>
    <linearGradient id="linear-gradient-4" x1="186.18" y1="-846.58" x2="177.01" y2="-821.61" xlink:href="#linear-gradient"/>
    <linearGradient id="linear-gradient-5" x1="186.33" y1="-897.94" x2="219.07" y2="-843.82" xlink:href="#linear-gradient-2"/>
    <linearGradient id="linear-gradient-6" x1="178.72" y1="-902.82" x2="151.97" y2="-846.75" xlink:href="#linear-gradient-3"/>
    <linearGradient id="linear-gradient-7" x1="256.16" y1="-857.35" x2="249.39" y2="-835.52" xlink:href="#linear-gradient"/>
    <linearGradient id="linear-gradient-8" x1="259.89" y1="-901.78" x2="285.18" y2="-852.28" xlink:href="#linear-gradient-2"/>
    <linearGradient id="linear-gradient-9" x1="246.79" y1="-905.69" x2="226.64" y2="-855.68" xlink:href="#linear-gradient-3"/>
    <linearGradient id="linear-gradient-10" x1="325.65" y1="-869.16" x2="318.89" y2="-847.38" xlink:href="#linear-gradient"/>
    <linearGradient id="linear-gradient-11" x1="330.68" y1="-904.8" x2="352.31" y2="-862.47" xlink:href="#linear-gradient-2"/>
    <linearGradient id="linear-gradient-12" x1="314.98" y1="-907.97" x2="297.88" y2="-865.54" xlink:href="#linear-gradient-3"/>
    <linearGradient id="linear-gradient-13" x1="116.49" y1="-833.21" x2="104.18" y2="-804.96" xlink:href="#linear-gradient"/>
    <linearGradient id="linear-gradient-14" x1="112.32" y1="-892.43" x2="153.85" y2="-834.55" xlink:href="#linear-gradient-2"/>
    <linearGradient id="linear-gradient-15" x1="111.33" y1="-898.46" x2="76.33" y2="-836.61" xlink:href="#linear-gradient-3"/>
    <radialGradient id="radial-gradient" cx="-2346.29" cy="678.38" r="0.99" gradientTransform="matrix(-17.42, 31.85, 49.63, 27.14, -74198.71, 56381.09)" gradientUnits="userSpaceOnUse">
      <stop offset="0" stop-color="#93ff27"/>
      <stop offset="1" stop-color="#27ff71" stop-opacity="0"/>
    </radialGradient>
    <radialGradient id="radial-gradient-2" cx="-2345.68" cy="677.21" r="0.99" xlink:href="#radial-gradient"/>
    <radialGradient id="radial-gradient-3" cx="-2345.07" cy="675.98" r="0.99" xlink:href="#radial-gradient"/>
    <radialGradient id="radial-gradient-4" cx="-2344.51" cy="674.75" r="0.99" xlink:href="#radial-gradient"/>
    <radialGradient id="radial-gradient-5" cx="-2343.82" cy="673.48" r="0.99" xlink:href="#radial-gradient"/>
    <linearGradient id="linear-gradient-16" x1="336.78" y1="-794.72" x2="316.05" y2="-844.24" gradientTransform="matrix(1, 0, 0, -1, 0, -754.89)" gradientUnits="userSpaceOnUse">
      <stop offset="0" stop-color="#384a60"/>
      <stop offset="1" stop-color="#384a60" stop-opacity="0"/>
    </linearGradient>
    <linearGradient id="linear-gradient-17" x1="267.76" y1="-782.25" x2="247.03" y2="-831.76" xlink:href="#linear-gradient-16"/>
    <linearGradient id="linear-gradient-18" x1="196.61" y1="-768.39" x2="175.88" y2="-817.91" xlink:href="#linear-gradient-16"/>
    <linearGradient id="linear-gradient-19" x1="125.69" y1="-752.73" x2="104.96" y2="-802.25" xlink:href="#linear-gradient-16"/>
    <linearGradient id="linear-gradient-20" x1="50.23" y1="-740.24" x2="29.5" y2="-789.76" xlink:href="#linear-gradient-16"/>
  </defs>
  <path class="cls-1" d="M36.21,44.29.57,51.38l35.64,8.38,35.06-8Z"/>
  <path class="cls-2" d="M36.21,44.29.57,51.38l35.64,8.38,35.06-8Z"/>
  <path class="cls-3" d="M71.27,51.76l-35.06,8-.58,100H71.27Z"/>
  <path class="cls-4" d="M.57,51.38l35.64,8.38-.57,100H0Z"/>
  <path class="cls-1" d="M182.83,76.67l-30.75,5.09,30.75,6,30.26-5.71Z"/>
  <path class="cls-5" d="M182.83,76.67l-30.75,5.09,30.75,6,30.26-5.71Z"/>
  <path class="cls-6" d="M213.09,82.08l-30.25,5.68-.5,72.15h30.75Z"/>
  <path class="cls-7" d="M152.08,81.76l30.76,6-.5,72.12H151.59Z"/>
  <path class="cls-1" d="M253.74,89.49,223,93.76l30.75,5.08L284,94.06Z"/>
  <path class="cls-8" d="M253.74,89.49,223,93.76l30.75,5.08L284,94.06Z"/>
  <path class="cls-9" d="M284,94.06l-30.26,4.82-.49,60.88H284Z"/>
  <path class="cls-10" d="M223,93.76l30.75,5.1-.49,60.9H222.5Z"/>
  <path class="cls-1" d="M323.24,102.11l-30.75,3.54,30.75,4.16,30.26-4Z"/>
  <path class="cls-11" d="M323.24,102.11l-30.75,3.54,30.75,4.16,30.26-4Z"/>
  <path class="cls-12" d="M353.5,105.86l-30.25,4-.5,50H353.5Z"/>
  <path class="cls-13" d="M292.49,105.65l30.76,4.18-.5,50H292Z"/>
  <path class="cls-1" d="M111.92,61,81.17,67.09l30.75,7.13,30.26-6.77Z"/>
  <path class="cls-14" d="M111.92,61,81.17,67.09l30.75,7.13,30.26-6.77Z"/>
  <path class="cls-15" d="M142.18,67.45l-30.25,6.77-.5,85.58h30.75Z"/>
  <path class="cls-16" d="M81.18,67.09l30.75,7.16-.5,85.55H80.68Z"/>
  <rect class="cls-17" x="300.94" y="54.98" width="43.63" height="36.69" rx="3.47"/>
  <rect class="cls-18" x="231.93" y="42.5" width="43.63" height="36.69" rx="3.47"/>
  <rect class="cls-19" x="160.52" y="28.65" width="43.63" height="36.69" rx="3.47"/>
  <rect class="cls-20" x="89.61" y="12.98" width="43.63" height="36.69" rx="3.47"/>
  <rect class="cls-21" x="14.39" y="0.5" width="43.63" height="36.69" rx="3.47"/>
  <rect class="cls-22" x="300.94" y="54.98" width="43.63" height="36.69" rx="3.47"/>
  <text class="cls-23" transform="translate(322.38 79.1)">%</text>
  <rect class="cls-24" x="231.93" y="42.5" width="43.63" height="36.69" rx="3.47"/>
  <text class="cls-25" transform="translate(253.56 65.88)">%</text>
  <rect class="cls-26" x="160.77" y="28.65" width="43.63" height="36.69" rx="3.47"/>
  <text class="cls-23" transform="translate(170.19 52.77)">3%</text>
  <rect class="cls-27" x="89.86" y="12.98" width="43.63" height="36.69" rx="3.47"/>
  <text class="cls-23" transform="translate(98.47 37.11)">4%</text>
  <rect class="cls-28" x="14.39" y="0.5" width="43.63" height="36.69" rx="3.47"/>
  <text class="cls-23" transform="translate(24.06 24.7)">5%</text>
  <text class="cls-29" transform="translate(238.87 68.31)">+</text>
  <text class="cls-30" transform="translate(306.74 82.49)">+</text>
</svg>
