<?xml version="1.0" encoding="utf-8"?>
<!-- Generator: Adobe Illustrator 26.0.1, SVG Export Plug-In . SVG Version: 6.00 Build 0)  -->
<svg version="1.1" id="Layer_1" xmlns="http://www.w3.org/2000/svg" xmlns:xlink="http://www.w3.org/1999/xlink" x="0px" y="0px"
	 viewBox="0 0 353.5 159.9" style="enable-background:new 0 0 353.5 159.9;" xml:space="preserve">
<style type="text/css">
	.st0{fill:#D9D9D9;}
	.st1{fill:url(#SVGID_1_);}
	.st2{fill:url(#SVGID_00000146476167687894401600000011879417845626545064_);}
	.st3{fill:url(#SVGID_00000165224776360113841880000000908067169276800907_);}
	.st4{fill:url(#SVGID_00000078737508862388836780000005422381389946282114_);}
	.st5{fill:url(#SVGID_00000080200431474720691860000009537561509269654400_);}
	.st6{fill:url(#SVGID_00000013183138550064127810000013181678175577097396_);}
	.st7{fill:url(#SVGID_00000085957940068975361990000013276566593814717845_);}
	.st8{fill:url(#SVGID_00000077296389206378257640000018383162398927295918_);}
	.st9{fill:url(#SVGID_00000036247959052110175020000012432395300001098133_);}
	.st10{fill:url(#SVGID_00000103225095901512956220000015628548883429648522_);}
	.st11{fill:url(#SVGID_00000154395205598903335760000003263784466694002084_);}
	.st12{fill:url(#SVGID_00000085222238997200776560000004159222122262994833_);}
	.st13{fill:url(#SVGID_00000094588175818821393750000008178739238194444951_);}
	.st14{fill:url(#SVGID_00000084503206674456767780000002937711586519118009_);}
	.st15{fill:url(#SVGID_00000160868912858920872990000004521341610109816725_);}
	.st16{fill:url(#SVGID_00000130621915223616995910000005858242480557471653_);fill-opacity:0.2;}
	.st17{fill:none;stroke:url(#SVGID_00000023280999300270446100000004758800919558154379_);}
	.st18{fill:#AFFFAF;}
	.st19{font-family:'Arial-BoldMT';}
	.st20{font-size:17.26px;}
	.st21{fill:url(#SVGID_00000130645692757454838570000004878591227879922084_);fill-opacity:0.2;}
	.st22{fill:none;stroke:url(#SVGID_00000060004572359523289930000001410528607411585686_);}
	.st23{font-size:16.367px;}
	.st24{fill:url(#SVGID_00000136401464858978281930000000597501821612750466_);fill-opacity:0.2;}
	.st25{fill:none;stroke:url(#SVGID_00000144330122689465213620000011594337989449701508_);}
	.st26{fill:url(#SVGID_00000131343655536021622780000010638443245571543461_);fill-opacity:0.2;}
	.st27{fill:none;stroke:url(#SVGID_00000167385344730113351970000004388466814699816071_);}
	.st28{fill:url(#SVGID_00000023261630244358015020000018313013858656457896_);fill-opacity:0.2;}
	.st29{fill:none;stroke:url(#SVGID_00000140710814601859737630000008984203055621526194_);}
	.st30{fill:url(#SVGID_00000075134752122141058950000010661903331506559421_);fill-opacity:0.2;}
	.st31{fill:url(#SVGID_00000015330328591783882460000016109410090457646524_);fill-opacity:0.2;}
	.st32{fill:url(#SVGID_00000102529350644588935580000001896899373242396577_);fill-opacity:0.2;}
	.st33{fill:url(#SVGID_00000114073247026857165270000004153232685487906494_);fill-opacity:0.2;}
	.st34{fill:none;}
	.st35{font-size:23px;}
	.st36{font-size:24px;}
</style>
<path class="st0" d="M36.2,44.3L0.6,51.4l35.6,8.4l35.1-8L36.2,44.3z"/>
<linearGradient id="SVGID_1_" gradientUnits="userSpaceOnUse" x1="41.5942" y1="-819.3581" x2="27.1142" y2="-786.4181" gradientTransform="matrix(1 0 0 -1 0 -754.88)">
	<stop  offset="0" style="stop-color:#67FF92"/>
	<stop  offset="1" style="stop-color:#00CA69"/>
</linearGradient>
<path class="st1" d="M36.2,44.3L0.6,51.4l35.6,8.4l35.1-8L36.2,44.3z"/>
<linearGradient id="SVGID_00000149340451788888750060000009225061708962195388_" gradientUnits="userSpaceOnUse" x1="36.4515" y1="-888.5111" x2="85.1715" y2="-821.2411" gradientTransform="matrix(1 0 0 -1 0 -754.88)">
	<stop  offset="0" style="stop-color:#67FF92;stop-opacity:0"/>
	<stop  offset="1" style="stop-color:#00CA69"/>
</linearGradient>
<path style="fill:url(#SVGID_00000149340451788888750060000009225061708962195388_);" d="M71.3,51.8l-35.1,8l-0.6,100h35.6V51.8z"/>
<linearGradient id="SVGID_00000084522536207187005970000000434371491516597376_" gradientUnits="userSpaceOnUse" x1="35.7677" y1="-895.5712" x2="-5.3523" y2="-823.5613" gradientTransform="matrix(1 0 0 -1 0 -754.88)">
	<stop  offset="0" style="stop-color:#67FF92;stop-opacity:0"/>
	<stop  offset="1" style="stop-color:#4BFFA9"/>
</linearGradient>
<path style="fill:url(#SVGID_00000084522536207187005970000000434371491516597376_);" d="M0.6,51.4l35.6,8.4l-0.6,100H0L0.6,51.4z"
	/>
<path class="st0" d="M182.8,76.7l-30.8,5.1l30.8,6l30.3-5.7L182.8,76.7z"/>
<linearGradient id="SVGID_00000171717934913208642830000012563034752051235251_" gradientUnits="userSpaceOnUse" x1="186.1819" y1="-846.5793" x2="177.0119" y2="-821.6093" gradientTransform="matrix(1 0 0 -1 0 -754.88)">
	<stop  offset="0" style="stop-color:#67FF92"/>
	<stop  offset="1" style="stop-color:#00CA69"/>
</linearGradient>
<path style="fill:url(#SVGID_00000171717934913208642830000012563034752051235251_);" d="M182.8,76.7l-30.8,5.1l30.8,6l30.3-5.7
	L182.8,76.7z"/>
<linearGradient id="SVGID_00000131327854519661905100000014677945538070240156_" gradientUnits="userSpaceOnUse" x1="186.3335" y1="-897.9421" x2="219.0735" y2="-843.8221" gradientTransform="matrix(1 0 0 -1 0 -754.88)">
	<stop  offset="0" style="stop-color:#67FF92;stop-opacity:0"/>
	<stop  offset="1" style="stop-color:#00CA69"/>
</linearGradient>
<path style="fill:url(#SVGID_00000131327854519661905100000014677945538070240156_);" d="M213.1,82.1l-30.2,5.7l-0.5,72.2h30.8V82.1
	z"/>
<linearGradient id="SVGID_00000106840533759934668570000012076385197877786759_" gradientUnits="userSpaceOnUse" x1="178.7218" y1="-902.8191" x2="151.9718" y2="-846.7491" gradientTransform="matrix(1 0 0 -1 0 -754.88)">
	<stop  offset="0" style="stop-color:#67FF92;stop-opacity:0"/>
	<stop  offset="1" style="stop-color:#4BFFA9"/>
</linearGradient>
<path style="fill:url(#SVGID_00000106840533759934668570000012076385197877786759_);" d="M152.1,81.8l30.8,6l-0.5,72.1h-30.8
	L152.1,81.8z"/>
<path class="st0" d="M253.7,89.5L223,93.8l30.8,5.1l30.2-4.8L253.7,89.5z"/>
<linearGradient id="SVGID_00000178904149231702952390000005790086055778086319_" gradientUnits="userSpaceOnUse" x1="256.1551" y1="-857.3515" x2="249.3851" y2="-835.5215" gradientTransform="matrix(1 0 0 -1 0 -754.88)">
	<stop  offset="0" style="stop-color:#67FF92"/>
	<stop  offset="1" style="stop-color:#00CA69"/>
</linearGradient>
<path style="fill:url(#SVGID_00000178904149231702952390000005790086055778086319_);" d="M253.7,89.5L223,93.8l30.8,5.1l30.2-4.8
	L253.7,89.5z"/>
<linearGradient id="SVGID_00000144328056012417557610000010325988991732225424_" gradientUnits="userSpaceOnUse" x1="259.8886" y1="-901.7793" x2="285.1786" y2="-852.2793" gradientTransform="matrix(1 0 0 -1 0 -754.88)">
	<stop  offset="0" style="stop-color:#67FF92;stop-opacity:0"/>
	<stop  offset="1" style="stop-color:#00CA69"/>
</linearGradient>
<path style="fill:url(#SVGID_00000144328056012417557610000010325988991732225424_);" d="M284,94.1l-30.3,4.8l-0.5,60.9H284V94.1z"
	/>
<linearGradient id="SVGID_00000008838778296318415690000017077323801295237002_" gradientUnits="userSpaceOnUse" x1="246.7881" y1="-905.6907" x2="226.6381" y2="-855.6808" gradientTransform="matrix(1 0 0 -1 0 -754.88)">
	<stop  offset="0" style="stop-color:#67FF92;stop-opacity:0"/>
	<stop  offset="1" style="stop-color:#4BFFA9"/>
</linearGradient>
<path style="fill:url(#SVGID_00000008838778296318415690000017077323801295237002_);" d="M223,93.8l30.8,5.1l-0.5,60.9h-30.8
	L223,93.8z"/>
<path class="st0" d="M323.2,102.1l-30.8,3.5l30.8,4.2l30.3-4L323.2,102.1z"/>
<linearGradient id="SVGID_00000181084285131834582930000001819700083500753329_" gradientUnits="userSpaceOnUse" x1="325.6488" y1="-869.1604" x2="318.8889" y2="-847.3804" gradientTransform="matrix(1 0 0 -1 0 -754.88)">
	<stop  offset="0" style="stop-color:#67FF92"/>
	<stop  offset="1" style="stop-color:#00CA69"/>
</linearGradient>
<path style="fill:url(#SVGID_00000181084285131834582930000001819700083500753329_);" d="M323.2,102.1l-30.8,3.5l30.8,4.2l30.3-4
	L323.2,102.1z"/>
<linearGradient id="SVGID_00000125604319777691388500000007619973742986256565_" gradientUnits="userSpaceOnUse" x1="330.6797" y1="-904.7999" x2="352.3097" y2="-862.4698" gradientTransform="matrix(1 0 0 -1 0 -754.88)">
	<stop  offset="0" style="stop-color:#67FF92;stop-opacity:0"/>
	<stop  offset="1" style="stop-color:#00CA69"/>
</linearGradient>
<path style="fill:url(#SVGID_00000125604319777691388500000007619973742986256565_);" d="M353.5,105.9l-30.2,4l-0.5,50h30.8V105.9z"
	/>
<linearGradient id="SVGID_00000018204764202175568380000000842565562888652709_" gradientUnits="userSpaceOnUse" x1="314.9835" y1="-907.9686" x2="297.8835" y2="-865.5386" gradientTransform="matrix(1 0 0 -1 0 -754.88)">
	<stop  offset="0" style="stop-color:#67FF92;stop-opacity:0"/>
	<stop  offset="1" style="stop-color:#4BFFA9"/>
</linearGradient>
<path style="fill:url(#SVGID_00000018204764202175568380000000842565562888652709_);" d="M292.5,105.7l30.8,4.2l-0.5,50H292
	L292.5,105.7z"/>
<path class="st0" d="M111.9,61l-30.8,6.1l30.8,7.1l30.3-6.8L111.9,61z"/>
<linearGradient id="SVGID_00000060724905533523897070000017767668102297885058_" gradientUnits="userSpaceOnUse" x1="116.4937" y1="-833.2084" x2="104.1837" y2="-804.9584" gradientTransform="matrix(1 0 0 -1 0 -754.88)">
	<stop  offset="0" style="stop-color:#67FF92"/>
	<stop  offset="1" style="stop-color:#00CA69"/>
</linearGradient>
<path style="fill:url(#SVGID_00000060724905533523897070000017767668102297885058_);" d="M111.9,61l-30.8,6.1l30.8,7.1l30.3-6.8
	L111.9,61z"/>
<linearGradient id="SVGID_00000142151422490392495830000014564815399596659390_" gradientUnits="userSpaceOnUse" x1="112.3181" y1="-892.4287" x2="153.8481" y2="-834.5486" gradientTransform="matrix(1 0 0 -1 0 -754.88)">
	<stop  offset="0" style="stop-color:#67FF92;stop-opacity:0"/>
	<stop  offset="1" style="stop-color:#00CA69"/>
</linearGradient>
<path style="fill:url(#SVGID_00000142151422490392495830000014564815399596659390_);" d="M142.2,67.4l-30.2,6.8l-0.5,85.6h30.8V67.4
	z"/>
<linearGradient id="SVGID_00000080910872651246233740000004561065114742205865_" gradientUnits="userSpaceOnUse" x1="111.3316" y1="-898.4591" x2="76.3316" y2="-836.6091" gradientTransform="matrix(1 0 0 -1 0 -754.88)">
	<stop  offset="0" style="stop-color:#67FF92;stop-opacity:0"/>
	<stop  offset="1" style="stop-color:#4BFFA9"/>
</linearGradient>
<path style="fill:url(#SVGID_00000080910872651246233740000004561065114742205865_);" d="M81.2,67.1l30.8,7.2l-0.5,85.6H80.7
	L81.2,67.1z"/>
<radialGradient id="SVGID_00000101105808333361229090000011707802937658185137_" cx="-2346.292" cy="678.3827" r="0.99" gradientTransform="matrix(-17.42 31.85 49.63 27.14 -74198.7109 56381.0898)" gradientUnits="userSpaceOnUse">
	<stop  offset="0" style="stop-color:#93FF27"/>
	<stop  offset="1" style="stop-color:#27FF71;stop-opacity:0"/>
</radialGradient>
<path style="fill:url(#SVGID_00000101105808333361229090000011707802937658185137_);fill-opacity:0.2;" d="M304.4,55h36.7
	c1.9,0,3.5,1.6,3.5,3.5v29.7c0,1.9-1.6,3.5-3.5,3.5h-36.7c-1.9,0-3.5-1.6-3.5-3.5V58.5C300.9,56.5,302.5,55,304.4,55z"/>
<linearGradient id="SVGID_00000055684372560940158010000005651040386658586041_" gradientUnits="userSpaceOnUse" x1="336.7772" y1="-794.7188" x2="316.0471" y2="-844.2388" gradientTransform="matrix(1 0 0 -1 0 -754.89)">
	<stop  offset="0" style="stop-color:#384A60"/>
	<stop  offset="1" style="stop-color:#384A60;stop-opacity:0"/>
</linearGradient>
<path style="fill:none;stroke:url(#SVGID_00000055684372560940158010000005651040386658586041_);" d="M304.4,55h36.7
	c1.9,0,3.5,1.6,3.5,3.5v29.7c0,1.9-1.6,3.5-3.5,3.5h-36.7c-1.9,0-3.5-1.6-3.5-3.5V58.5C300.9,56.5,302.5,55,304.4,55z"/>
<text transform="matrix(1 0 0 1 322.38 79.1)" class="st18 st19 st20">%</text>
<radialGradient id="SVGID_00000008859129129752121460000009538114328302310035_" cx="253.745" cy="978.845" r="20.1548" gradientTransform="matrix(1 0 0 1 0 -918)" gradientUnits="userSpaceOnUse">
	<stop  offset="0" style="stop-color:#93FF27"/>
	<stop  offset="1" style="stop-color:#27FF71;stop-opacity:0"/>
</radialGradient>
<path style="fill:url(#SVGID_00000008859129129752121460000009538114328302310035_);fill-opacity:0.2;" d="M235.4,42.5h36.7
	c1.9,0,3.5,1.6,3.5,3.5v29.8c0,1.9-1.6,3.5-3.5,3.5h-36.7c-1.9,0-3.5-1.6-3.5-3.5V46C231.9,44.1,233.5,42.5,235.4,42.5z"/>
<linearGradient id="SVGID_00000010297045343414372880000008955032282548739978_" gradientUnits="userSpaceOnUse" x1="267.7645" y1="-782.2519" x2="247.0345" y2="-831.7619" gradientTransform="matrix(1 0 0 -1 0 -754.89)">
	<stop  offset="0" style="stop-color:#384A60"/>
	<stop  offset="1" style="stop-color:#384A60;stop-opacity:0"/>
</linearGradient>
<path style="fill:none;stroke:url(#SVGID_00000010297045343414372880000008955032282548739978_);" d="M235.4,42.5h36.7
	c1.9,0,3.5,1.6,3.5,3.5v29.8c0,1.9-1.6,3.5-3.5,3.5h-36.7c-1.9,0-3.5-1.6-3.5-3.5V46C231.9,44.1,233.5,42.5,235.4,42.5z"/>
<text transform="matrix(1 0 0 1 253.5596 65.876)" class="st18 st19 st23">%</text>
<radialGradient id="SVGID_00000054224997107330923280000000753201420959034501_" cx="182.585" cy="964.995" r="20.1548" gradientTransform="matrix(1 0 0 1 0 -918)" gradientUnits="userSpaceOnUse">
	<stop  offset="0" style="stop-color:#93FF27"/>
	<stop  offset="1" style="stop-color:#27FF71;stop-opacity:0"/>
</radialGradient>
<path style="fill:url(#SVGID_00000054224997107330923280000000753201420959034501_);fill-opacity:0.2;" d="M164.2,28.6h36.7
	c1.9,0,3.5,1.6,3.5,3.5v29.7c0,1.9-1.6,3.5-3.5,3.5h-36.7c-1.9,0-3.5-1.6-3.5-3.5V32.1C160.8,30.2,162.3,28.6,164.2,28.6z"/>
<linearGradient id="SVGID_00000017495181086385482710000012393380027099731619_" gradientUnits="userSpaceOnUse" x1="196.6071" y1="-768.3888" x2="175.8772" y2="-817.9088" gradientTransform="matrix(1 0 0 -1 0 -754.89)">
	<stop  offset="0" style="stop-color:#384A60"/>
	<stop  offset="1" style="stop-color:#384A60;stop-opacity:0"/>
</linearGradient>
<path style="fill:none;stroke:url(#SVGID_00000017495181086385482710000012393380027099731619_);" d="M164.2,28.6h36.7
	c1.9,0,3.5,1.6,3.5,3.5v29.7c0,1.9-1.6,3.5-3.5,3.5h-36.7c-1.9,0-3.5-1.6-3.5-3.5V32.1C160.8,30.2,162.3,28.6,164.2,28.6z"/>
<text transform="matrix(1 0 0 1 170.19 52.77)" class="st18 st19 st20">3%</text>
<radialGradient id="SVGID_00000085935864825016796550000016393984737612240300_" cx="111.185" cy="949.325" r="20.1548" gradientTransform="matrix(1 0 0 1 0 -918)" gradientUnits="userSpaceOnUse">
	<stop  offset="0" style="stop-color:#93FF27"/>
	<stop  offset="1" style="stop-color:#27FF71;stop-opacity:0"/>
</radialGradient>
<path style="fill:url(#SVGID_00000085935864825016796550000016393984737612240300_);fill-opacity:0.2;" d="M92.8,13h36.7
	c1.9,0,3.5,1.6,3.5,3.5v29.7c0,1.9-1.6,3.5-3.5,3.5H92.8c-1.9,0-3.5-1.6-3.5-3.5V16.4C89.4,14.5,90.9,13,92.8,13z"/>
<linearGradient id="SVGID_00000010269166997764943930000005364510800515919790_" gradientUnits="userSpaceOnUse" x1="125.6921" y1="-752.7308" x2="104.9621" y2="-802.2509" gradientTransform="matrix(1 0 0 -1 0 -754.89)">
	<stop  offset="0" style="stop-color:#384A60"/>
	<stop  offset="1" style="stop-color:#384A60;stop-opacity:0"/>
</linearGradient>
<path style="fill:none;stroke:url(#SVGID_00000010269166997764943930000005364510800515919790_);" d="M93.3,13H130
	c1.9,0,3.5,1.6,3.5,3.5v29.7c0,1.9-1.6,3.5-3.5,3.5H93.3c-1.9,0-3.5-1.6-3.5-3.5V16.4C89.9,14.5,91.4,13,93.3,13z"/>
<text transform="matrix(1 0 0 1 98.47 37.11)" class="st18 st19 st20">4%</text>
<radialGradient id="SVGID_00000168839378063005393900000006197044844357524868_" cx="36.205" cy="936.845" r="20.1548" gradientTransform="matrix(1 0 0 1 0 -918)" gradientUnits="userSpaceOnUse">
	<stop  offset="0" style="stop-color:#93FF27"/>
	<stop  offset="1" style="stop-color:#27FF71;stop-opacity:0"/>
</radialGradient>
<path style="fill:url(#SVGID_00000168839378063005393900000006197044844357524868_);fill-opacity:0.2;" d="M17.9,0.5h36.7
	C56.5,0.5,58,2.1,58,4v29.7c0,1.9-1.6,3.5-3.5,3.5H17.9c-1.9,0-3.5-1.6-3.5-3.5V4C14.4,2.1,15.9,0.5,17.9,0.5z"/>
<linearGradient id="SVGID_00000039830665216519977090000009364920947684989094_" gradientUnits="userSpaceOnUse" x1="50.2271" y1="-740.2388" x2="29.4971" y2="-789.7588" gradientTransform="matrix(1 0 0 -1 0 -754.89)">
	<stop  offset="0" style="stop-color:#384A60"/>
	<stop  offset="1" style="stop-color:#384A60;stop-opacity:0"/>
</linearGradient>
<path style="fill:none;stroke:url(#SVGID_00000039830665216519977090000009364920947684989094_);" d="M17.9,0.5h36.7
	C56.5,0.5,58,2.1,58,4v29.7c0,1.9-1.6,3.5-3.5,3.5H17.9c-1.9,0-3.5-1.6-3.5-3.5V4C14.4,2.1,15.9,0.5,17.9,0.5z"/>
<text transform="matrix(1 0 0 1 24.06 24.7)" class="st18 st19 st20">5%</text>
<radialGradient id="SVGID_00000074417014514814280630000008848873636287235223_" cx="253.245" cy="101.155" r="20.1548" gradientTransform="matrix(1 0 0 -1 0 162)" gradientUnits="userSpaceOnUse">
	<stop  offset="0" style="stop-color:#93FF27"/>
	<stop  offset="1" style="stop-color:#27FF71;stop-opacity:0"/>
</radialGradient>
<path style="fill:url(#SVGID_00000074417014514814280630000008848873636287235223_);fill-opacity:0.2;" d="M234.9,42.5h36.7
	c1.9,0,3.5,1.6,3.5,3.5v29.8c0,1.9-1.6,3.5-3.5,3.5h-36.7c-1.9,0-3.5-1.6-3.5-3.5V46C231.4,44.1,233,42.5,234.9,42.5z"/>
<radialGradient id="SVGID_00000151509637597804788440000013649227328551344797_" cx="182.335" cy="114.435" r="20.1548" gradientTransform="matrix(1 0 0 -1 0 162)" gradientUnits="userSpaceOnUse">
	<stop  offset="0" style="stop-color:#93FF27"/>
	<stop  offset="1" style="stop-color:#27FF71;stop-opacity:0"/>
</radialGradient>
<path style="fill:url(#SVGID_00000151509637597804788440000013649227328551344797_);fill-opacity:0.2;" d="M164,29.2h36.7
	c1.9,0,3.5,1.6,3.5,3.5v29.7c0,1.9-1.6,3.5-3.5,3.5H164c-1.9,0-3.5-1.6-3.5-3.5V32.7C160.5,30.8,162.1,29.2,164,29.2z"/>
<radialGradient id="SVGID_00000034779561767451324310000001963776355571955118_" cx="111.185" cy="130.675" r="20.1548" gradientTransform="matrix(1 0 0 -1 0 162)" gradientUnits="userSpaceOnUse">
	<stop  offset="0" style="stop-color:#93FF27"/>
	<stop  offset="1" style="stop-color:#27FF71;stop-opacity:0"/>
</radialGradient>
<path style="fill:url(#SVGID_00000034779561767451324310000001963776355571955118_);fill-opacity:0.2;" d="M92.8,13h36.7
	c1.9,0,3.5,1.6,3.5,3.5v29.7c0,1.9-1.6,3.5-3.5,3.5H92.8c-1.9,0-3.5-1.6-3.5-3.5V16.4C89.4,14.5,90.9,13,92.8,13z"/>
<radialGradient id="SVGID_00000021076883181782419060000006477551238998060709_" cx="35.625" cy="143.155" r="20.1548" gradientTransform="matrix(1 0 0 -1 0 162)" gradientUnits="userSpaceOnUse">
	<stop  offset="0" style="stop-color:#93FF27"/>
	<stop  offset="1" style="stop-color:#27FF71;stop-opacity:0"/>
</radialGradient>
<path style="fill:url(#SVGID_00000021076883181782419060000006477551238998060709_);fill-opacity:0.2;" d="M17.3,0.5H54
	c1.9,0,3.5,1.6,3.5,3.5v29.7c0,1.9-1.6,3.5-3.5,3.5H17.3c-1.9,0-3.5-1.6-3.5-3.5V4C13.8,2.1,15.4,0.5,17.3,0.5z"/>
<rect x="239.9" y="51.8" class="st34" width="13.7" height="17.4"/>
<text transform="matrix(1 0 0 1 239.874 68.3101)" class="st18 st19 st35">+</text>
<rect x="307.7" y="65.3" class="st34" width="24.7" height="18.5"/>
<text transform="matrix(1 0 0 1 307.7372 82.486)" class="st18 st19 st36">+</text>
</svg>
