<svg width="17" height="17" viewBox="0 0 17 17" fill="none" xmlns="http://www.w3.org/2000/svg">
<path d="M10.9014 3.69065L11.9001 5.68815C12.0347 5.9644 12.3959 6.22649 12.7005 6.28315L14.5068 6.58065C15.6614 6.7719 15.9305 7.60774 15.1018 8.44357L13.6922 9.85315C13.4584 10.0869 13.3239 10.5473 13.4018 10.8802L13.8055 12.6227C14.1243 13.9969 13.3876 14.5352 12.1764 13.8127L10.4834 12.8069C10.1789 12.6227 9.66885 12.6227 9.36427 12.8069L7.67135 13.8127C6.4601 14.5282 5.72343 13.9969 6.04218 12.6227L6.44594 10.8802C6.50969 10.5402 6.3751 10.0798 6.14135 9.84607L4.73177 8.43649C3.90302 7.60774 4.17218 6.7719 5.32677 6.57357L7.13302 6.27607C7.4376 6.22649 7.79885 5.95732 7.93343 5.68107L8.93218 3.68357C9.4776 2.6069 10.3559 2.6069 10.9014 3.69065Z" fill="url(#paint0_linear_356_2337)"/>
<path d="M5.66675 4.07275H1.41675C1.12633 4.07275 0.885498 3.83192 0.885498 3.5415C0.885498 3.25109 1.12633 3.01025 1.41675 3.01025H5.66675C5.95716 3.01025 6.198 3.25109 6.198 3.5415C6.198 3.83192 5.95716 4.07275 5.66675 4.07275Z" fill="url(#paint1_linear_356_2337)"/>
<path d="M3.54175 13.9897H1.41675C1.12633 13.9897 0.885498 13.7489 0.885498 13.4585C0.885498 13.1681 1.12633 12.9272 1.41675 12.9272H3.54175C3.83216 12.9272 4.073 13.1681 4.073 13.4585C4.073 13.7489 3.83216 13.9897 3.54175 13.9897Z" fill="url(#paint2_linear_356_2337)"/>
<path d="M2.12508 9.03125H1.41675C1.12633 9.03125 0.885498 8.79042 0.885498 8.5C0.885498 8.20958 1.12633 7.96875 1.41675 7.96875H2.12508C2.4155 7.96875 2.65633 8.20958 2.65633 8.5C2.65633 8.79042 2.4155 9.03125 2.12508 9.03125Z" fill="url(#paint3_linear_356_2337)"/>
<defs>
<linearGradient id="paint0_linear_356_2337" x1="4.25049" y1="10.1137" x2="15.583" y2="10.1137" gradientUnits="userSpaceOnUse">
<stop stop-color="#7957FF"/>
<stop offset="1" stop-color="#A824E6"/>
</linearGradient>
<linearGradient id="paint1_linear_356_2337" x1="0.885498" y1="3.69329" x2="6.198" y2="3.69329" gradientUnits="userSpaceOnUse">
<stop stop-color="#7957FF"/>
<stop offset="1" stop-color="#A824E6"/>
</linearGradient>
<linearGradient id="paint2_linear_356_2337" x1="0.885498" y1="13.6103" x2="4.073" y2="13.6103" gradientUnits="userSpaceOnUse">
<stop stop-color="#7957FF"/>
<stop offset="1" stop-color="#A824E6"/>
</linearGradient>
<linearGradient id="paint3_linear_356_2337" x1="0.885498" y1="8.65179" x2="2.65633" y2="8.65179" gradientUnits="userSpaceOnUse">
<stop stop-color="#7957FF"/>
<stop offset="1" stop-color="#A824E6"/>
</linearGradient>
</defs>
</svg>
