<svg width="69" height="69" viewBox="0 0 69 69" fill="none" xmlns="http://www.w3.org/2000/svg">
<g clip-path="url(#clip0_719_2670)">
<path d="M34.9996 26.2727C37.0079 26.2727 38.636 24.6446 38.636 22.6363C38.636 20.628 37.0079 19 34.9996 19C32.9913 19 31.3633 20.628 31.3633 22.6363C31.3633 24.6446 32.9913 26.2727 34.9996 26.2727Z" fill="#7957FF"/>
<path d="M30.0123 33.5455H39.9868C40.8462 33.5455 41.545 32.7912 41.545 31.8636V31.3977C41.545 30.1825 40.9435 29.0725 39.974 28.5007C38.8128 27.816 37.0074 27 34.9996 27C32.9917 27 31.1864 27.8161 30.0251 28.5007C29.0557 29.0724 28.4541 30.1825 28.4541 31.3977V31.8636C28.4541 32.7912 29.153 33.5455 30.0123 33.5455Z" fill="#7957FF"/>
<path d="M25.5455 43.7268C27.5538 43.7268 29.1819 42.0987 29.1819 40.0904C29.1819 38.0821 27.5538 36.4541 25.5455 36.4541C23.5372 36.4541 21.9092 38.0821 21.9092 40.0904C21.9092 42.0987 23.5372 43.7268 25.5455 43.7268Z" fill="#7957FF"/>
<path d="M30.5199 45.9558C29.3587 45.2711 27.5533 44.4551 25.5455 44.4551C23.5376 44.4551 21.7323 45.2711 20.571 45.9558C19.6016 46.5275 19 47.6375 19 48.8527V49.3186C19 50.2462 19.6989 51.0005 20.5582 51.0005H30.5327C31.3921 51.0005 32.0909 50.2462 32.0909 49.3186V48.8527C32.0909 47.6375 31.4893 46.5275 30.5199 45.9558Z" fill="#7957FF"/>
<path d="M44.4547 43.7268C46.463 43.7268 48.091 42.0987 48.091 40.0904C48.091 38.0821 46.463 36.4541 44.4547 36.4541C42.4464 36.4541 40.8184 38.0821 40.8184 40.0904C40.8184 42.0987 42.4464 43.7268 44.4547 43.7268Z" fill="#7957FF"/>
<path d="M49.429 45.9558C48.2678 45.2711 46.4625 44.4551 44.4546 44.4551C42.4468 44.4551 40.6414 45.2711 39.4802 45.9558C38.5107 46.5275 37.9092 47.6376 37.9092 48.8528V49.3187C37.9092 50.2462 38.608 51.0005 39.4674 51.0005H49.4419C50.3012 51.0005 51.0001 50.2462 51.0001 49.3187V48.8528C51 47.6375 50.3985 46.5275 49.429 45.9558Z" fill="#7957FF"/>
<path d="M38.6361 43.7273C38.8498 43.7273 39.0608 43.6335 39.205 43.4545C39.4557 43.1406 39.4046 42.6832 39.0913 42.4318L35.7277 39.741V35.7273C35.7277 35.3253 35.4024 35 35.0004 35C34.5984 35 34.2731 35.3252 34.2731 35.7272V39.7414L30.9095 42.4318C30.5963 42.6832 30.5452 43.1406 30.7959 43.4545C30.9401 43.6335 31.151 43.7272 31.3648 43.7272C31.5238 43.7272 31.6844 43.6754 31.8186 43.5681L35.0004 41.0227L38.1822 43.5681C38.3165 43.6754 38.477 43.7273 38.6361 43.7273Z" fill="#7957FF"/>
</g>
<rect x="5.5" y="5.5" width="58" height="58" rx="15.5" stroke="url(#paint0_linear_719_2670)" stroke-opacity="0.15" stroke-width="11"/>
<defs>
<linearGradient id="paint0_linear_719_2670" x1="34.5" y1="0" x2="34.5" y2="69" gradientUnits="userSpaceOnUse">
<stop stop-color="white"/>
<stop offset="1" stop-color="white" stop-opacity="0"/>
</linearGradient>
<clipPath id="clip0_719_2670">
<rect width="32" height="32" fill="white" transform="translate(19 19)"/>
</clipPath>
</defs>
</svg>
