<svg width="58" height="58" viewBox="0 0 58 58" fill="none" xmlns="http://www.w3.org/2000/svg">
<g clip-path="url(#clip0_518_5540)">
<path fill-rule="evenodd" clip-rule="evenodd" d="M38 30.75C38 35.7206 33.9706 39.75 29 39.75C24.0294 39.75 20 35.7206 20 30.75C20 25.7794 24.0294 21.75 29 21.75C33.9706 21.75 38 25.7794 38 30.75ZM28 33.25V28.25C28 27.7841 28 27.5511 27.9239 27.3673C27.8224 27.1223 27.6277 26.9276 27.3827 26.8261C27.1989 26.75 26.9659 26.75 26.5 26.75C26.0341 26.75 25.8011 26.75 25.6173 26.8261C25.3723 26.9276 25.1776 27.1223 25.0761 27.3673C25 27.5511 25 27.7841 25 28.25V33.25C25 33.7159 25 33.9489 25.0761 34.1327C25.1776 34.3777 25.3723 34.5724 25.6173 34.6739C25.8011 34.75 26.0341 34.75 26.5 34.75C26.9659 34.75 27.1989 34.75 27.3827 34.6739C27.6277 34.5724 27.8224 34.3777 27.9239 34.1327C28 33.9489 28 33.7159 28 33.25ZM33 33.25V28.25C33 27.7841 33 27.5511 32.9239 27.3673C32.8224 27.1223 32.6277 26.9276 32.3827 26.8261C32.1989 26.75 31.9659 26.75 31.5 26.75C31.0341 26.75 30.8011 26.75 30.6173 26.8261C30.3723 26.9276 30.1776 27.1223 30.0761 27.3673C30 27.5511 30 27.7841 30 28.25V33.25C30 33.7159 30 33.9489 30.0761 34.1327C30.1776 34.3777 30.3723 34.5724 30.6173 34.6739C30.8011 34.75 31.0341 34.75 31.5 34.75C31.9659 34.75 32.1989 34.75 32.3827 34.6739C32.6277 34.5724 32.8224 34.3777 32.9239 34.1327C33 33.9489 33 33.7159 33 33.25Z" fill="white" fill-opacity="0.5"/>
<path d="M27 19C26.5858 19 26.25 19.3358 26.25 19.75C26.25 20.1642 26.5858 20.5 27 20.5H31C31.4142 20.5 31.75 20.1642 31.75 19.75C31.75 19.3358 31.4142 19 31 19H27Z" fill="white" fill-opacity="0.5"/>
</g>
<rect x="4.5" y="4.5" width="49" height="49" rx="13.5" stroke="url(#paint0_linear_518_5540)" stroke-width="9"/>
<defs>
<linearGradient id="paint0_linear_518_5540" x1="3.49999" y1="64.5" x2="4.49994" y2="-29" gradientUnits="userSpaceOnUse">
<stop stop-color="#8C43F6" stop-opacity="0"/>
<stop offset="0.0852393" stop-color="#7D53FE" stop-opacity="0"/>
<stop offset="0.364583" stop-color="#8C43F6"/>
</linearGradient>
<clipPath id="clip0_518_5540">
<rect width="24" height="24" fill="white" transform="translate(17 17)"/>
</clipPath>
</defs>
</svg>
