<svg width="18" height="18" viewBox="0 0 18 18" fill="none" xmlns="http://www.w3.org/2000/svg">
<path d="M17.622 4.65241C17.5175 4.27876 17.3182 3.93843 17.0436 3.66437C16.7689 3.39031 16.4282 3.19182 16.0543 3.0881C14.6509 2.71291 9.00898 2.71291 9.00898 2.71291C9.00898 2.71291 3.37779 2.70391 1.95973 3.0881C1.58645 3.19227 1.24636 3.39098 0.972329 3.66501C0.698297 3.93904 0.49959 4.27913 0.395415 4.65241C0.128902 6.08916 -0.00235913 7.54772 0.00335247 9.00897C0.000751978 10.4632 0.131993 11.9146 0.395415 13.3447C0.499927 13.7182 0.698693 14.0585 0.97263 14.3331C1.24657 14.6076 1.58648 14.8071 1.95973 14.9124C3.36316 15.2876 9.00898 15.2876 9.00898 15.2876C9.00898 15.2876 14.6368 15.2876 16.0543 14.9124C16.4281 14.8075 16.7687 14.6083 17.0433 14.3337C17.3178 14.0591 17.5171 13.7186 17.622 13.3447C17.8802 11.9154 18.0062 10.4619 17.9972 9.00897C18.0062 7.54647 17.883 6.09072 17.622 4.65241ZM7.20673 11.7017V6.30447L11.903 9.00897L7.20673 11.7017Z" fill="white" fill-opacity="0.4"/>
</svg>
