<svg width="40" height="40" viewBox="0 0 40 40" fill="none" xmlns="http://www.w3.org/2000/svg">
<g clip-path="url(#clip0_362_3133)">
<path d="M23.1992 17.3984C20.0007 17.3984 17.3984 20.0007 17.3984 23.1992C17.3984 26.3978 20.0007 29 23.1992 29C26.3978 29 29 26.3978 29 23.1992C29 20.0007 26.3978 17.3984 23.1992 17.3984ZM23.1992 22.6719C24.0716 22.6719 24.7812 23.3815 24.7812 24.2539C24.7812 24.9405 24.3391 25.5204 23.7266 25.7388V26.8906H22.6719V25.7388C22.0594 25.5204 21.6172 24.9405 21.6172 24.2539H22.6719C22.6719 24.5449 22.9083 24.7812 23.1992 24.7812C23.4902 24.7812 23.7266 24.5449 23.7266 24.2539C23.7266 23.963 23.4902 23.7266 23.1992 23.7266C22.3269 23.7266 21.6172 23.0169 21.6172 22.1445C21.6172 21.4579 22.0594 20.8781 22.6719 20.6596V19.5078H23.7266V20.6596C24.3391 20.8781 24.7812 21.4579 24.7812 22.1445H23.7266C23.7266 21.8536 23.4902 21.6172 23.1992 21.6172C22.9083 21.6172 22.6719 21.8536 22.6719 22.1445C22.6719 22.4355 22.9083 22.6719 23.1992 22.6719Z" fill="#7957FF"/>
<path d="M16.8711 17.3984C20.1237 17.3984 22.6719 16.0085 22.6719 14.2344C22.6719 12.4603 20.1237 11 16.8711 11C13.6184 11 11 12.4603 11 14.2344C11 16.0085 13.6184 17.3984 16.8711 17.3984Z" fill="#7957FF"/>
<path d="M11 22.8672V23.7264C11 25.5006 13.6184 26.8905 16.8711 26.8905C17.0556 26.8905 17.2344 26.8735 17.416 26.8646C17.0115 26.2286 16.7098 25.5229 16.5322 24.7684C14.1801 24.7035 12.1377 23.9807 11 22.8672Z" fill="#7957FF"/>
<path d="M16.3691 23.6996C16.357 23.5337 16.3438 23.368 16.3438 23.1991C16.3438 22.6494 16.4158 22.1173 16.5386 21.6047C14.1836 21.5408 12.1387 20.8177 11 19.7031V20.5624C11 22.2424 13.3647 23.5627 16.3691 23.6996Z" fill="#7957FF"/>
<path d="M16.8711 20.5624C16.8717 20.5624 16.8721 20.5623 16.8727 20.5623C17.2205 19.7311 17.7261 18.9818 18.3539 18.3539C17.8777 18.4141 17.3855 18.453 16.8711 18.453C14.3674 18.453 12.1927 17.7064 11 16.5391V17.3983C11 19.1724 13.6184 20.5624 16.8711 20.5624Z" fill="#7957FF"/>
</g>
<rect x="3.18841" y="3.18841" width="33.6232" height="33.6232" rx="8.98551" stroke="url(#paint0_linear_362_3133)" stroke-opacity="0.3" stroke-width="6.37681"/>
<defs>
<linearGradient id="paint0_linear_362_3133" x1="20" y1="0" x2="20" y2="40" gradientUnits="userSpaceOnUse">
<stop stop-color="white"/>
<stop offset="1" stop-color="white" stop-opacity="0"/>
</linearGradient>
<clipPath id="clip0_362_3133">
<rect width="18" height="18" fill="white" transform="translate(11 11)"/>
</clipPath>
</defs>
</svg>
