<svg width="40" height="40" viewBox="0 0 40 40" fill="none" xmlns="http://www.w3.org/2000/svg">
<path d="M15.2165 27.8237H14.9999C14.2142 27.8237 13.8214 27.8237 13.5773 27.5796C13.3333 27.3355 13.3333 26.9427 13.3333 26.157V25.2304C13.3333 24.7983 13.3333 24.5822 13.4442 24.3893C13.5552 24.1964 13.7226 24.099 14.0575 23.9042C16.2621 22.622 19.3929 21.9003 21.4825 23.1466C21.6229 23.2303 21.7491 23.3314 21.857 23.4526C22.3221 23.975 22.2882 24.7634 21.7522 25.2312C21.639 25.33 21.5184 25.405 21.3969 25.431C21.4967 25.4194 21.5924 25.4062 21.6837 25.3916C22.4432 25.2705 23.0808 24.8646 23.6644 24.4237L25.1704 23.286C25.7014 22.885 26.4893 22.8849 27.0204 23.2859C27.4984 23.6468 27.6446 24.2412 27.3424 24.7256C26.9899 25.2906 26.4933 26.0133 26.0165 26.4549C25.539 26.8972 24.8282 27.292 24.2478 27.5721C23.605 27.8824 22.8948 28.0612 22.1724 28.1781C20.7073 28.4153 19.1804 28.3791 17.7302 28.0803C16.9104 27.9114 16.0589 27.8237 15.2165 27.8237Z" fill="#7957FF"/>
<path d="M15.4882 12.1551C15.1825 12.4608 15.0682 12.8831 15.0255 13.5418C16.0408 13.5283 16.8613 12.7078 16.8748 11.6925C16.2161 11.7352 15.7938 11.8495 15.4882 12.1551Z" fill="#7957FF"/>
<path d="M24.5118 12.1551C24.2062 11.8495 23.7839 11.7352 23.1252 11.6925C23.1387 12.7078 23.9592 13.5283 24.9745 13.5418C24.9318 12.8831 24.8175 12.4608 24.5118 12.1551Z" fill="#7957FF"/>
<path d="M24.5118 17.8455C24.2062 18.1511 23.7839 18.2654 23.1252 18.3081C23.1387 17.2929 23.9592 16.4724 24.9745 16.4588C24.9318 17.1176 24.8175 17.5399 24.5118 17.8455Z" fill="#7957FF"/>
<path d="M15.4882 17.8455C15.7938 18.1511 16.2161 18.2654 16.8748 18.3081C16.8613 17.2929 16.0408 16.4724 15.0255 16.4588C15.0682 17.1176 15.1825 17.5399 15.4882 17.8455Z" fill="#7957FF"/>
<path fill-rule="evenodd" clip-rule="evenodd" d="M15 14.792C16.7259 14.792 18.125 13.3929 18.125 11.667H21.875C21.875 13.3929 23.2741 14.792 25 14.792V15.2087C23.2741 15.2087 21.875 16.6078 21.875 18.3337H18.125C18.125 16.6078 16.7259 15.2087 15 15.2087V14.792ZM20 15.8337C20.4602 15.8337 20.8333 15.4606 20.8333 15.0003C20.8333 14.5401 20.4602 14.167 20 14.167C19.5398 14.167 19.1667 14.5401 19.1667 15.0003C19.1667 15.4606 19.5398 15.8337 20 15.8337Z" fill="#7957FF"/>
<rect x="3.18841" y="3.18841" width="33.6232" height="33.6232" rx="8.98551" stroke="url(#paint0_linear_356_2783)" stroke-opacity="0.3" stroke-width="6.37681"/>
<defs>
<linearGradient id="paint0_linear_356_2783" x1="20" y1="0" x2="20" y2="40" gradientUnits="userSpaceOnUse">
<stop stop-color="white"/>
<stop offset="1" stop-color="white" stop-opacity="0"/>
</linearGradient>
</defs>
</svg>
