<svg width="20" height="20" viewBox="0 0 20 20" fill="none" xmlns="http://www.w3.org/2000/svg">
<path d="M5.21653 17.8237H4.99992C4.21424 17.8237 3.82141 17.8237 3.57733 17.5796C3.33325 17.3355 3.33325 16.9427 3.33325 16.157V15.2304C3.33325 14.7983 3.33325 14.5822 3.44423 14.3893C3.55522 14.1964 3.72265 14.099 4.0575 13.9042C6.26206 12.622 9.39288 11.9003 11.4825 13.1466C11.6229 13.2303 11.7491 13.3314 11.857 13.4526C12.3221 13.975 12.2882 14.7634 11.7522 15.2312C11.639 15.33 11.5184 15.405 11.3969 15.431C11.4967 15.4194 11.5924 15.4062 11.6837 15.3916C12.4432 15.2705 13.0808 14.8646 13.6644 14.4237L15.1704 13.286C15.7014 12.885 16.4893 12.8849 17.0204 13.2859C17.4984 13.6468 17.6446 14.2412 17.3424 14.7256C16.9899 15.2906 16.4933 16.0133 16.0165 16.4549C15.539 16.8972 14.8282 17.292 14.2478 17.5721C13.605 17.8824 12.8948 18.0612 12.1724 18.1781C10.7073 18.4153 9.18039 18.3791 7.73019 18.0803C6.91036 17.9114 6.05891 17.8237 5.21653 17.8237Z" fill="#7957FF"/>
<path d="M5.48815 2.15466C5.18251 2.46031 5.06824 2.88259 5.02551 3.54133C6.0408 3.52779 6.86129 2.7073 6.87483 1.69202C6.21609 1.73474 5.7938 1.84901 5.48815 2.15466Z" fill="#7957FF"/>
<path d="M14.5118 2.15466C14.2062 1.84901 13.7839 1.73474 13.1252 1.69201C13.1387 2.7073 13.9592 3.5278 14.9745 3.54133C14.9318 2.88259 14.8175 2.46031 14.5118 2.15466Z" fill="#7957FF"/>
<path d="M14.5118 7.84501C14.2062 8.15066 13.7839 8.26493 13.1252 8.30766C13.1387 7.29237 13.9592 6.47188 14.9745 6.45834C14.9318 7.11708 14.8175 7.53937 14.5118 7.84501Z" fill="#7957FF"/>
<path d="M5.48816 7.84501C5.7938 8.15066 6.21609 8.26493 6.87483 8.30766C6.86129 7.29237 6.0408 6.47188 5.02551 6.45834C5.06824 7.11708 5.18251 7.53937 5.48816 7.84501Z" fill="#7957FF"/>
<path fill-rule="evenodd" clip-rule="evenodd" d="M5 4.7915C6.72589 4.7915 8.125 3.39239 8.125 1.6665H11.875C11.875 3.39239 13.2741 4.7915 15 4.7915V5.20817C13.2741 5.20817 11.875 6.60728 11.875 8.33317H8.125C8.125 6.60728 6.72589 5.20817 5 5.20817V4.7915ZM10 5.83317C10.4602 5.83317 10.8333 5.46007 10.8333 4.99984C10.8333 4.5396 10.4602 4.1665 10 4.1665C9.53976 4.1665 9.16667 4.5396 9.16667 4.99984C9.16667 5.46007 9.53976 5.83317 10 5.83317Z" fill="#7957FF"/>
</svg>
