<svg width="18" height="18" viewBox="0 0 18 18" fill="none" xmlns="http://www.w3.org/2000/svg">
<g clip-path="url(#clip0_362_3229)">
<path d="M8.99999 9.83776C8.95886 9.83776 8.89906 9.77515 8.89906 9.67706C8.89906 9.57894 8.95882 9.51636 8.99999 9.51636H9.63664C9.93251 9.51636 10.1723 9.27649 10.1723 8.98065C10.1723 8.68481 9.93248 8.44494 9.63664 8.44494H9.5357V8.38141C9.5357 8.08557 9.29583 7.8457 8.99999 7.8457C8.70415 7.8457 8.46428 8.08557 8.46428 8.38141V8.5817C8.08663 8.78655 7.82764 9.20052 7.82764 9.67713C7.82764 10.3565 8.35357 10.9093 8.99999 10.9093C9.04113 10.9093 9.10093 10.9719 9.10093 11.07C9.10093 11.1681 9.04116 11.2307 8.99999 11.2307H8.36335C8.06751 11.2307 7.82764 11.4706 7.82764 11.7664C7.82764 12.0622 8.06751 12.3021 8.36335 12.3021H8.46428V12.3657C8.46428 12.6615 8.70415 12.9014 8.99999 12.9014C9.29587 12.9014 9.5357 12.6615 9.5357 12.3657V12.1654C9.91335 11.9605 10.1723 11.5466 10.1723 11.07C10.1723 10.3905 9.64641 9.83776 8.99999 9.83776Z" fill="#7957FF"/>
<path d="M10.4369 3.32995C10.6709 3.02486 10.8104 2.64373 10.8104 2.2304C10.8104 1.23207 9.99822 0.419922 8.99993 0.419922C8.00163 0.419922 7.18941 1.2321 7.18941 2.2304C7.18941 2.6437 7.32891 3.02486 7.56291 3.32995C6.60294 3.84463 5.94836 4.8577 5.94836 6.02102C5.94836 6.31689 6.18824 6.55673 6.48407 6.55673H11.5157C11.8116 6.55673 12.0514 6.31686 12.0514 6.02102C12.0514 4.8577 11.3969 3.84463 10.4369 3.32995Z" fill="#7957FF"/>
<path d="M4.48854 14.3534C4.72254 14.0483 4.86204 13.6672 4.86204 13.2538C4.86204 12.2555 4.04986 11.4434 3.05156 11.4434C2.05327 11.4434 1.24109 12.2556 1.24109 13.2539C1.24109 13.6672 1.38059 14.0483 1.61459 14.3534C0.654574 14.8681 0 15.8811 0 17.0445C0 17.3403 0.239871 17.5802 0.535711 17.5802H5.56734C5.86318 17.5802 6.10306 17.3403 6.10306 17.0445C6.10309 15.8811 5.44852 14.8681 4.48854 14.3534Z" fill="#7957FF"/>
<path d="M12.782 4.37988C12.9996 4.88089 13.1187 5.42807 13.1224 5.99359C14.2887 7.0918 15.0182 8.64905 15.0183 10.3737C15.3963 10.3828 15.7567 10.4644 16.0855 10.6062C16.088 10.529 16.0897 10.4517 16.0897 10.374C16.0897 7.85416 14.7682 5.63753 12.782 4.37988Z" fill="#7957FF"/>
<path d="M1.91016 10.3737C1.91016 10.4515 1.91188 10.5288 1.91438 10.6059C2.24323 10.4642 2.60354 10.3826 2.98161 10.3735C2.98168 8.64901 3.71104 7.09187 4.87717 5.99359C4.88089 5.42807 4.99993 4.88086 5.21752 4.37988C3.23157 5.63756 1.91016 7.85409 1.91016 10.3737Z" fill="#7957FF"/>
<path d="M10.9419 16.0703C10.3324 16.2787 9.67916 16.3919 8.99994 16.3919C8.32073 16.3919 7.66752 16.2787 7.05798 16.0703C7.13441 16.385 7.17442 16.7115 7.17442 17.0441C7.17442 17.1042 7.1708 17.1635 7.16437 17.2219C7.75007 17.379 8.3653 17.4633 8.99994 17.4633C9.63459 17.4633 10.2498 17.379 10.8355 17.2219C10.8291 17.1635 10.8255 17.1042 10.8255 17.0441C10.8254 16.7114 10.8654 16.385 10.9419 16.0703Z" fill="#7957FF"/>
<path d="M16.3855 14.3534C16.6195 14.0483 16.759 13.6672 16.759 13.2538C16.759 12.2555 15.9468 11.4434 14.9485 11.4434C13.9502 11.4434 13.138 12.2555 13.138 13.2538C13.138 13.6671 13.2775 14.0483 13.5115 14.3534C12.5515 14.8681 11.897 15.8811 11.897 17.0445C11.897 17.3403 12.1368 17.5802 12.4327 17.5802H17.4642C17.7601 17.5802 18 17.3403 18 17.0445C18 15.8811 17.3455 14.8681 16.3855 14.3534Z" fill="#7957FF"/>
</g>
<defs>
<clipPath id="clip0_362_3229">
<rect width="18" height="18" fill="white"/>
</clipPath>
</defs>
</svg>
