<svg width="40" height="40" viewBox="0 0 40 40" fill="none" xmlns="http://www.w3.org/2000/svg">
<g clip-path="url(#clip0_362_3167)">
<path d="M20 20.8378C19.9589 20.8378 19.8991 20.7751 19.8991 20.6771C19.8991 20.5789 19.9588 20.5164 20 20.5164H20.6366C20.9325 20.5164 21.1723 20.2765 21.1723 19.9807C21.1723 19.6848 20.9325 19.4449 20.6366 19.4449H20.5357V19.3814C20.5357 19.0856 20.2958 18.8457 20 18.8457C19.7042 18.8457 19.4643 19.0856 19.4643 19.3814V19.5817C19.0866 19.7866 18.8276 20.2005 18.8276 20.6771C18.8276 21.3565 19.3536 21.9093 20 21.9093C20.0411 21.9093 20.1009 21.9719 20.1009 22.07C20.1009 22.1681 20.0412 22.2307 20 22.2307H19.3633C19.0675 22.2307 18.8276 22.4706 18.8276 22.7664C18.8276 23.0622 19.0675 23.3021 19.3633 23.3021H19.4643V23.3657C19.4643 23.6615 19.7042 23.9014 20 23.9014C20.2959 23.9014 20.5357 23.6615 20.5357 23.3657V23.1654C20.9134 22.9605 21.1723 22.5466 21.1723 22.07C21.1723 21.3905 20.6464 20.8378 20 20.8378Z" fill="#7957FF"/>
<path d="M21.4369 14.3299C21.6709 14.0249 21.8104 13.6437 21.8104 13.2304C21.8104 12.2321 20.9982 11.4199 19.9999 11.4199C19.0016 11.4199 18.1894 12.2321 18.1894 13.2304C18.1894 13.6437 18.3289 14.0249 18.5629 14.3299C17.6029 14.8446 16.9484 15.8577 16.9484 17.021C16.9484 17.3169 17.1882 17.5567 17.4841 17.5567H22.5157C22.8116 17.5567 23.0514 17.3169 23.0514 17.021C23.0514 15.8577 22.3969 14.8446 21.4369 14.3299Z" fill="#7957FF"/>
<path d="M15.4885 25.3534C15.7225 25.0483 15.862 24.6672 15.862 24.2538C15.862 23.2555 15.0499 22.4434 14.0516 22.4434C13.0533 22.4434 12.2411 23.2556 12.2411 24.2539C12.2411 24.6672 12.3806 25.0483 12.6146 25.3534C11.6546 25.8681 11 26.8811 11 28.0445C11 28.3403 11.2399 28.5802 11.5357 28.5802H16.5673C16.8632 28.5802 17.1031 28.3403 17.1031 28.0445C17.1031 26.8811 16.4485 25.8681 15.4885 25.3534Z" fill="#7957FF"/>
<path d="M23.782 15.3799C23.9996 15.8809 24.1187 16.4281 24.1224 16.9936C25.2887 18.0918 26.0182 19.649 26.0183 21.3737C26.3963 21.3828 26.7567 21.4644 27.0855 21.6062C27.088 21.529 27.0897 21.4517 27.0897 21.374C27.0897 18.8542 25.7682 16.6375 23.782 15.3799Z" fill="#7957FF"/>
<path d="M12.9102 21.3737C12.9102 21.4515 12.9119 21.5288 12.9144 21.6059C13.2432 21.4642 13.6035 21.3826 13.9816 21.3735C13.9817 19.649 14.711 18.0919 15.8772 16.9936C15.8809 16.4281 15.9999 15.8809 16.2175 15.3799C14.2316 16.6376 12.9102 18.8541 12.9102 21.3737Z" fill="#7957FF"/>
<path d="M21.9419 27.0703C21.3324 27.2787 20.6792 27.3919 19.9999 27.3919C19.3207 27.3919 18.6675 27.2787 18.058 27.0703C18.1344 27.385 18.1744 27.7115 18.1744 28.0441C18.1744 28.1042 18.1708 28.1635 18.1644 28.2219C18.7501 28.379 19.3653 28.4633 19.9999 28.4633C20.6346 28.4633 21.2498 28.379 21.8355 28.2219C21.8291 28.1635 21.8255 28.1042 21.8255 28.0441C21.8254 27.7114 21.8654 27.385 21.9419 27.0703Z" fill="#7957FF"/>
<path d="M27.3855 25.3534C27.6195 25.0483 27.759 24.6672 27.759 24.2538C27.759 23.2555 26.9468 22.4434 25.9485 22.4434C24.9502 22.4434 24.138 23.2555 24.138 24.2538C24.138 24.6671 24.2775 25.0483 24.5115 25.3534C23.5515 25.8681 22.897 26.8811 22.897 28.0445C22.897 28.3403 23.1368 28.5802 23.4327 28.5802H28.4642C28.7601 28.5802 29 28.3403 29 28.0445C29 26.8811 28.3455 25.8681 27.3855 25.3534Z" fill="#7957FF"/>
</g>
<rect x="3.18841" y="3.18841" width="33.6232" height="33.6232" rx="8.98551" stroke="url(#paint0_linear_362_3167)" stroke-opacity="0.3" stroke-width="6.37681"/>
<defs>
<linearGradient id="paint0_linear_362_3167" x1="20" y1="0" x2="20" y2="40" gradientUnits="userSpaceOnUse">
<stop stop-color="white"/>
<stop offset="1" stop-color="white" stop-opacity="0"/>
</linearGradient>
<clipPath id="clip0_362_3167">
<rect width="18" height="18" fill="white" transform="translate(11 11)"/>
</clipPath>
</defs>
</svg>
