<svg width="40" height="40" viewBox="0 0 40 40" fill="none" xmlns="http://www.w3.org/2000/svg">
<g clip-path="url(#clip0_362_3160)">
<path d="M11.2454 20.0236C11.0519 20.0949 10.9521 20.3094 11.0226 20.5036L11.2581 21.1516L13.0513 19.3584L11.2454 20.0236Z" fill="#7957FF"/>
<path d="M12.9425 25.7832L14.0225 28.7531C14.0562 28.8469 14.1267 28.9234 14.2167 28.9646C14.2669 28.9878 14.3209 28.9999 14.3749 28.9999C14.4192 28.9999 14.4627 28.9924 14.5047 28.9766L15.6964 28.5371L12.9425 25.7832Z" fill="#7957FF"/>
<path d="M28.9771 23.2477L27.7411 19.8496L24.775 22.8157L26.2449 22.2743C26.4377 22.2007 26.6551 22.3012 26.7264 22.4963C26.7984 22.6905 26.6987 22.9065 26.5044 22.9777L24.637 23.6662C24.5942 23.682 24.5507 23.6895 24.5072 23.6895C24.3549 23.6895 24.2109 23.5957 24.1555 23.4442C24.1547 23.442 24.1555 23.4397 24.1547 23.4375L21.0116 26.5806L28.7543 23.7277C28.9485 23.6565 29.0483 23.442 28.9771 23.2477Z" fill="#7957FF"/>
<path d="M28.8899 17.1095L22.8901 11.1097C22.7439 10.9634 22.5061 10.9634 22.3599 11.1097L11.1103 22.3593C10.964 22.5055 10.964 22.7433 11.1103 22.8895L17.1101 28.8893C17.1828 28.9628 17.2788 28.9996 17.3748 28.9996C17.4709 28.9996 17.5668 28.9628 17.6403 28.8901L28.8899 17.6405C29.0362 17.4935 29.0362 17.2565 28.8899 17.1095ZM15.3904 21.3903L13.8905 22.8903C13.8169 22.963 13.721 22.9998 13.625 22.9998C13.529 22.9998 13.433 22.963 13.3595 22.8903C13.2132 22.744 13.2132 22.5063 13.3595 22.36L14.8594 20.8601C15.0057 20.7138 15.2434 20.7138 15.3897 20.8601C15.5359 21.0063 15.5367 21.2433 15.3904 21.3903ZM21.8664 21.8666C21.6009 22.132 21.2402 22.2596 20.839 22.2596C20.176 22.2596 19.4013 21.9123 18.7533 21.2636C18.2793 20.7896 17.9463 20.2226 17.8166 19.6676C17.6726 19.0489 17.7911 18.5104 18.1503 18.1505C18.5095 17.7905 19.048 17.672 19.6675 17.8167C20.2225 17.9465 20.7895 18.2787 21.2634 18.7534C22.3052 19.7944 22.5707 21.1623 21.8664 21.8666ZM26.64 17.6405L25.1401 19.1404C25.0666 19.2132 24.9706 19.2499 24.8746 19.2499C24.7786 19.2499 24.6826 19.2132 24.6091 19.1404C24.4628 18.9942 24.4628 18.7564 24.6091 18.6102L26.109 17.1102C26.2553 16.964 26.493 16.964 26.6393 17.1102C26.7855 17.2565 26.7863 17.4935 26.64 17.6405Z" fill="#7957FF"/>
</g>
<rect x="3.18841" y="3.18841" width="33.6232" height="33.6232" rx="8.98551" stroke="url(#paint0_linear_362_3160)" stroke-opacity="0.3" stroke-width="6.37681"/>
<defs>
<linearGradient id="paint0_linear_362_3160" x1="20" y1="0" x2="20" y2="40" gradientUnits="userSpaceOnUse">
<stop stop-color="white"/>
<stop offset="1" stop-color="white" stop-opacity="0"/>
</linearGradient>
<clipPath id="clip0_362_3160">
<rect width="18" height="18" fill="white" transform="translate(11 11)"/>
</clipPath>
</defs>
</svg>
