<svg width="18" height="18" viewBox="0 0 18 18" fill="none" xmlns="http://www.w3.org/2000/svg">
<path d="M17.8899 6.10949L11.8901 0.109684C11.7439 -0.0365612 11.5061 -0.0365612 11.3599 0.109684L0.110294 11.3593C-0.0359509 11.5055 -0.0359509 11.7433 0.110294 11.8895L6.11009 17.8893C6.18283 17.9628 6.27884 17.9996 6.37485 17.9996C6.47086 17.9996 6.56683 17.9628 6.64034 17.8901L17.8899 6.64047C18.0362 6.49348 18.0362 6.25647 17.8899 6.10949ZM4.39042 10.3903L2.89046 11.8903C2.81695 11.963 2.72098 11.9998 2.62497 11.9998C2.52896 11.9998 2.43299 11.963 2.35948 11.8903C2.21323 11.744 2.21323 11.5063 2.35948 11.36L3.85944 9.86007C4.00568 9.71382 4.24343 9.71382 4.38968 9.86007C4.53592 10.0063 4.53666 10.2433 4.39042 10.3903ZM10.8664 10.8666C10.6009 11.132 10.2402 11.2596 9.83895 11.2596C9.17596 11.2596 8.40125 10.9123 7.75327 10.2636C7.27928 9.78958 6.94629 9.2226 6.81657 8.66765C6.67257 8.04892 6.79108 7.51045 7.1503 7.15046C7.50955 6.79047 8.04801 6.67197 8.66748 6.81673C9.22247 6.94649 9.78945 7.27871 10.2634 7.75344C11.3052 8.79438 11.5707 10.1623 10.8664 10.8666ZM15.64 6.64047L14.1401 8.14043C14.0666 8.21316 13.9706 8.24993 13.8746 8.24993C13.7786 8.24993 13.6826 8.2132 13.6091 8.14043C13.4628 7.99418 13.4628 7.75643 13.6091 7.61018L15.109 6.11022C15.2553 5.96398 15.493 5.96398 15.6393 6.11022C15.7855 6.25647 15.7863 6.49348 15.64 6.64047Z" fill="#7957FF"/>
</svg>
